SplineFontDB: 3.0
FontName: suruma
FullName: suruma
FamilyName: suruma
Weight: Book
Copyright: Created by suresh p. <suresh@ippimail.com> with FontForge 1.0 (http://fontforge.sf.net)\n\nThis is free software and is licenced under the terms of GNU General Public Licence (Ver.3) by Free Software Foundation,with font Exception\n\nFont Exception\n^^^^^^^^^^^^^^\nAs a special exception, if you create a document which uses this font, and embed this font or unaltered portions of this font into the document, this font does not by itself cause the resulting document to be covered by the GNU General Public License. This exception does not however invalidate any other reasons why the document might be covered by the GNU General Public License. If you modify this font, you may extend this exception to your version of the font, but you are not obligated to do so. If you do not wish to do so, delete this exception statement from your version.
Version: 2;Subversion:0.5
ItalicAngle: 0
UnderlinePosition: -124
UnderlineWidth: 49
Ascent: 1366
Descent: 682
LayerCount: 2
Layer: 0 1 "Back"  1
Layer: 1 1 "Fore"  0
XUID: [1021 505 1187139440 16569902]
FSType: 0
OS2Version: 1
OS2_WeightWidthSlopeOnly: 0
OS2_UseTypoMetrics: 1
CreationTime: 1185628049
ModificationTime: 1204295265
PfmFamily: 17
TTFWeight: 400
TTFWidth: 5
LineGap: 377
VLineGap: 0
Panose: 2 0 6 3 0 0 0 0 0 0
OS2TypoAscent: 0
OS2TypoAOffset: 1
OS2TypoDescent: 0
OS2TypoDOffset: 1
OS2TypoLinegap: 0
OS2WinAscent: 0
OS2WinAOffset: 1
OS2WinDescent: 0
OS2WinDOffset: 1
HheadAscent: 0
HheadAOffset: 1
HheadDescent: 0
HheadDOffset: 1
OS2SubXSize: 1329
OS2SubYSize: 1430
OS2SubXOff: 0
OS2SubYOff: 287
OS2SupXSize: 1329
OS2SupYSize: 1430
OS2SupXOff: 0
OS2SupYOff: 981
OS2StrikeYSize: 100
OS2StrikeYPos: 528
OS2Vendor: 'PfEd'
OS2CodePages: 00000000.80000000
OS2UnicodeRanges: 80800001.00002000.00000000.00000000

StartChar: .notdef
Encoding: 65536 -1 0
Width: 884
Flags: W
LayerCount: 2
Fore
SplineSet
68 0 m 1,0,-1
 68 1366 l 1,1,-1
 750 1366 l 1,2,-1
 750 0 l 1,3,-1
 68 0 l 1,0,-1
135 68 m 1,4,-1
 682 68 l 1,5,-1
 682 1296 l 1,6,-1
 135 1296 l 1,7,-1
 135 68 l 1,4,-1
EndSplineSet
EndChar

StartChar: exclam
Encoding: 33 33 4
Width: 380
GlyphClass: 2
Flags: W
LayerCount: 2
Fore
SplineSet
187 211 m 0,0,1
 300 211 300 211 300 93 c 0,2,3
 300 -24 300 -24 192 -24 c 0,4,5
 80 -24 80 -24 80 91 c 0,6,7
 80 211 80 211 187 211 c 0,0,1
273 1341 m 1,8,9
 304 1305 304 1305 273 818 c 1,10,-1
 223 414 l 1,11,-1
 151 414 l 1,12,-1
 101 818 l 1,13,14
 75 1313 75 1313 101 1341 c 0,15,16
 190 1432 190 1432 273 1341 c 1,8,9
EndSplineSet
EndChar

StartChar: quotedbl
Encoding: 34 34 5
Width: 766
GlyphClass: 2
Flags: W
LayerCount: 2
Fore
SplineSet
80 1341 m 0,0,1
 176 1436 176 1436 271 1341 c 0,2,3
 294 1317 294 1317 271 1087 c 1,4,-1
 220 841 l 1,5,-1
 138 841 l 1,6,-1
 80 1087 l 1,7,8
 54 1315 54 1315 80 1341 c 0,0,1
495 1341 m 0,9,10
 584 1448 584 1448 686 1341 c 1,11,12
 710 1318 710 1318 686 1087 c 1,13,-1
 634 841 l 1,14,-1
 554 841 l 1,15,-1
 495 1087 l 1,16,17
 469 1309 469 1309 495 1341 c 0,9,10
EndSplineSet
EndChar

StartChar: numbersign
Encoding: 35 35 6
Width: 1132
GlyphClass: 2
Flags: W
LayerCount: 2
Fore
SplineSet
947 1319 m 1,0,-1
 881 958 l 1,1,-1
 1052 958 l 1,2,-1
 1052 833 l 1,3,-1
 857 833 l 1,4,-1
 800 513 l 1,5,-1
 993 513 l 1,6,-1
 993 388 l 1,7,-1
 778 388 l 1,8,-1
 706 -1 l 1,9,-1
 566 -1 l 1,10,-1
 636 388 l 1,11,-1
 408 388 l 1,12,-1
 336 -1 l 1,13,-1
 196 -1 l 1,14,-1
 266 388 l 1,15,-1
 80 388 l 1,16,-1
 80 513 l 1,17,-1
 290 513 l 1,18,-1
 347 833 l 1,19,-1
 148 833 l 1,20,-1
 148 958 l 1,21,-1
 371 958 l 1,22,-1
 437 1319 l 1,23,-1
 577 1319 l 1,24,-1
 511 958 l 1,25,-1
 741 958 l 1,26,-1
 805 1319 l 1,27,-1
 947 1319 l 1,0,-1
717 833 m 1,28,-1
 489 833 l 1,29,-1
 430 513 l 1,30,-1
 660 513 l 1,31,-1
 717 833 l 1,28,-1
EndSplineSet
EndChar

StartChar: dollar
Encoding: 36 36 7
Width: 967
GlyphClass: 2
Flags: W
LayerCount: 2
Fore
SplineSet
888 409 m 0,0,1
 887 53 887 53 540 55 c 1,2,-1
 540 -86 l 1,3,-1
 422 -86 l 1,4,-1
 422 52 l 1,5,6
 44 51 44 51 84 437 c 1,7,-1
 167 438 l 1,8,9
 119 121 119 121 422 119 c 1,10,-1
 422 619 l 1,11,12
 104 738 104 738 106 976 c 1,13,14
 107 1274 107 1274 422 1275 c 1,15,-1
 422 1388 l 1,16,-1
 540 1388 l 1,17,-1
 540 1278 l 1,18,19
 800 1277 800 1277 851 952 c 1,20,-1
 781 950 l 1,21,22
 719 1205 719 1205 540 1206 c 1,23,-1
 540 734 l 1,24,25
 888 618 888 618 888 409 c 0,0,1
422 1204 m 1,26,27
 239 1202 239 1202 240 978 c 1,28,29
 242 831 242 831 422 763 c 1,30,-1
 422 1204 l 1,26,27
540 119 m 1,31,32
 752 121 752 121 752 396 c 0,33,34
 752 527 752 527 540 604 c 1,35,-1
 540 119 l 1,31,32
EndSplineSet
EndChar

StartChar: percent
Encoding: 37 37 8
Width: 1554
GlyphClass: 2
Flags: W
LayerCount: 2
Fore
SplineSet
1191 700 m 0,0,1
 1474 700 1474 700 1474 402 c 0,2,3
 1474 70 1474 70 1193 70 c 0,4,5
 910 70 910 70 910 395 c 0,6,7
 910 700 910 700 1191 700 c 0,0,1
1212 624 m 0,8,9
 1023 625 1023 625 1024 400 c 0,10,11
 1025 180 1025 180 1212 180 c 0,12,13
 1396 180 1396 180 1394 406 c 0,14,15
 1392 623 1392 623 1212 624 c 0,8,9
361 1296 m 0,16,17
 644 1296 644 1296 644 998 c 0,18,19
 644 666 644 666 363 666 c 0,20,21
 80 666 80 666 80 991 c 0,22,23
 80 1296 80 1296 361 1296 c 0,16,17
382 1220 m 0,24,25
 193 1221 193 1221 194 996 c 0,26,27
 195 776 195 776 382 776 c 0,28,29
 566 776 566 776 564 1002 c 0,30,31
 562 1219 562 1219 382 1220 c 0,24,25
1030 1341 m 1,32,-1
 1160 1341 l 1,33,-1
 505 -1 l 1,34,-1
 376 -1 l 1,35,-1
 1030 1341 l 1,32,-1
EndSplineSet
EndChar

StartChar: ampersand
Encoding: 38 38 9
Width: 1232
GlyphClass: 2
Flags: W
LayerCount: 2
Fore
SplineSet
887 345 m 1,0,1
 971 465 971 465 975 633 c 1,2,-1
 1051 633 l 1,3,4
 1040 444 1040 444 940 277 c 1,5,-1
 1153 1 l 1,6,-1
 972 1 l 1,7,-1
 858 162 l 1,8,9
 693 -22 693 -22 471 -23 c 0,10,11
 80 -24 80 -24 80 279 c 1,12,13
 79 569 79 569 416 790 c 1,14,15
 261 945 261 945 260 1105 c 0,16,17
 259 1361 259 1361 577 1363 c 0,18,19
 858 1364 858 1364 859 1151 c 1,20,21
 861 983 861 983 575 792 c 1,22,-1
 887 345 l 1,0,1
521 868 m 1,23,24
 781 1029 781 1029 776 1145 c 1,25,26
 774 1288 774 1288 579 1288 c 0,27,28
 380 1288 380 1288 380 1117 c 0,29,30
 380 1017 380 1017 521 868 c 1,23,24
800 234 m 1,31,-1
 456 723 l 1,32,33
 237 533 237 533 240 291 c 0,34,35
 242 86 242 86 464 75 c 0,36,37
 642 66 642 66 800 234 c 1,31,-1
EndSplineSet
EndChar

StartChar: quotesingle
Encoding: 39 39 10
Width: 372
GlyphClass: 2
Flags: W
LayerCount: 2
Fore
SplineSet
80 1338 m 0,0,1
 186 1441 186 1441 292 1338 c 1,2,3
 318 1315 318 1315 292 1134 c 1,4,-1
 223 848 l 1,5,-1
 149 848 l 1,6,-1
 80 1134 l 1,7,8
 55 1313 55 1313 80 1338 c 0,0,1
EndSplineSet
EndChar

StartChar: parenleft
Encoding: 40 40 11
Width: 562
GlyphClass: 2
Flags: W
LayerCount: 2
Fore
SplineSet
482 1337 m 1,0,1
 229 930 229 930 229 486 c 0,2,3
 229 -24 229 -24 482 -395 c 1,4,-1
 411 -395 l 1,5,6
 173 -135 173 -135 104 231 c 0,7,8
 80 356 80 356 80 472 c 0,9,10
 80 812 80 812 271 1132 c 0,11,12
 340 1248 340 1248 420 1337 c 1,13,-1
 482 1337 l 1,0,1
EndSplineSet
EndChar

StartChar: parenright
Encoding: 41 41 12
Width: 562
GlyphClass: 2
Flags: W
LayerCount: 2
Fore
SplineSet
80 1337 m 1,0,1
 333 930 333 930 333 486 c 0,2,3
 333 -24 333 -24 80 -395 c 1,4,-1
 151 -395 l 1,5,6
 389 -135 389 -135 458 231 c 0,7,8
 482 356 482 356 482 472 c 0,9,10
 482 812 482 812 291 1132 c 0,11,12
 222 1248 222 1248 142 1337 c 1,13,-1
 80 1337 l 1,0,1
EndSplineSet
EndChar

StartChar: asterisk
Encoding: 42 42 13
Width: 774
GlyphClass: 2
Flags: W
LayerCount: 2
Fore
SplineSet
323 1332 m 1,0,1
 396 1420 396 1420 451 1332 c 1,2,-1
 441 1105 l 1,3,-1
 655 1182 l 1,4,5
 750 1152 750 1152 694 1062 c 1,6,-1
 475 1002 l 1,7,-1
 617 821 l 1,8,9
 614 722 614 722 513 748 c 1,10,-1
 388 937 l 1,11,-1
 260 748 l 1,12,13
 158 718 158 718 159 821 c 1,14,-1
 299 1002 l 1,15,-1
 80 1062 l 1,16,17
 40 1154 40 1154 118 1182 c 1,18,-1
 333 1105 l 1,19,-1
 323 1332 l 1,0,1
EndSplineSet
EndChar

StartChar: plus
Encoding: 43 43 14
Width: 1080
GlyphClass: 2
Flags: W
LayerCount: 2
Fore
SplineSet
1000 540 m 1,0,-1
 1000 382 l 1,1,-1
 619 382 l 1,2,-1
 619 1 l 1,3,-1
 461 1 l 1,4,-1
 461 382 l 1,5,-1
 80 382 l 1,6,-1
 80 540 l 1,7,-1
 461 540 l 1,8,-1
 461 921 l 1,9,-1
 619 921 l 1,10,-1
 619 540 l 1,11,-1
 1000 540 l 1,0,-1
EndSplineSet
EndChar

StartChar: comma
Encoding: 44 44 15
Width: 392
GlyphClass: 2
Flags: W
LayerCount: 2
Fore
SplineSet
191 206 m 1,0,1
 313 207 313 207 313 10 c 0,2,3
 313 -238 313 -238 91 -237 c 1,4,-1
 91 -171 l 1,5,6
 223 -160 223 -160 206 -15 c 1,7,8
 81 -25 81 -25 80 110 c 0,9,10
 80 204 80 204 191 206 c 1,0,1
EndSplineSet
EndChar

StartChar: hyphen
Encoding: 45 45 16
Width: 738
GlyphClass: 2
Flags: W
LayerCount: 2
Fore
SplineSet
658 510 m 1,0,-1
 658 348 l 1,1,-1
 80 348 l 1,2,-1
 80 510 l 1,3,-1
 658 510 l 1,0,-1
EndSplineSet
EndChar

StartChar: period
Encoding: 46 46 17
Width: 380
GlyphClass: 2
Flags: W
LayerCount: 2
Fore
SplineSet
187 211 m 0,0,1
 300 211 300 211 300 93 c 0,2,3
 300 -24 300 -24 192 -24 c 0,4,5
 80 -24 80 -24 80 91 c 0,6,7
 80 211 80 211 187 211 c 0,0,1
EndSplineSet
EndChar

StartChar: slash
Encoding: 47 47 18
Width: 718
GlyphClass: 2
Flags: W
LayerCount: 2
Fore
SplineSet
516 1363 m 1,0,-1
 638 1363 l 1,1,-1
 202 -28 l 1,2,-1
 80 -28 l 1,3,-1
 516 1363 l 1,0,-1
EndSplineSet
EndChar

StartChar: zero
Encoding: 48 48 19
Width: 1014
GlyphClass: 2
Flags: W
LayerCount: 2
Fore
SplineSet
507 1366 m 128,-1,1
 934 1369 934 1369 934 670 c 0,2,3
 934 8 934 8 507 5 c 128,-1,4
 80 2 80 2 80 682.5 c 128,-1,0
 80 1363 80 1363 507 1366 c 128,-1,1
508 57 m 0,5,6
 773 57 773 57 774 681 c 0,7,8
 775 1262 775 1262 514 1262 c 256,9,10
 253 1262 253 1262 252 696 c 0,11,12
 251 57 251 57 508 57 c 0,5,6
EndSplineSet
EndChar

StartChar: one
Encoding: 49 49 20
Width: 610
GlyphClass: 2
Flags: W
LayerCount: 2
Fore
SplineSet
368 929 m 1,0,-1
 80 929 l 1,1,-1
 80 1007 l 1,2,3
 312 1012 312 1012 365 1092 c 0,4,5
 397 1140 397 1140 390 1341 c 1,6,-1
 530 1341 l 1,7,-1
 530 0 l 1,8,-1
 368 0 l 1,9,-1
 368 929 l 1,0,-1
EndSplineSet
EndChar

StartChar: two
Encoding: 50 50 21
Width: 1038
GlyphClass: 2
Flags: W
LayerCount: 2
Fore
SplineSet
110 908 m 1,0,1
 113 1363 113 1363 535.5 1354 c 128,-1,2
 958 1345 958 1345 958 962 c 0,3,4
 958 700 958 700 682 591 c 2,5,-1
 498 518 l 2,6,7
 250 420 250 420 251 92 c 1,8,-1
 949 92 l 1,9,-1
 949 0 l 1,10,-1
 80 0 l 1,11,12
 78 501 78 501 446 640 c 2,13,-1
 631 710 l 2,14,15
 791 771 791 771 792 958 c 0,16,17
 793 1276 793 1276 532 1276 c 0,18,19
 215 1276 215 1276 214 908 c 1,20,-1
 110 908 l 1,0,1
EndSplineSet
EndChar

StartChar: three
Encoding: 51 51 22
Width: 1032
GlyphClass: 2
Flags: W
LayerCount: 2
Fore
SplineSet
516 1283 m 0,0,1
 212 1281 212 1281 204 942 c 1,2,-1
 108 941 l 1,3,4
 112 1363 112 1363 516 1363 c 0,5,6
 913 1363 913 1363 913 1042 c 0,7,8
 913 809 913 809 724 734 c 1,9,10
 952 659 952 659 952 383 c 0,11,12
 952 -23 952 -23 510 -23 c 0,13,14
 118 -23 118 -23 80 398 c 1,15,-1
 174 399 l 1,16,17
 215 77 215 77 505 75 c 0,18,19
 787 73 787 73 786 382 c 0,20,21
 785 676 785 676 527 676 c 2,22,-1
 428 676 l 1,23,-1
 428 773 l 1,24,25
 428 773 428 773 525 773 c 0,26,27
 752 773 752 773 751 1048 c 0,28,29
 750 1285 750 1285 516 1283 c 0,0,1
EndSplineSet
EndChar

StartChar: four
Encoding: 52 52 23
Width: 1067
GlyphClass: 2
Flags: W
LayerCount: 2
Fore
SplineSet
632 313 m 1,0,-1
 81 313 l 1,1,-1
 80 458 l 1,2,-1
 640 1341 l 1,3,-1
 793 1341 l 1,4,-1
 793 458 l 1,5,-1
 987 458 l 1,6,-1
 987 313 l 1,7,-1
 793 313 l 1,8,-1
 793 0 l 1,9,-1
 632 0 l 1,10,-1
 632 313 l 1,0,-1
632 458 m 1,11,-1
 632 1138 l 1,12,-1
 186 458 l 1,13,-1
 632 458 l 1,11,-1
EndSplineSet
EndChar

StartChar: five
Encoding: 53 53 24
Width: 1040
GlyphClass: 2
Flags: W
LayerCount: 2
Fore
SplineSet
892 1341 m 1,0,-1
 892 1263 l 1,1,-1
 349 1263 l 1,2,-1
 299 895 l 1,3,4
 414 976 414 976 541 976 c 0,5,6
 960 976 960 976 960 503 c 0,7,8
 960 -26 960 -26 513 -35 c 0,9,10
 136 -43 136 -43 80 327 c 1,11,-1
 163 328 l 1,12,13
 218 45 218 45 512 49 c 0,14,15
 795 53 795 53 794 493 c 0,16,17
 793 896 793 896 545 895 c 1,18,19
 378 893 378 893 270 711 c 1,20,-1
 121 711 l 1,21,-1
 218 1341 l 1,22,-1
 892 1341 l 1,0,-1
EndSplineSet
EndChar

StartChar: six
Encoding: 54 54 25
Width: 1024
GlyphClass: 2
Flags: W
LayerCount: 2
Fore
SplineSet
80 613 m 0,0,1
 80 1363 80 1363 517 1363 c 0,2,3
 864 1363 864 1363 917 1022 c 1,4,-1
 838 1022 l 1,5,6
 784 1279 784 1279 516.5 1280.5 c 128,-1,7
 249 1282 249 1282 247 700 c 1,8,9
 334 832 334 832 532 831 c 1,10,11
 944 831 944 831 944 418 c 0,12,13
 944 -23 944 -23 527 -23 c 0,14,15
 80 -23 80 -23 80 613 c 0,0,1
541 761 m 0,16,17
 255 759 255 759 254 406 c 0,18,19
 253 41 253 41 529 47 c 0,20,21
 808 53 808 53 808 417 c 1,22,23
 805 762 805 762 541 761 c 0,16,17
EndSplineSet
EndChar

StartChar: seven
Encoding: 55 55 26
Width: 1032
GlyphClass: 2
Flags: W
LayerCount: 2
Fore
SplineSet
952 1204 m 1,0,1
 532 635 532 635 422 0 c 1,2,-1
 249 0 l 1,3,4
 372 652 372 652 785 1257 c 1,5,-1
 80 1257 l 1,6,-1
 80 1341 l 1,7,-1
 952 1341 l 1,8,-1
 952 1204 l 1,0,1
EndSplineSet
EndChar

StartChar: eight
Encoding: 56 56 27
Width: 1036
GlyphClass: 2
Flags: W
LayerCount: 2
Fore
SplineSet
711 745 m 1,0,1
 956 639 956 639 956 398 c 0,2,3
 956 -11 956 -11 518 -11 c 128,-1,4
 80 -11 80 -11 80 394 c 0,5,6
 80 629 80 629 323 745 c 1,7,8
 126 855 126 855 126 1017 c 0,9,10
 126 1365 126 1365 518 1365 c 128,-1,11
 910 1365 910 1365 910 1014 c 0,12,13
 910 866 910 866 711 745 c 1,0,1
516 1290 m 0,14,15
 292 1290 292 1290 292 1015 c 0,16,17
 292 789 292 789 518 789 c 0,18,19
 742 789 742 789 744 1013 c 0,20,21
 746 1290 746 1290 516 1290 c 0,14,15
518 703 m 128,-1,23
 246 703 246 703 246 390 c 0,24,25
 246 66 246 66 514 68 c 0,26,27
 790 70 790 70 790 390 c 0,28,22
 790 703 790 703 518 703 c 128,-1,23
EndSplineSet
EndChar

StartChar: nine
Encoding: 57 57 28
Width: 1024
GlyphClass: 2
Flags: W
LayerCount: 2
Fore
SplineSet
944 727 m 0,0,1
 944 -23 944 -23 507 -23 c 0,2,3
 160 -23 160 -23 107 318 c 1,4,-1
 186 318 l 1,5,6
 240 61 240 61 507.5 59.5 c 128,-1,7
 775 58 775 58 777 640 c 1,8,9
 690 508 690 508 492 509 c 1,10,11
 80 509 80 509 80 922 c 0,12,13
 80 1363 80 1363 497 1363 c 0,14,15
 944 1363 944 1363 944 727 c 0,0,1
483 579 m 0,16,17
 769 581 769 581 770 934 c 0,18,19
 771 1299 771 1299 495 1293 c 0,20,21
 216 1287 216 1287 216 923 c 1,22,23
 219 578 219 578 483 579 c 0,16,17
EndSplineSet
EndChar

StartChar: colon
Encoding: 58 58 29
Width: 380
GlyphClass: 2
Flags: W
LayerCount: 2
Fore
SplineSet
187 1033 m 0,0,1
 300 1033 300 1033 300 915 c 0,2,3
 300 798 300 798 192 798 c 0,4,5
 80 798 80 798 80 913 c 0,6,7
 80 1033 80 1033 187 1033 c 0,0,1
187 211 m 0,8,9
 300 211 300 211 300 93 c 0,10,11
 300 -24 300 -24 192 -24 c 0,12,13
 80 -24 80 -24 80 91 c 0,14,15
 80 211 80 211 187 211 c 0,8,9
EndSplineSet
EndChar

StartChar: semicolon
Encoding: 59 59 30
Width: 392
GlyphClass: 2
Flags: W
LayerCount: 2
Fore
SplineSet
194 1043 m 0,0,1
 308 1043 308 1043 308 925 c 0,2,3
 308 808 308 808 200 808 c 0,4,5
 87 808 87 808 87 923 c 0,6,7
 87 1043 87 1043 194 1043 c 0,0,1
191 206 m 1,8,9
 313 207 313 207 313 10 c 0,10,11
 313 -238 313 -238 91 -237 c 1,12,-1
 91 -171 l 1,13,14
 223 -160 223 -160 206 -15 c 1,15,16
 81 -25 81 -25 80 110 c 0,17,18
 80 204 80 204 191 206 c 1,8,9
EndSplineSet
EndChar

StartChar: less
Encoding: 60 60 31
Width: 1060
GlyphClass: 2
Flags: W
LayerCount: 2
Fore
SplineSet
80 371 m 1,0,-1
 80 497 l 1,1,-1
 980 878 l 1,2,-1
 980 733 l 1,3,-1
 255 437 l 1,4,-1
 980 135 l 1,5,-1
 980 -10 l 1,6,-1
 80 371 l 1,0,-1
EndSplineSet
EndChar

StartChar: equal
Encoding: 61 61 32
Width: 1170
GlyphClass: 2
Flags: W
LayerCount: 2
Fore
SplineSet
1090 687 m 1,0,-1
 1090 558 l 1,1,-1
 80 558 l 1,2,-1
 80 687 l 1,3,-1
 1090 687 l 1,0,-1
1090 310 m 1,4,-1
 1090 181 l 1,5,-1
 80 181 l 1,6,-1
 80 310 l 1,7,-1
 1090 310 l 1,4,-1
EndSplineSet
EndChar

StartChar: greater
Encoding: 62 62 33
Width: 1060
GlyphClass: 2
Flags: W
LayerCount: 2
Fore
SplineSet
980 497 m 1,0,-1
 980 371 l 1,1,-1
 80 -10 l 1,2,-1
 80 155 l 1,3,-1
 784 432 l 1,4,-1
 80 713 l 1,5,-1
 80 878 l 1,6,-1
 980 497 l 1,0,-1
EndSplineSet
EndChar

StartChar: question
Encoding: 63 63 34
Width: 748
GlyphClass: 2
Flags: W
LayerCount: 2
Fore
SplineSet
349 211 m 0,0,1
 462 211 462 211 462 93 c 0,2,3
 462 -23 462 -23 354 -23 c 0,4,5
 242 -23 242 -23 242 91 c 0,6,7
 242 211 242 211 349 211 c 0,0,1
340 1331 m 0,8,9
 671 1332 671 1332 669 1008 c 0,10,11
 668 866 668 866 550 716 c 0,12,13
 404 530 404 530 380 318 c 1,14,-1
 325 317 l 1,15,16
 328 484 328 484 387 596 c 1,17,18
 504 825 504 825 499 1024 c 0,19,20
 493 1267 493 1267 310 1263 c 0,21,22
 151 1260 151 1260 133 991 c 1,23,-1
 80 989 l 1,24,25
 77 1330 77 1330 340 1331 c 0,8,9
EndSplineSet
EndChar

StartChar: at
Encoding: 64 64 35
Width: 1410
GlyphClass: 2
Flags: W
LayerCount: 2
Fore
SplineSet
1136 87 m 1,0,1
 889 -23 889 -23 766 -24 c 1,2,3
 81 -24 81 -24 80 666 c 0,4,5
 79 1372 79 1372 730 1371 c 0,6,7
 1332 1371 1332 1371 1330 768 c 0,8,9
 1329 290 1329 290 1013 321 c 0,10,11
 858 337 858 337 843 466 c 1,12,13
 350 232 350 232 452 726 c 0,14,15
 509 1000 509 1000 791 1033 c 0,16,17
 854 1040 854 1040 941 992 c 1,18,-1
 958 1038 l 1,19,-1
 1089 1039 l 1,20,-1
 972 515 l 2,21,22
 943 383 943 383 1032 387 c 0,23,24
 1255 396 1255 396 1259 756 c 0,25,26
 1264 1302 1264 1302 730 1298 c 0,27,28
 234 1294 234 1294 232 661 c 0,29,30
 230 98 230 98 763 53 c 0,31,32
 862 45 862 45 1115 150 c 1,33,-1
 1136 87 l 1,0,1
803 969 m 0,34,35
 644 944 644 944 594 714 c 0,36,37
 532 433 532 433 716 501 c 0,38,39
 845 549 845 549 884 736 c 1,40,41
 935 990 935 990 803 969 c 0,34,35
EndSplineSet
EndChar

StartChar: A
Encoding: 65 65 36
Width: 1330
GlyphClass: 2
Flags: W
LayerCount: 2
Fore
SplineSet
921 423 m 1,0,-1
 334 423 l 1,1,-1
 184 0 l 1,2,-1
 80 0 l 1,3,-1
 558 1341 l 1,4,-1
 779 1341 l 1,5,-1
 1250 0 l 1,6,-1
 1059 0 l 1,7,-1
 921 423 l 1,0,-1
894 506 m 1,8,-1
 627 1254 l 1,9,-1
 361 506 l 1,10,-1
 894 506 l 1,8,-1
EndSplineSet
EndChar

StartChar: B
Encoding: 66 66 37
Width: 1160
GlyphClass: 2
Flags: W
LayerCount: 2
Fore
SplineSet
1080 383 m 0,0,1
 1080 0 1080 0 685 0 c 2,2,-1
 80 0 l 1,3,-1
 80 1341 l 1,4,-1
 624 1341 l 2,5,6
 1022 1341 1022 1341 1022 1007 c 0,7,8
 1022 795 1022 795 836 708 c 1,9,10
 1080 613 1080 613 1080 383 c 0,0,1
850 1011 m 1,11,12
 848 1267 848 1267 582 1267 c 2,13,-1
 251 1267 l 1,14,-1
 251 734 l 1,15,-1
 608 734 l 2,16,17
 848 734 848 734 850 1011 c 1,11,12
668 84 m 2,18,19
 909 84 909 84 909 381 c 0,20,21
 909 648 909 648 620 648 c 2,22,-1
 251 648 l 1,23,-1
 251 84 l 1,24,-1
 668 84 l 2,18,19
EndSplineSet
EndChar

StartChar: C
Encoding: 67 67 38
Width: 1318
GlyphClass: 2
Flags: W
LayerCount: 2
Fore
SplineSet
1119 925 m 1,0,1
 1043 1292 1043 1292 673 1292 c 0,2,3
 254 1293 254 1293 251 666 c 0,4,5
 248 46 248 46 688 48 c 0,6,7
 1085 50 1085 50 1157 499 c 1,8,-1
 1238 499 l 1,9,10
 1179 -23 1179 -23 686 -23 c 0,11,12
 80 -23 80 -23 80 664 c 0,13,14
 80 1363 80 1363 693 1363 c 0,15,16
 1131 1363 1131 1363 1210 925 c 1,17,-1
 1119 925 l 1,0,1
EndSplineSet
EndChar

StartChar: D
Encoding: 68 68 39
Width: 1224
GlyphClass: 2
Flags: W
LayerCount: 2
Fore
SplineSet
80 0 m 1,0,-1
 80 1341 l 1,1,-1
 597 1341 l 2,2,3
 1144 1341 1144 1341 1144 672 c 0,4,5
 1144 0 1144 0 597 0 c 2,6,-1
 80 0 l 1,0,-1
251 71 m 1,7,-1
 568 71 l 2,8,9
 974 71 974 71 973 670 c 0,10,11
 972 1263 972 1263 568 1263 c 2,12,-1
 251 1263 l 1,13,-1
 251 71 l 1,7,-1
EndSplineSet
EndChar

StartChar: E
Encoding: 69 69 40
Width: 1122
GlyphClass: 2
Flags: W
LayerCount: 2
Fore
SplineSet
251 645 m 1,0,-1
 251 91 l 1,1,-1
 1042 91 l 1,2,-1
 1042 0 l 1,3,-1
 80 0 l 1,4,-1
 80 1341 l 1,5,-1
 1009 1341 l 1,6,-1
 1009 1260 l 1,7,-1
 251 1260 l 1,8,-1
 251 731 l 1,9,-1
 981 731 l 1,10,-1
 981 645 l 1,11,-1
 251 645 l 1,0,-1
EndSplineSet
EndChar

StartChar: F
Encoding: 70 70 41
Width: 1060
GlyphClass: 2
Flags: W
LayerCount: 2
Fore
SplineSet
251 645 m 1,0,-1
 251 0 l 1,1,-1
 80 0 l 1,2,-1
 80 1341 l 1,3,-1
 980 1341 l 1,4,-1
 980 1260 l 1,5,-1
 251 1260 l 1,6,-1
 251 732 l 1,7,-1
 892 732 l 1,8,-1
 892 645 l 1,9,-1
 251 645 l 1,0,-1
EndSplineSet
EndChar

StartChar: G
Encoding: 71 71 42
Width: 1384
GlyphClass: 2
Flags: W
LayerCount: 2
Fore
SplineSet
251 681 m 0,0,1
 250 52 250 52 674 55 c 0,2,3
 1153 59 1153 59 1153 568 c 2,4,-1
 1153 605 l 1,5,-1
 744 605 l 1,6,-1
 744 697 l 1,7,-1
 1304 697 l 1,8,-1
 1304 12 l 1,9,-1
 1195 12 l 1,10,-1
 1153 190 l 1,11,12
 962 -23 962 -23 678 -23 c 0,13,14
 80 -23 80 -23 80 664 c 0,15,16
 80 1363 80 1363 718 1363 c 0,17,18
 1207 1363 1207 1363 1285 934 c 1,19,-1
 1182 934 l 1,20,21
 1078 1291 1078 1291 722 1290 c 0,22,23
 252 1289 252 1289 251 681 c 0,0,1
EndSplineSet
EndChar

StartChar: H
Encoding: 72 72 43
Width: 1192
GlyphClass: 2
Flags: W
LayerCount: 2
Fore
SplineSet
941 651 m 1,0,-1
 251 651 l 1,1,-1
 251 0 l 1,2,-1
 80 0 l 1,3,-1
 80 1341 l 1,4,-1
 251 1341 l 1,5,-1
 251 732 l 1,6,-1
 941 732 l 1,7,-1
 941 1341 l 1,8,-1
 1112 1341 l 1,9,-1
 1112 0 l 1,10,-1
 941 0 l 1,11,-1
 941 651 l 1,0,-1
EndSplineSet
EndChar

StartChar: I
Encoding: 73 73 44
Width: 332
GlyphClass: 2
Flags: W
LayerCount: 2
Fore
SplineSet
252 1341 m 1,0,-1
 252 0 l 1,1,-1
 80 0 l 1,2,-1
 80 1341 l 1,3,-1
 252 1341 l 1,0,-1
EndSplineSet
EndChar

StartChar: J
Encoding: 74 74 45
Width: 913
GlyphClass: 2
Flags: W
LayerCount: 2
Fore
SplineSet
426 59 m 0,0,1
 662 59 662 59 662 416 c 2,2,-1
 662 1341 l 1,3,-1
 833 1341 l 1,4,-1
 833 385 l 2,5,6
 833 -23 833 -23 424 -23 c 0,7,8
 80 -23 80 -23 80 331 c 2,9,-1
 80 449 l 1,10,-1
 171 449 l 1,11,-1
 171 362 l 2,12,13
 171 59 171 59 426 59 c 0,0,1
EndSplineSet
EndChar

StartChar: K
Encoding: 75 75 46
Width: 1226
GlyphClass: 2
Flags: W
LayerCount: 2
Fore
SplineSet
251 531 m 1,0,-1
 251 0 l 1,1,-1
 80 0 l 1,2,-1
 80 1341 l 1,3,-1
 251 1341 l 1,4,-1
 251 662 l 1,5,-1
 926 1339 l 1,6,-1
 1057 1339 l 1,7,-1
 554 836 l 1,8,-1
 1129 0 l 1,9,-1
 943 0 l 1,10,-1
 450 728 l 1,11,-1
 251 531 l 1,0,-1
EndSplineSet
EndChar

StartChar: L
Encoding: 76 76 47
Width: 994
GlyphClass: 2
Flags: W
LayerCount: 2
Fore
SplineSet
251 1341 m 1,0,-1
 251 81 l 1,1,-1
 914 81 l 1,2,-1
 914 0 l 1,3,-1
 80 0 l 1,4,-1
 80 1341 l 1,5,-1
 251 1341 l 1,0,-1
EndSplineSet
EndChar

StartChar: M
Encoding: 77 77 48
Width: 1422
GlyphClass: 2
Flags: W
LayerCount: 2
Fore
SplineSet
769 0 m 1,0,-1
 610 0 l 1,1,-1
 182 1234 l 1,2,-1
 182 0 l 1,3,-1
 80 0 l 1,4,-1
 80 1341 l 1,5,-1
 317 1341 l 1,6,-1
 724 173 l 1,7,-1
 1105 1341 l 1,8,-1
 1342 1341 l 1,9,-1
 1342 0 l 1,10,-1
 1180 0 l 1,11,-1
 1180 1236 l 1,12,-1
 769 0 l 1,0,-1
EndSplineSet
EndChar

StartChar: N
Encoding: 78 78 49
Width: 1208
GlyphClass: 2
Flags: W
LayerCount: 2
Fore
SplineSet
1128 1342 m 1,0,-1
 1128 0 l 1,1,-1
 935 0 l 1,2,-1
 173 1184 l 1,3,-1
 173 10 l 1,4,-1
 80 0 l 1,5,-1
 80 1342 l 1,6,-1
 292 1342 l 1,7,-1
 1030 198 l 1,8,-1
 1030 1342 l 1,9,-1
 1128 1342 l 1,0,-1
EndSplineSet
EndChar

StartChar: O
Encoding: 79 79 50
Width: 1456
GlyphClass: 2
Flags: W
LayerCount: 2
Fore
SplineSet
1376 648 m 0,0,1
 1376 -23 1376 -23 716 -23 c 0,2,3
 80 -23 80 -23 80 670.5 c 128,-1,4
 80 1364 80 1364 726 1364 c 0,5,6
 1376 1364 1376 1364 1376 648 c 0,0,1
726 1284 m 0,7,8
 254 1284 254 1284 251 660 c 0,9,10
 248 58 248 58 715 60 c 0,11,12
 1205 62 1205 62 1205 650 c 0,13,14
 1205 1284 1205 1284 726 1284 c 0,7,8
EndSplineSet
EndChar

StartChar: P
Encoding: 80 80 51
Width: 1128
GlyphClass: 2
Flags: W
LayerCount: 2
Fore
SplineSet
1048 978 m 0,0,1
 1048 592 1048 592 673 592 c 2,2,-1
 251 592 l 1,3,-1
 251 0 l 1,4,-1
 80 0 l 1,5,-1
 80 1341 l 1,6,-1
 634 1341 l 2,7,8
 1048 1341 1048 1341 1048 978 c 0,0,1
251 689 m 1,9,-1
 608 689 l 2,10,11
 869 689 869 689 869 969 c 0,12,13
 869 1250 869 1250 608 1250 c 2,14,-1
 251 1250 l 1,15,-1
 251 689 l 1,9,-1
EndSplineSet
EndChar

StartChar: Q
Encoding: 81 81 52
Width: 1460
GlyphClass: 2
Flags: W
LayerCount: 2
Fore
SplineSet
1363 17 m 1,0,-1
 1277 -89 l 1,1,-1
 1083 71 l 1,2,3
 925 -23 925 -23 728 -23 c 0,4,5
 80 -23 80 -23 80 657 c 0,6,7
 80 1365 80 1365 728 1366 c 1,8,9
 1379 1366 1379 1366 1380 676 c 0,10,11
 1380 367 1380 367 1190 159 c 1,12,-1
 1363 17 l 1,0,-1
899 396 m 1,13,-1
 1091 242 l 1,14,15
 1212 411 1212 411 1209 676 c 0,16,17
 1202 1276 1202 1276 728 1275 c 0,18,19
 256 1274 256 1274 255 668 c 128,-1,20
 254 62 254 62 724 61 c 0,21,22
 919 60 919 60 1004 144 c 1,23,-1
 815 293 l 1,24,-1
 899 396 l 1,13,-1
EndSplineSet
EndChar

StartChar: R
Encoding: 82 82 53
Width: 1191
GlyphClass: 2
Flags: W
LayerCount: 2
Fore
SplineSet
1111 0 m 1,0,-1
 934 0 l 1,1,2
 906 603 906 603 663 603 c 2,3,-1
 251 603 l 1,4,-1
 251 0 l 1,5,-1
 80 0 l 1,6,-1
 80 1341 l 1,7,-1
 668 1341 l 2,8,9
 1052 1341 1052 1341 1056 992 c 0,10,11
 1059 754 1059 754 825 645 c 1,12,13
 1080 564 1080 564 1111 0 c 1,0,-1
877 990 m 0,14,15
 874 1258 874 1258 635 1258 c 2,16,-1
 251 1258 l 1,17,-1
 251 690 l 1,18,-1
 635 690 l 2,19,20
 880 690 880 690 877 990 c 0,14,15
EndSplineSet
EndChar

StartChar: S
Encoding: 83 83 54
Width: 1214
GlyphClass: 2
Flags: W
LayerCount: 2
Fore
SplineSet
601 59 m 0,0,1
 962 62 962 62 963 359 c 0,2,3
 964 523 964 523 716 588 c 2,4,-1
 383 676 l 2,5,6
 120 746 120 746 120 1002 c 0,7,8
 120 1363 120 1363 597 1363 c 0,9,10
 1088 1363 1088 1363 1088 947 c 1,11,-1
 989 947 l 1,12,13
 987 1287 987 1287 591 1289 c 0,14,15
 291 1291 291 1291 291 1009 c 0,16,17
 291 873 291 873 512 814 c 2,18,-1
 849 724 l 2,19,20
 1134 648 1134 648 1134 375 c 0,21,22
 1134 192 1134 192 993 86 c 0,23,24
 849 -23 849 -23 600 -23 c 0,25,26
 80 -23 80 -23 80 446 c 1,27,-1
 174 446 l 1,28,29
 176 55 176 55 601 59 c 0,0,1
EndSplineSet
EndChar

StartChar: T
Encoding: 84 84 55
Width: 1212
GlyphClass: 2
Flags: W
LayerCount: 2
Fore
SplineSet
692 1252 m 1,0,-1
 692 0 l 1,1,-1
 521 0 l 1,2,-1
 521 1252 l 1,3,-1
 80 1252 l 1,4,-1
 80 1341 l 1,5,-1
 1132 1341 l 1,6,-1
 1132 1252 l 1,7,-1
 692 1252 l 1,0,-1
EndSplineSet
EndChar

StartChar: U
Encoding: 85 85 56
Width: 1190
GlyphClass: 2
Flags: W
LayerCount: 2
Fore
SplineSet
939 1340 m 1,0,-1
 1110 1340 l 1,1,-1
 1110 417 l 2,2,3
 1110 -23 1110 -23 593 -23 c 0,4,5
 80 -23 80 -23 80 417 c 2,6,-1
 80 1340 l 1,7,-1
 171 1340 l 1,8,-1
 171 417 l 2,9,10
 171 81 171 81 593 79 c 0,11,12
 939 77 939 77 939 417 c 2,13,-1
 939 1340 l 1,0,-1
EndSplineSet
EndChar

StartChar: V
Encoding: 86 86 57
Width: 1292
GlyphClass: 2
Flags: W
LayerCount: 2
Fore
SplineSet
546 0 m 1,0,-1
 730 0 l 1,1,-1
 1212 1341 l 1,2,-1
 1108 1341 l 1,3,-1
 675 133 l 1,4,-1
 262 1341 l 1,5,-1
 80 1341 l 1,6,-1
 546 0 l 1,0,-1
EndSplineSet
EndChar

StartChar: W
Encoding: 87 87 58
Width: 1828
GlyphClass: 2
Flags: W
LayerCount: 2
Fore
SplineSet
1408 0 m 1,0,-1
 1220 0 l 1,1,-1
 911 1102 l 1,2,-1
 611 0 l 1,3,-1
 424 0 l 1,4,-1
 80 1341 l 1,5,-1
 271 1341 l 1,6,-1
 573 202 l 1,7,-1
 885 1341 l 1,8,-1
 1033 1341 l 1,9,-1
 1361 210 l 1,10,-1
 1647 1341 l 1,11,-1
 1748 1341 l 1,12,-1
 1408 0 l 1,0,-1
EndSplineSet
EndChar

StartChar: X
Encoding: 88 88 59
Width: 1213
GlyphClass: 2
Flags: W
LayerCount: 2
Fore
SplineSet
691 733 m 1,0,-1
 1133 0 l 1,1,-1
 926 0 l 1,2,-1
 577 594 l 1,3,-1
 178 0 l 1,4,-1
 80 0 l 1,5,-1
 530 656 l 1,6,-1
 91 1341 l 1,7,-1
 298 1341 l 1,8,-1
 639 807 l 1,9,-1
 1008 1341 l 1,10,-1
 1104 1341 l 1,11,-1
 691 733 l 1,0,-1
EndSplineSet
EndChar

StartChar: Y
Encoding: 89 89 60
Width: 1352
GlyphClass: 2
Flags: W
LayerCount: 2
Fore
SplineSet
768 526 m 1,0,-1
 768 0 l 1,1,-1
 597 0 l 1,2,-1
 597 526 l 1,3,-1
 80 1341 l 1,4,-1
 291 1341 l 1,5,-1
 740 638 l 1,6,-1
 1187 1341 l 1,7,-1
 1272 1341 l 1,8,-1
 768 526 l 1,0,-1
EndSplineSet
EndChar

StartChar: Z
Encoding: 90 90 61
Width: 1182
GlyphClass: 2
Flags: W
LayerCount: 2
Fore
SplineSet
1098 1341 m 1,0,-1
 1098 1187 l 1,1,-1
 296 91 l 1,2,-1
 1102 91 l 1,3,-1
 1102 0 l 1,4,-1
 80 0 l 1,5,-1
 80 152 l 1,6,-1
 886 1247 l 1,7,-1
 132 1247 l 1,8,-1
 132 1341 l 1,9,-1
 1098 1341 l 1,0,-1
EndSplineSet
EndChar

StartChar: bracketleft
Encoding: 91 91 62
Width: 502
GlyphClass: 2
Flags: W
LayerCount: 2
Fore
SplineSet
422 1366 m 1,0,-1
 422 1281 l 1,1,-1
 233 1281 l 1,2,-1
 233 -273 l 1,3,-1
 422 -273 l 1,4,-1
 422 -365 l 1,5,-1
 80 -365 l 1,6,-1
 80 1366 l 1,7,-1
 422 1366 l 1,0,-1
EndSplineSet
EndChar

StartChar: backslash
Encoding: 92 92 63
Width: 713
GlyphClass: 2
Flags: W
LayerCount: 2
Fore
SplineSet
198 1366 m 1,0,-1
 633 -38 l 1,1,-1
 516 -38 l 1,2,-1
 80 1366 l 1,3,-1
 198 1366 l 1,0,-1
EndSplineSet
EndChar

StartChar: bracketright
Encoding: 93 93 64
Width: 502
GlyphClass: 2
Flags: W
LayerCount: 2
Fore
SplineSet
80 -362 m 1,0,-1
 80 -270 l 1,1,-1
 269 -270 l 1,2,-1
 269 1282 l 1,3,-1
 80 1282 l 1,4,-1
 80 1369 l 1,5,-1
 422 1369 l 1,6,-1
 422 -362 l 1,7,-1
 80 -362 l 1,0,-1
EndSplineSet
EndChar

StartChar: asciicircum
Encoding: 94 94 65
Width: 862
GlyphClass: 2
Flags: W
LayerCount: 2
Fore
SplineSet
362 1348 m 1,0,-1
 496 1348 l 1,1,-1
 782 648 l 1,2,-1
 625 648 l 1,3,-1
 410 1230 l 1,4,-1
 187 648 l 1,5,-1
 80 648 l 1,6,-1
 362 1348 l 1,0,-1
EndSplineSet
EndChar

StartChar: underscore
Encoding: 95 95 66
Width: 1264
GlyphClass: 2
Flags: W
LayerCount: 2
Fore
SplineSet
1184 -76 m 1,0,-1
 1184 -188 l 1,1,-1
 80 -188 l 1,2,-1
 80 -76 l 1,3,-1
 1184 -76 l 1,0,-1
EndSplineSet
EndChar

StartChar: grave
Encoding: 96 96 67
Width: 584
GlyphClass: 2
Flags: W
LayerCount: 2
Fore
SplineSet
328 1366 m 1,0,-1
 504 1096 l 1,1,-1
 364 1096 l 1,2,-1
 80 1368 l 1,3,4
 205 1429 205 1429 328 1366 c 1,0,-1
EndSplineSet
EndChar

StartChar: a
Encoding: 97 97 68
Width: 1068
GlyphClass: 2
Flags: W
LayerCount: 2
Fore
SplineSet
719 730 m 2,0,1
 719 951 719 951 484 951 c 0,2,3
 204 950 204 950 204 702 c 1,4,-1
 127 702 l 1,5,6
 125 1019 125 1019 485 1015 c 0,7,8
 872 1010 872 1010 872 752 c 2,9,-1
 872 181 l 2,10,11
 872 26 872 26 988 63 c 1,12,-1
 988 -6 l 1,13,14
 868 -75 868 -75 776 6 c 0,15,16
 738 39 738 39 724 119 c 1,17,18
 607 -21 607 -21 436 -23 c 0,19,20
 80 -27 80 -27 80 262 c 0,21,22
 80 464 80 464 440 555 c 0,23,24
 719 625 719 625 719 692 c 2,25,-1
 719 730 l 2,0,1
234 234 m 1,26,27
 236 34 236 34 437 53 c 0,28,29
 719 80 719 80 719 323 c 2,30,-1
 719 566 l 1,31,32
 712 569 712 569 439 478 c 0,33,34
 231 409 231 409 234 234 c 1,26,27
EndSplineSet
EndChar

StartChar: b
Encoding: 98 98 69
Width: 1022
GlyphClass: 2
Flags: W
LayerCount: 2
Fore
SplineSet
80 1341 m 1,0,-1
 80 1 l 1,1,-1
 221 1 l 1,2,-1
 221 150 l 1,3,4
 330 -23 330 -23 528 -23 c 0,5,6
 942 -23 942 -23 942 505 c 0,7,8
 942 1015 942 1015 530 1015 c 0,9,10
 352 1015 352 1015 234 871 c 1,11,-1
 234 1341 l 1,12,-1
 80 1341 l 1,0,-1
530 41 m 0,13,14
 234 41 234 41 234 496 c 0,15,16
 234 950 234 950 522 948 c 0,17,18
 782 946 782 946 782 501 c 0,19,20
 782 41 782 41 530 41 c 0,13,14
EndSplineSet
EndChar

StartChar: c
Encoding: 99 99 70
Width: 980
GlyphClass: 2
Flags: W
LayerCount: 2
Fore
SplineSet
516 1015 m 0,0,1
 890 1014 890 1014 889 664 c 1,2,-1
 815 664 l 1,3,4
 806 952 806 952 520 950 c 0,5,6
 228 947 228 947 231 490 c 0,7,8
 234 50 234 50 498 48 c 1,9,10
 825 47 825 47 825 344 c 1,11,-1
 900 344 l 1,12,13
 899 -21 899 -21 481 -23 c 0,14,15
 82 -24 82 -24 80 489 c 0,16,17
 78 1017 78 1017 516 1015 c 0,0,1
EndSplineSet
EndChar

StartChar: d
Encoding: 100 100 71
Width: 1022
GlyphClass: 2
Flags: W
LayerCount: 2
Fore
SplineSet
942 1341 m 1,0,-1
 942 1 l 1,1,-1
 801 1 l 1,2,-1
 801 150 l 1,3,4
 692 -23 692 -23 494 -23 c 0,5,6
 80 -23 80 -23 80 503 c 0,7,8
 80 1011 80 1011 492 1011 c 0,9,10
 670 1011 670 1011 788 867 c 1,11,-1
 788 1341 l 1,12,-1
 942 1341 l 1,0,-1
492 44 m 0,13,14
 788 44 788 44 788 494 c 0,15,16
 788 945 788 945 500 943 c 0,17,18
 240 941 240 941 240 499 c 0,19,20
 240 44 240 44 492 44 c 0,13,14
EndSplineSet
EndChar

StartChar: e
Encoding: 101 101 72
Width: 1030
GlyphClass: 2
Flags: W
LayerCount: 2
Fore
SplineSet
950 478 m 1,0,-1
 240 478 l 1,1,2
 246 54 246 54 526 51 c 0,3,4
 743 49 743 49 849 312 c 1,5,-1
 930 312 l 1,6,7
 848 -25 848 -25 518 -23 c 0,8,9
 84 -21 84 -21 80 498 c 0,10,11
 76 1014 76 1014 521 1015 c 0,12,13
 956 1016 956 1016 950 478 c 1,0,-1
244 556 m 1,14,-1
 785 556 l 1,15,16
 786 942 786 942 522 947 c 1,17,18
 252 951 252 951 244 556 c 1,14,-1
EndSplineSet
EndChar

StartChar: f
Encoding: 102 102 73
Width: 638
GlyphClass: 2
Flags: W
LayerCount: 2
Fore
SplineSet
522 953 m 1,0,-1
 522 879 l 1,1,-1
 362 879 l 1,2,-1
 362 1 l 1,3,-1
 209 1 l 1,4,-1
 209 879 l 1,5,-1
 80 879 l 1,6,-1
 80 953 l 1,7,-1
 209 953 l 1,8,-1
 209 1136 l 2,9,10
 209 1352 209 1352 432 1352 c 0,11,12
 504 1352 504 1352 558 1341 c 1,13,-1
 558 1258 l 1,14,15
 362 1278 362 1278 362 1144 c 2,16,-1
 362 953 l 1,17,-1
 522 953 l 1,0,-1
EndSplineSet
EndChar

StartChar: g
Encoding: 103 103 74
Width: 1006
GlyphClass: 2
Flags: W
LayerCount: 2
Fore
SplineSet
769 120 m 1,0,1
 670 -23 670 -23 468 -23 c 0,2,3
 82 -24 82 -24 80 487 c 0,4,5
 78 1008 78 1008 490 1015 c 0,6,7
 669 1018 669 1018 785 858 c 1,8,-1
 785 988 l 1,9,-1
 926 988 l 1,10,-1
 926 178 l 2,11,12
 926 -392 926 -392 456 -390 c 0,13,14
 166 -389 166 -389 111 -92 c 1,15,-1
 202 -90 l 1,16,17
 280 -314 280 -314 489 -308 c 0,18,19
 770 -301 770 -301 769 120 c 1,0,1
482 942 m 0,20,21
 239 936 239 936 239 497 c 0,22,23
 239 54 239 54 485 54 c 0,24,25
 771 55 771 55 770 491 c 0,26,27
 769 949 769 949 482 942 c 0,20,21
EndSplineSet
EndChar

StartChar: h
Encoding: 104 104 75
Width: 926
GlyphClass: 2
Flags: W
LayerCount: 2
Fore
SplineSet
693 691 m 2,0,1
 693 937 693 937 506 935 c 0,2,3
 233 932 233 932 233 555 c 2,4,-1
 233 0 l 1,5,-1
 80 0 l 1,6,-1
 80 1341 l 1,7,-1
 233 1341 l 1,8,-1
 233 855 l 1,9,10
 327 1017 327 1017 511 1015 c 0,11,12
 846 1011 846 1011 846 752 c 2,13,-1
 846 0 l 1,14,-1
 693 0 l 1,15,-1
 693 691 l 2,0,1
EndSplineSet
EndChar

StartChar: i
Encoding: 105 105 76
Width: 314
GlyphClass: 2
Flags: W
LayerCount: 2
Fore
SplineSet
234 1341 m 1,0,-1
 234 1148 l 1,1,-1
 80 1148 l 1,2,-1
 80 1341 l 1,3,-1
 234 1341 l 1,0,-1
234 964 m 1,4,-1
 234 0 l 1,5,-1
 82 0 l 1,6,-1
 82 964 l 1,7,-1
 234 964 l 1,4,-1
EndSplineSet
EndChar

StartChar: j
Encoding: 106 106 77
Width: 498
GlyphClass: 2
Flags: W
LayerCount: 2
Fore
SplineSet
418 1341 m 1,0,-1
 418 1148 l 1,1,-1
 266 1148 l 1,2,-1
 266 1341 l 1,3,-1
 418 1341 l 1,0,-1
266 963 m 1,4,-1
 418 963 l 1,5,-1
 418 -204 l 2,6,7
 418 -380 418 -380 80 -380 c 1,8,-1
 80 -299 l 1,9,10
 266 -314 266 -314 266 -141 c 2,11,-1
 266 963 l 1,4,-1
EndSplineSet
EndChar

StartChar: k
Encoding: 107 107 78
Width: 976
GlyphClass: 2
Flags: W
LayerCount: 2
Fore
SplineSet
232 1341 m 1,0,-1
 232 556 l 1,1,-1
 641 963 l 1,2,-1
 734 963 l 1,3,-1
 480 702 l 1,4,-1
 896 0 l 1,5,-1
 707 0 l 1,6,-1
 376 594 l 1,7,-1
 230 448 l 1,8,-1
 232 0 l 1,9,-1
 80 0 l 1,10,-1
 80 1341 l 1,11,-1
 232 1341 l 1,0,-1
EndSplineSet
EndChar

StartChar: l
Encoding: 108 108 79
Width: 314
GlyphClass: 2
Flags: W
LayerCount: 2
Fore
SplineSet
234 1341 m 1,0,-1
 234 0 l 1,1,-1
 80 0 l 1,2,-1
 80 1341 l 1,3,-1
 234 1341 l 1,0,-1
EndSplineSet
EndChar

StartChar: m
Encoding: 109 109 80
Width: 1434
GlyphClass: 2
Flags: W
LayerCount: 2
Fore
SplineSet
232 890 m 1,0,1
 290 1015 290 1015 508 1015 c 0,2,3
 692 1015 692 1015 778 890 c 1,4,5
 849 1016 849 1016 1050 1016 c 0,6,7
 1354 1017 1354 1017 1354 684 c 2,8,-1
 1354 1 l 1,9,-1
 1199 1 l 1,10,-1
 1199 667 l 2,11,12
 1199 953 1199 953 1011 946 c 0,13,14
 794 937 794 937 794 663 c 2,15,-1
 794 1 l 1,16,-1
 640 1 l 1,17,-1
 640 667 l 2,18,19
 640 949 640 949 449 947 c 1,20,21
 235 943 235 943 235 654 c 2,22,-1
 235 1 l 1,23,-1
 80 1 l 1,24,-1
 80 1000 l 1,25,-1
 232 1000 l 1,26,-1
 232 890 l 1,0,1
EndSplineSet
EndChar

StartChar: n
Encoding: 110 110 81
Width: 874
GlyphClass: 2
Flags: W
LayerCount: 2
Fore
SplineSet
794 663 m 2,0,-1
 794 1 l 1,1,-1
 640 1 l 1,2,-1
 640 667 l 2,3,4
 640 947 640 947 449 947 c 0,5,6
 235 946 235 946 235 654 c 2,7,-1
 235 1 l 1,8,-1
 80 1 l 1,9,-1
 80 1000 l 1,10,-1
 232 1000 l 1,11,-1
 232 890 l 1,12,13
 295 1014 295 1014 508 1015 c 0,14,15
 794 1016 794 1016 794 663 c 2,0,-1
EndSplineSet
EndChar

StartChar: o
Encoding: 111 111 82
Width: 1032
GlyphClass: 2
Flags: W
LayerCount: 2
Fore
SplineSet
514 1015 m 0,0,1
 952 1016 952 1016 952 513 c 0,2,3
 952 -22 952 -22 515 -23 c 0,4,5
 81 -24 81 -24 80 496 c 0,6,7
 79 1014 79 1014 514 1015 c 0,0,1
240 487 m 0,8,9
 246 56 246 56 519 57 c 0,10,11
 796 58 796 58 793 516 c 0,12,13
 790 953 790 953 522 955 c 0,14,15
 233 958 233 958 240 487 c 0,8,9
EndSplineSet
EndChar

StartChar: p
Encoding: 112 112 83
Width: 1022
GlyphClass: 2
Flags: W
LayerCount: 2
Fore
SplineSet
80 -350 m 1,0,-1
 80 991 l 1,1,-1
 221 991 l 1,2,-1
 221 842 l 1,3,4
 330 1015 330 1015 528 1015 c 0,5,6
 942 1015 942 1015 942 487 c 0,7,8
 942 -23 942 -23 530 -23 c 0,9,10
 352 -23 352 -23 234 121 c 1,11,-1
 234 -350 l 1,12,-1
 80 -350 l 1,0,-1
530 944 m 0,13,14
 234 944 234 944 234 496 c 256,15,16
 234 48 234 48 522 50 c 0,17,18
 782 52 782 52 782 491 c 0,19,20
 782 944 782 944 530 944 c 0,13,14
EndSplineSet
EndChar

StartChar: q
Encoding: 113 113 84
Width: 1022
GlyphClass: 2
Flags: W
LayerCount: 2
Fore
SplineSet
942 -350 m 1,0,-1
 942 991 l 1,1,-1
 801 991 l 1,2,-1
 801 842 l 1,3,4
 692 1015 692 1015 494 1015 c 0,5,6
 80 1015 80 1015 80 487 c 0,7,8
 80 -23 80 -23 492 -23 c 0,9,10
 670 -23 670 -23 788 121 c 1,11,-1
 788 -350 l 1,12,-1
 942 -350 l 1,0,-1
492 948 m 0,13,14
 788 948 788 948 788 496 c 0,15,16
 788 45 788 45 500 47 c 0,17,18
 240 49 240 49 240 491 c 0,19,20
 240 948 240 948 492 948 c 0,13,14
EndSplineSet
EndChar

StartChar: r
Encoding: 114 114 85
Width: 650
GlyphClass: 2
Flags: W
LayerCount: 2
Fore
SplineSet
222 806 m 1,0,1
 321 1016 321 1016 570 992 c 1,2,-1
 569 906 l 1,3,4
 235 932 235 932 235 500 c 2,5,-1
 235 -1 l 1,6,-1
 80 -1 l 1,7,-1
 80 1000 l 1,8,-1
 222 1000 l 1,9,-1
 222 806 l 1,0,1
EndSplineSet
EndChar

StartChar: s
Encoding: 115 115 86
Width: 942
GlyphClass: 2
Flags: W
LayerCount: 2
Fore
SplineSet
162 306 m 1,0,1
 199 48 199 48 478 48 c 0,2,3
 702 48 702 48 702 243 c 0,4,5
 702 371 702 371 603 397 c 2,6,-1
 359 461 l 2,7,8
 105 528 105 528 104 758 c 1,9,10
 104 1017 104 1017 474 1015 c 0,11,12
 799 1013 799 1013 823 722 c 1,13,-1
 739 724 l 1,14,15
 715 940 715 940 472 940 c 0,16,17
 264 940 264 940 264 765 c 0,18,19
 264 640 264 640 392 608 c 2,20,-1
 611 553 l 2,21,22
 862 490 862 490 862 255 c 0,23,24
 862 -21 862 -21 465 -23 c 0,25,26
 112 -25 112 -25 80 306 c 1,27,-1
 162 306 l 1,0,1
EndSplineSet
EndChar

StartChar: t
Encoding: 116 116 87
Width: 618
GlyphClass: 2
Flags: W
LayerCount: 2
Fore
SplineSet
522 987 m 1,0,-1
 522 908 l 1,1,-1
 364 908 l 1,2,-1
 364 193 l 2,3,4
 364 50 364 50 538 69 c 1,5,-1
 538 -1 l 1,6,7
 211 -74 211 -74 211 184 c 2,8,-1
 211 908 l 1,9,-1
 80 908 l 1,10,-1
 80 987 l 1,11,-1
 211 987 l 1,12,-1
 211 1244 l 1,13,-1
 364 1244 l 1,14,-1
 364 987 l 1,15,-1
 522 987 l 1,0,-1
EndSplineSet
EndChar

StartChar: u
Encoding: 117 117 88
Width: 874
GlyphClass: 2
Flags: W
LayerCount: 2
Fore
SplineSet
80 329 m 2,0,-1
 80 1000 l 1,1,-1
 234 1000 l 1,2,-1
 234 325 l 2,3,4
 234 47 234 47 425 47 c 0,5,6
 639 48 639 48 639 338 c 2,7,-1
 639 1000 l 1,8,-1
 794 1000 l 1,9,-1
 794 -1 l 1,10,-1
 642 -1 l 1,11,-1
 642 98 l 1,12,13
 583 -22 583 -22 366 -23 c 0,14,15
 80 -24 80 -24 80 329 c 2,0,-1
EndSplineSet
EndChar

StartChar: v
Encoding: 118 118 89
Width: 1036
GlyphClass: 2
Flags: W
LayerCount: 2
Fore
SplineSet
586 0 m 1,0,-1
 419 0 l 1,1,-1
 80 1000 l 1,2,-1
 253 1000 l 1,3,-1
 546 124 l 1,4,-1
 872 1000 l 1,5,-1
 956 1000 l 1,6,-1
 586 0 l 1,0,-1
EndSplineSet
EndChar

StartChar: w
Encoding: 119 119 90
Width: 1452
GlyphClass: 2
Flags: W
LayerCount: 2
Fore
SplineSet
1088 0 m 1,0,-1
 914 0 l 1,1,-1
 736 857 l 1,2,-1
 533 0 l 1,3,-1
 360 0 l 1,4,-1
 80 1000 l 1,5,-1
 249 1000 l 1,6,-1
 486 118 l 1,7,-1
 690 1000 l 1,8,-1
 867 1000 l 1,9,-1
 1050 134 l 1,10,-1
 1290 1000 l 1,11,-1
 1372 1000 l 1,12,-1
 1088 0 l 1,0,-1
EndSplineSet
EndChar

StartChar: x
Encoding: 120 120 91
Width: 981
GlyphClass: 2
Flags: W
LayerCount: 2
Fore
SplineSet
549 542 m 1,0,-1
 901 0 l 1,1,-1
 722 0 l 1,2,-1
 459 423 l 1,3,-1
 177 0 l 1,4,-1
 90 0 l 1,5,-1
 415 489 l 1,6,-1
 80 1000 l 1,7,-1
 251 1000 l 1,8,-1
 505 597 l 1,9,-1
 794 1000 l 1,10,-1
 882 1000 l 1,11,-1
 549 542 l 1,0,-1
EndSplineSet
EndChar

StartChar: y
Encoding: 121 121 92
Width: 1002
GlyphClass: 2
Flags: W
LayerCount: 2
Fore
SplineSet
840 1000 m 1,0,-1
 922 1000 l 1,1,-1
 494 -177 l 2,2,3
 365 -530 365 -530 142 -294 c 1,4,-1
 142 -167 l 1,5,6
 312 -441 312 -441 415 -161 c 2,7,-1
 476 4 l 1,8,-1
 80 1000 l 1,9,-1
 243 1000 l 1,10,-1
 554 211 l 1,11,-1
 840 1000 l 1,0,-1
EndSplineSet
EndChar

StartChar: z
Encoding: 122 122 93
Width: 944
GlyphClass: 2
Flags: W
LayerCount: 2
Fore
SplineSet
838 1000 m 1,0,-1
 838 864 l 1,1,-1
 266 74 l 1,2,-1
 864 74 l 1,3,-1
 864 0 l 1,4,-1
 80 0 l 1,5,-1
 80 138 l 1,6,-1
 656 926 l 1,7,-1
 119 926 l 1,8,-1
 119 1000 l 1,9,-1
 838 1000 l 1,0,-1
EndSplineSet
EndChar

StartChar: braceleft
Encoding: 123 123 94
Width: 608
GlyphClass: 2
Flags: W
LayerCount: 2
Fore
SplineSet
528 1340 m 1,0,-1
 528 1263 l 1,1,-1
 501 1263 l 2,2,3
 385 1263 385 1263 385 1097 c 2,4,-1
 385 765 l 2,5,6
 385 521 385 521 234 462 c 1,7,8
 385 392 385 392 385 171 c 2,9,-1
 385 -175 l 2,10,11
 385 -338 385 -338 489 -338 c 2,12,-1
 528 -338 l 1,13,-1
 528 -418 l 1,14,-1
 444 -418 l 2,15,16
 243 -418 243 -418 243 -177 c 2,17,-1
 243 157 l 2,18,19
 243 379 243 379 80 398 c 1,20,-1
 80 524 l 1,21,22
 243 552 243 552 243 778 c 2,23,-1
 243 1099 l 2,24,25
 243 1340 243 1340 444 1340 c 2,26,-1
 528 1340 l 1,0,-1
EndSplineSet
EndChar

StartChar: bar
Encoding: 124 124 95
Width: 290
GlyphClass: 2
Flags: W
LayerCount: 2
Fore
SplineSet
80 1340 m 1,0,-1
 210 1340 l 1,1,-1
 210 -400 l 1,2,-1
 80 -400 l 1,3,-1
 80 1340 l 1,0,-1
EndSplineSet
EndChar

StartChar: braceright
Encoding: 125 125 96
Width: 608
GlyphClass: 2
Flags: W
LayerCount: 2
Fore
SplineSet
80 1340 m 1,0,-1
 80 1263 l 1,1,-1
 107 1263 l 2,2,3
 223 1263 223 1263 223 1097 c 2,4,-1
 223 765 l 2,5,6
 223 521 223 521 374 462 c 1,7,8
 223 392 223 392 223 171 c 2,9,-1
 223 -175 l 2,10,11
 223 -338 223 -338 119 -338 c 2,12,-1
 80 -338 l 1,13,-1
 80 -418 l 1,14,-1
 164 -418 l 2,15,16
 365 -418 365 -418 365 -177 c 2,17,-1
 365 157 l 2,18,19
 365 379 365 379 528 398 c 1,20,-1
 528 524 l 1,21,22
 365 552 365 552 365 778 c 2,23,-1
 365 1099 l 2,24,25
 365 1340 365 1340 164 1340 c 2,26,-1
 80 1340 l 1,0,-1
EndSplineSet
EndChar

StartChar: asciitilde
Encoding: 126 126 97
Width: 1037
GlyphClass: 2
Flags: W
LayerCount: 2
Fore
SplineSet
874 948 m 1,0,-1
 957 948 l 1,1,2
 952 658 952 658 731 656 c 0,3,4
 676 656 676 656 598 711 c 2,5,-1
 394 856 l 2,6,7
 320 908 320 908 296 908 c 0,8,9
 166 910 166 910 163 708 c 1,10,-1
 80 709 l 1,11,12
 86 1001 86 1001 289 1000 c 0,13,14
 344 999 344 999 438 931 c 2,15,-1
 645 781 l 2,16,17
 705 737 705 737 742 737 c 0,18,19
 875 735 875 735 874 948 c 1,0,-1
EndSplineSet
EndChar

StartChar: m_m
Encoding: 3330 3330 98
Width: 794
GlyphClass: 2
Flags: W
LayerCount: 2
Fore
SplineSet
360 549 m 1,0,1
 305 537 305 537 282 524 c 0,2,3
 176 469 176 469 157 338 c 1,4,5
 151 305 151 305 155 274 c 0,6,7
 157 260 157 260 161 244 c 1,8,-1
 161 242 l 1,9,10
 186 129 186 129 274 72 c 1,11,12
 327 39 327 39 380 43 c 0,13,14
 387 43 387 43 393 45 c 1,15,16
 456 55 456 55 512 119 c 1,17,18
 585 217 585 217 567 332 c 1,19,20
 565 352 565 352 559 373 c 1,21,-1
 536 428 l 1,22,23
 485 528 485 528 405 547 c 1,24,-1
 362 549 l 1,25,-1
 360 549 l 1,0,1
221 578 m 1,26,27
 315 641 315 641 428 623 c 1,28,29
 458 616 458 616 493 604 c 1,30,-1
 495 604 l 1,31,32
 548 588 548 588 595 551 c 1,33,-1
 598 549 l 1,34,35
 716 455 716 455 714 289 c 0,36,37
 712 127 712 127 591 35 c 1,38,39
 485 -43 485 -43 362 -29 c 0,40,41
 348 -27 348 -27 331 -25 c 0,42,43
 276 -18 276 -18 221 16 c 1,44,45
 94 106 94 106 81 270 c 1,46,47
 73 385 73 385 122 469 c 0,48,49
 147 510 147 510 186 547 c 1,50,-1
 188 549 l 1,51,-1
 221 578 l 1,26,27
EndSplineSet
EndChar

StartChar: m_ah
Encoding: 3331 3331 99
Width: 622
GlyphClass: 2
Flags: W
LayerCount: 2
Fore
SplineSet
277 352 m 1,0,1
 189 332 189 332 162 246 c 1,2,3
 154 215 154 215 156 188 c 1,4,-1
 160 160 l 1,5,6
 179 86 179 86 236 57 c 1,7,8
 265 41 265 41 289 43 c 0,9,10
 295 43 295 43 300 45 c 1,11,-1
 302 45 l 1,12,13
 369 57 369 57 388 150 c 1,14,15
 396 197 396 197 388 236 c 0,16,17
 384 258 384 258 375 279 c 1,18,19
 353 340 353 340 304 352 c 1,20,-1
 277 352 l 1,0,1
189 399 m 0,21,22
 259 442 259 442 338 428 c 1,23,24
 367 424 367 424 400 410 c 0,25,26
 461 385 461 385 496 338 c 1,27,-1
 498 336 l 1,28,29
 553 260 553 260 539 164 c 0,30,31
 535 141 535 141 529 119 c 1,32,33
 506 63 506 63 465 25 c 0,34,35
 394 -41 394 -41 293 -33 c 0,36,37
 285 -33 285 -33 277 -31 c 1,38,-1
 275 -31 l 1,39,40
 218 -25 218 -25 179 2 c 1,41,-1
 175 4 l 1,42,43
 76 78 76 78 80 207 c 1,44,45
 87 338 87 338 189 399 c 0,21,22
277 936 m 1,46,47
 191 922 191 922 162 836 c 1,48,49
 154 801 154 801 156 768 c 1,50,51
 158 752 158 752 162 735 c 1,52,53
 189 653 189 653 254 631 c 1,54,55
 297 618 297 618 330 641 c 1,56,57
 349 653 349 653 363 678 c 1,58,59
 418 764 418 764 375 864 c 1,60,61
 343 928 343 928 297 936 c 1,62,-1
 277 936 l 1,46,47
189 985 m 1,63,64
 257 1028 257 1028 332 1014 c 0,65,66
 369 1008 369 1008 410 987 c 1,67,68
 459 965 459 965 490 928 c 0,69,70
 556 848 556 848 539 750 c 0,71,72
 535 729 535 729 531 711 c 1,73,74
 508 647 508 647 457 604 c 0,75,76
 384 541 384 541 283 547 c 1,77,78
 277 549 277 549 271 549 c 0,79,80
 216 557 216 557 185 584 c 1,81,82
 80 651 80 651 80 782 c 0,83,84
 80 889 80 889 154 956 c 1,85,-1
 189 985 l 1,63,64
EndSplineSet
EndChar

StartChar: b_a
Encoding: 3333 3333 101
Width: 2431
GlyphClass: 2
Flags: W
LayerCount: 2
Fore
SplineSet
809 864 m 1,0,1
 732 799 732 799 707 768 c 1,2,3
 588 608 588 608 607 385 c 1,4,-1
 611 342 l 1,5,6
 629 184 629 184 713 100 c 1,7,8
 775 41 775 41 846 45 c 1,9,-1
 855 45 l 2,10,11
 879 45 879 45 904 66 c 1,12,13
 959 98 959 98 969 178 c 1,14,15
 979 240 979 240 949 293 c 1,16,17
 932 317 932 317 904 344 c 0,18,19
 846 401 846 401 758 406 c 1,20,-1
 701 406 l 1,21,22
 666 418 666 418 670 444 c 1,23,-1
 670 451 l 1,24,25
 683 477 683 477 742 477 c 2,26,-1
 764 477 l 1,27,28
 812 481 812 481 846 504 c 1,29,30
 939 561 939 561 920 678 c 1,31,32
 916 694 916 694 912 713 c 0,33,34
 902 752 902 752 875 799 c 1,35,36
 844 842 844 842 809 864 c 1,0,1
2141 741 m 1,37,38
 2112 731 2112 731 2077 707 c 1,39,40
 1924 592 1924 592 1881 403 c 1,41,42
 1866 342 1866 342 1870 279 c 1,43,44
 1870 262 1870 262 1872 246 c 0,45,46
 1885 143 1885 143 1930 86 c 1,47,48
 1975 35 1975 35 2032 43 c 0,49,50
 2040 45 2040 45 2051 47 c 1,51,52
 2192 86 2192 86 2192 467 c 2,53,-1
 2192 473 l 2,54,55
 2192 584 2192 584 2155 684 c 1,56,-1
 2141 741 l 1,37,38
736 909 m 1,57,58
 668 934 668 934 617 938 c 1,59,60
 494 944 494 944 392 881 c 1,61,62
 343 848 343 848 293 799 c 1,63,64
 234 737 234 737 197 653 c 1,65,66
 109 424 109 424 259 162 c 1,67,68
 273 131 273 131 297 96 c 1,69,-1
 355 27 l 1,70,71
 365 6 365 6 361 -8 c 1,72,73
 357 -16 357 -16 349 -25 c 1,74,-1
 347 -25 l 1,75,-1
 334 -31 l 1,76,77
 312 -35 312 -35 293 -23 c 0,78,79
 281 -16 281 -16 271 -4 c 0,80,81
 105 188 105 188 84 432 c 1,82,83
 78 485 78 485 82 539 c 0,84,85
 84 563 84 563 91 590 c 1,86,87
 132 793 132 793 308 920 c 1,88,89
 474 1036 474 1036 683 1012 c 0,90,91
 715 1008 715 1008 752 999 c 1,92,-1
 832 975 l 1,93,-1
 838 975 l 2,94,95
 850 975 850 975 893 991 c 1,96,-1
 896 991 l 1,97,98
 1043 1034 1043 1034 1170 1001 c 0,99,100
 1233 985 1233 985 1295 952 c 1,101,102
 1342 924 1342 924 1381 885 c 1,103,104
 1414 846 1414 846 1469 756 c 1,105,106
 1483 807 1483 807 1543 864 c 1,107,108
 1623 954 1623 954 1737 993 c 1,109,110
 1854 1030 1854 1030 1965 1010 c 0,111,112
 2022 999 2022 999 2077 975 c 1,113,114
 2128 956 2128 956 2171 918 c 1,115,-1
 2173 918 l 1,116,117
 2368 752 2368 752 2350 408 c 0,118,119
 2350 389 2350 389 2348 371 c 0,120,121
 2331 141 2331 141 2257 57 c 1,122,123
 2225 16 2225 16 2163 -10 c 0,124,125
 2087 -41 2087 -41 2014 -33 c 0,126,127
 1997 -31 1997 -31 1981 -27 c 1,128,129
 1842 -2 1842 -2 1799 168 c 1,130,131
 1790 211 1790 211 1788 225 c 0,132,133
 1770 403 1770 403 1846 551 c 0,134,135
 1885 627 1885 627 1948 694 c 1,136,-1
 1952 698 l 1,137,138
 2032 784 2032 784 2096 805 c 1,139,140
 2032 909 2032 909 1920 934 c 1,141,142
 1819 954 1819 954 1729 905 c 1,143,144
 1682 881 1682 881 1637 836 c 1,145,146
 1545 750 1545 750 1526 647 c 1,147,148
 1514 616 1514 616 1510 598 c 1,149,150
 1526 524 1526 524 1526 233 c 2,151,-1
 1526 68 l 2,152,153
 1526 23 1526 23 1504 4 c 1,154,-1
 1502 4 l 1,155,-1
 1489 -2 l 1,156,157
 1438 -27 1438 -27 1387 -2 c 1,158,159
 1371 8 1371 8 1367 20 c 1,160,161
 1360 27 1360 27 1362 59 c 0,162,163
 1362 70 1362 70 1364 80 c 1,164,-1
 1364 487 l 1,165,166
 1352 680 1352 680 1272 799 c 1,167,168
 1188 926 1188 926 1057 938 c 0,169,170
 1012 942 1012 942 971 932 c 1,171,172
 949 928 949 928 928 918 c 1,173,174
 982 895 982 895 1025 834 c 1,175,176
 1104 715 1104 715 1086 610 c 0,177,178
 1084 594 1084 594 1078 578 c 0,179,180
 1061 532 1061 532 1029 498 c 1,181,-1
 1014 487 l 1,182,183
 982 457 982 457 949 446 c 1,184,-1
 949 438 l 1,185,186
 994 426 994 426 1045 381 c 0,187,188
 1141 295 1141 295 1133 182 c 1,189,190
 1131 176 1131 176 1131 170 c 0,191,192
 1125 94 1125 94 1065 37 c 1,193,194
 982 -37 982 -37 846 -33 c 1,195,196
 637 -20 637 -20 553 201 c 1,197,-1
 545 225 l 1,198,199
 496 385 496 385 521 535 c 0,200,201
 533 612 533 612 566 688 c 1,202,-1
 605 760 l 2,203,204
 640 823 640 823 736 909 c 1,57,58
EndSplineSet
EndChar

StartChar: b_aa
Encoding: 3334 3334 102
Width: 2722
GlyphClass: 2
Flags: W
LayerCount: 2
Fore
SplineSet
795 864 m 1,0,1
 699 784 699 784 693 768 c 1,2,3
 572 608 572 608 590 385 c 1,4,-1
 594 342 l 1,5,6
 615 193 615 193 701 100 c 1,7,8
 760 41 760 41 828 45 c 1,9,-1
 836 45 l 2,10,11
 863 45 863 45 887 66 c 1,12,13
 943 100 943 100 953 178 c 0,14,15
 961 240 961 240 930 295 c 1,16,17
 914 319 914 319 887 344 c 0,18,19
 826 401 826 401 742 406 c 1,20,-1
 687 406 l 1,21,22
 654 418 654 418 658 444 c 1,23,-1
 658 451 l 1,24,25
 670 477 670 477 732 477 c 2,26,-1
 748 477 l 1,27,28
 795 481 795 481 828 504 c 1,29,30
 920 561 920 561 904 680 c 0,31,32
 902 696 902 696 898 713 c 0,33,34
 875 807 875 807 795 864 c 1,0,1
2098 733 m 1,35,36
 1969 684 1969 684 1905 571 c 1,37,-1
 1903 569 l 1,38,39
 1901 569 1901 569 1901 563 c 1,40,41
 1825 428 1825 428 1838 276 c 1,42,43
 1838 260 1838 260 1840 246 c 0,44,45
 1860 51 1860 51 1983 45 c 1,46,47
 2073 37 2073 37 2114 188 c 0,48,49
 2135 264 2135 264 2143 381 c 1,50,51
 2155 535 2155 535 2132 639 c 1,52,53
 2122 690 2122 690 2100 729 c 1,54,-1
 2098 733 l 1,35,36
834 -33 m 1,55,56
 637 -33 637 -33 551 176 c 1,57,-1
 535 225 l 1,58,59
 484 385 484 385 508 532 c 0,60,61
 521 612 521 612 551 688 c 1,62,-1
 590 760 l 2,63,64
 617 811 617 811 723 909 c 1,65,66
 656 934 656 934 605 938 c 1,67,68
 486 944 486 944 388 883 c 1,69,70
 338 848 338 848 291 799 c 0,71,72
 230 735 230 735 197 653 c 1,73,74
 109 424 109 424 252 162 c 0,75,76
 271 127 271 127 293 96 c 1,77,-1
 347 27 l 1,78,79
 359 6 359 6 355 -8 c 1,80,81
 351 -16 351 -16 343 -25 c 1,82,-1
 340 -25 l 1,83,-1
 338 -25 l 1,84,-1
 326 -31 l 1,85,86
 306 -35 306 -35 287 -23 c 0,87,88
 277 -16 277 -16 267 -4 c 0,89,90
 103 190 103 190 82 432 c 0,91,92
 78 485 78 485 82 539 c 0,93,94
 84 563 84 563 89 590 c 0,95,96
 130 795 130 795 304 920 c 0,97,98
 465 1036 465 1036 672 1012 c 0,99,100
 705 1008 705 1008 740 999 c 1,101,-1
 818 975 l 1,102,-1
 822 975 l 2,103,104
 832 975 832 975 877 991 c 1,105,-1
 881 991 l 1,106,107
 1025 1034 1025 1034 1147 1001 c 1,108,109
 1211 985 1211 985 1268 952 c 0,110,111
 1309 928 1309 928 1354 885 c 1,112,113
 1389 844 1389 844 1440 756 c 1,114,115
 1455 805 1455 805 1512 864 c 1,116,117
 1594 954 1594 954 1704 993 c 1,118,119
 1817 1030 1817 1030 1926 1010 c 0,120,121
 1983 999 1983 999 2036 975 c 1,122,123
 2116 942 2116 942 2188 864 c 1,124,-1
 2214 825 l 1,125,-1
 2221 823 l 1,126,-1
 2296 803 l 1,127,-1
 2305 803 l 1,128,129
 2399 778 2399 778 2460 723 c 1,130,131
 2671 541 2671 541 2638 170 c 1,132,133
 2636 133 2636 133 2630 96 c 0,134,135
 2587 -150 2587 -150 2417 -260 c 1,136,137
 2319 -326 2319 -326 2186 -326 c 0,138,139
 2034 -326 2034 -326 1922 -260 c 1,140,141
 1852 -223 1852 -223 1852 -201 c 1,142,143
 1850 -176 1850 -176 1862 -166 c 0,144,145
 1868 -160 1868 -160 1881 -156 c 1,146,-1
 1883 -154 l 1,147,-1
 1907 -156 l 1,148,-1
 1991 -207 l 1,149,150
 2118 -266 2118 -266 2216 -246 c 0,151,152
 2255 -238 2255 -238 2290 -217 c 1,153,154
 2438 -121 2438 -121 2472 127 c 1,155,156
 2491 250 2491 250 2475 365 c 1,157,158
 2464 424 2464 424 2446 481 c 0,159,160
 2386 666 2386 666 2270 717 c 1,161,162
 2307 608 2307 608 2307 418 c 2,163,-1
 2307 414 l 2,164,165
 2307 127 2307 127 2186 25 c 1,166,167
 2100 -43 2100 -43 1987 -33 c 0,168,169
 1979 -33 1979 -33 1969 -31 c 1,170,171
 1893 -25 1893 -25 1840 25 c 1,172,-1
 1840 27 l 1,173,174
 1770 98 1770 98 1756 229 c 1,175,176
 1737 387 1737 387 1788 524 c 0,177,178
 1813 590 1813 590 1856 651 c 1,179,-1
 1883 682 l 2,180,181
 1969 780 1969 780 2065 799 c 1,182,183
 1981 897 1981 897 1922 920 c 1,184,185
 1858 948 1858 948 1784 932 c 1,186,187
 1612 901 1612 901 1520 719 c 1,188,-1
 1500 668 l 1,189,190
 1489 643 1489 643 1494 582 c 1,191,192
 1494 563 1494 563 1496 545 c 1,193,-1
 1496 72 l 2,194,195
 1496 25 1496 25 1489 18 c 1,196,197
 1473 -16 1473 -16 1410 -12 c 1,198,-1
 1397 -10 l 1,199,200
 1354 -8 1354 -8 1338 18 c 1,201,-1
 1336 80 l 1,202,-1
 1336 231 l 2,203,204
 1336 498 1336 498 1334 512 c 0,205,206
 1321 686 1321 686 1246 803 c 1,207,208
 1164 928 1164 928 1041 938 c 0,209,210
 994 942 994 942 957 932 c 1,211,212
 932 928 932 928 912 918 c 1,213,214
 963 895 963 895 1006 834 c 1,215,216
 1082 717 1082 717 1065 610 c 1,217,-1
 1057 578 l 1,218,219
 1039 528 1039 528 1008 498 c 1,220,-1
 994 487 l 1,221,222
 963 457 963 457 930 446 c 1,223,-1
 930 438 l 1,224,225
 979 426 979 426 1027 381 c 1,226,227
 1129 291 1129 291 1111 170 c 1,228,229
 1104 96 1104 96 1049 37 c 1,230,231
 965 -37 965 -37 834 -33 c 1,55,56
EndSplineSet
EndChar

StartChar: b_i
Encoding: 3335 3335 103
Width: 1720
GlyphClass: 2
Flags: W
LayerCount: 2
Fore
SplineSet
384 594 m 1,0,1
 343 592 343 592 306 561 c 1,2,3
 238 510 238 510 244 414 c 0,4,5
 244 410 244 410 244 403 c 1,6,-1
 252 365 l 1,7,8
 271 289 271 289 338 252 c 0,9,10
 367 236 367 236 398 240 c 0,11,12
 404 240 404 240 410 242 c 1,13,14
 455 244 455 244 490 291 c 1,15,16
 553 385 553 385 515 494 c 1,17,-1
 506 514 l 1,18,19
 467 590 467 590 404 594 c 1,20,-1
 384 594 l 1,0,1
211 569 m 1,21,22
 244 641 244 641 349 666 c 1,23,-1
 363 668 l 1,24,25
 451 682 451 682 525 647 c 1,26,27
 562 633 562 633 594 602 c 2,28,-1
 596 600 l 1,29,30
 640 559 640 559 662 502 c 1,31,-1
 662 500 l 1,32,33
 691 416 691 416 666 340 c 0,34,35
 654 303 654 303 629 268 c 1,36,-1
 625 260 l 1,37,38
 556 170 556 170 424 160 c 1,39,40
 355 160 355 160 302 186 c 1,41,-1
 300 186 l 1,42,43
 164 256 164 256 138 514 c 0,44,45
 128 621 128 621 152 707 c 1,46,47
 164 745 164 745 183 782 c 1,48,49
 271 940 271 940 451 997 c 1,50,51
 562 1028 562 1028 662 1008 c 1,52,53
 713 995 713 995 764 973 c 0,54,55
 838 940 838 940 920 834 c 1,56,-1
 926 827 l 1,57,58
 971 930 971 930 1082 987 c 1,59,-1
 1113 999 l 1,60,61
 1209 1032 1209 1032 1303 1008 c 1,62,63
 1356 993 1356 993 1405 967 c 0,64,65
 1453 942 1453 942 1485 909 c 1,66,67
 1643 756 1643 756 1641 496 c 1,68,69
 1631 180 1631 180 1385 61 c 1,70,-1
 1381 59 l 1,71,-1
 1317 35 l 1,72,73
 1240 10 1240 10 1076 12 c 1,74,-1
 1059 12 l 1,75,-1
 562 12 l 1,76,-1
 353 8 l 1,77,78
 289 0 289 0 240 -27 c 0,79,80
 171 -66 171 -66 158 -119 c 1,81,-1
 158 -147 l 1,82,83
 164 -180 164 -180 211 -209 c 1,84,85
 289 -266 289 -266 420 -266 c 2,86,-1
 1567 -266 l 1,87,-1
 1580 -270 l 1,88,89
 1606 -291 1606 -291 1604 -352 c 1,90,91
 1598 -397 1598 -397 1571 -410 c 1,92,-1
 1539 -412 l 1,93,-1
 474 -412 l 2,94,95
 371 -412 371 -412 336 -406 c 0,96,97
 140 -373 140 -373 93 -225 c 0,98,99
 76 -172 76 -172 82 -123 c 0,100,101
 84 -104 84 -104 89 -86 c 0,102,103
 132 55 132 55 347 84 c 1,104,-1
 351 84 l 1,105,106
 384 90 384 90 433 90 c 1,107,108
 447 88 447 88 461 88 c 2,109,-1
 1113 88 l 2,110,111
 1203 88 1203 88 1235 100 c 0,112,113
 1387 152 1387 152 1453 317 c 1,114,115
 1508 449 1508 449 1489 580 c 0,116,117
 1479 647 1479 647 1453 717 c 0,118,119
 1442 745 1442 745 1428 770 c 0,120,121
 1369 881 1369 881 1289 920 c 1,122,123
 1211 956 1211 956 1133 922 c 0,124,125
 1096 905 1096 905 1055 870 c 1,126,127
 998 813 998 813 969 741 c 1,128,-1
 979 614 l 1,129,-1
 979 225 l 1,130,131
 973 182 973 182 887 186 c 1,132,133
 850 186 850 186 838 211 c 1,134,-1
 834 283 l 1,135,-1
 834 434 l 2,136,137
 834 631 834 631 826 672 c 0,138,139
 809 764 809 764 764 827 c 0,140,141
 662 967 662 967 500 930 c 1,142,143
 334 889 334 889 254 745 c 1,144,145
 211 664 211 664 211 571 c 2,146,-1
 211 569 l 1,21,22
EndSplineSet
EndChar

StartChar: b_ii
Encoding: 3336 3336 104
Width: 2815
GlyphClass: 2
Flags: W
LayerCount: 2
Fore
SplineSet
344 594 m 1,0,1
 301 592 301 592 266 561 c 1,2,3
 196 510 196 510 202 414 c 0,4,5
 202 410 202 410 202 403 c 2,6,-1
 206 365 l 1,7,8
 225 289 225 289 296 252 c 0,9,10
 325 236 325 236 358 240 c 0,11,12
 362 240 362 240 368 242 c 1,13,14
 413 244 413 244 448 291 c 1,15,16
 497 365 497 365 483 446 c 0,17,18
 479 469 479 469 471 494 c 1,19,-1
 462 514 l 1,20,21
 426 590 426 590 362 594 c 1,22,-1
 344 594 l 1,0,1
172 569 m 1,23,24
 210 647 210 647 307 666 c 1,25,-1
 319 668 l 2,26,27
 413 684 413 684 483 651 c 1,28,29
 520 637 520 637 548 606 c 1,30,-1
 555 600 l 1,31,32
 598 559 598 559 620 502 c 1,33,-1
 620 500 l 1,34,35
 649 412 649 412 624 336 c 1,36,37
 614 299 614 299 589 268 c 1,38,-1
 581 260 l 1,39,40
 514 166 514 166 380 160 c 0,41,42
 339 158 339 158 301 168 c 1,43,44
 278 176 278 176 260 186 c 2,45,-1
 256 188 l 2,46,47
 118 256 118 256 96 514 c 0,48,49
 86 621 86 621 106 702 c 1,50,51
 118 743 118 743 139 782 c 0,52,53
 225 944 225 944 409 997 c 0,54,55
 518 1028 518 1028 618 1008 c 1,56,57
 671 995 671 995 722 973 c 0,58,59
 796 940 796 940 878 834 c 1,60,-1
 880 827 l 1,61,62
 933 936 933 936 1042 987 c 1,63,-1
 1067 999 l 1,64,65
 1155 1040 1155 1040 1255 1012 c 0,66,67
 1308 997 1308 997 1366 967 c 1,68,69
 1409 940 1409 940 1443 909 c 1,70,71
 1626 729 1626 729 1591 436 c 0,72,73
 1587 399 1587 399 1579 360 c 1,74,75
 1531 154 1531 154 1341 61 c 1,76,-1
 1337 59 l 1,77,-1
 1275 35 l 1,78,79
 1200 12 1200 12 1017 12 c 2,80,-1
 561 12 l 1,81,-1
 352 8 l 1,82,83
 286 0 286 0 237 -27 c 0,84,85
 172 -63 172 -63 155 -119 c 1,86,-1
 155 -147 l 1,87,88
 165 -182 165 -182 210 -209 c 1,89,90
 288 -266 288 -266 421 -266 c 2,91,-1
 1523 -266 l 1,92,-1
 1538 -270 l 1,93,94
 1564 -283 1564 -283 1560 -342 c 0,95,96
 1560 -346 1560 -346 1560 -352 c 0,97,98
 1558 -395 1558 -395 1531 -410 c 1,99,-1
 1495 -412 l 1,100,-1
 471 -412 l 2,101,102
 366 -412 366 -412 337 -406 c 1,103,104
 137 -373 137 -373 94 -225 c 1,105,106
 75 -172 75 -172 81 -123 c 0,107,108
 83 -104 83 -104 88 -86 c 0,109,110
 137 84 137 84 348 84 c 2,111,-1
 350 84 l 1,112,113
 383 90 383 90 430 90 c 1,114,115
 444 88 444 88 458 88 c 2,116,-1
 1069 88 l 2,117,118
 1159 88 1159 88 1196 100 c 0,119,120
 1345 152 1345 152 1411 317 c 1,121,122
 1464 440 1464 440 1445 575 c 1,123,124
 1437 643 1437 643 1411 717 c 1,125,126
 1400 745 1400 745 1386 770 c 0,127,128
 1323 883 1323 883 1247 920 c 1,129,130
 1165 958 1165 958 1089 924 c 0,131,132
 1048 905 1048 905 1011 870 c 1,133,134
 958 817 958 817 925 741 c 1,135,-1
 940 614 l 1,136,-1
 940 225 l 1,137,138
 933 186 933 186 847 186 c 0,139,140
 804 186 804 186 796 211 c 1,141,-1
 796 217 l 1,142,143
 790 229 790 229 792 264 c 0,144,145
 792 270 792 270 792 274 c 2,146,-1
 792 434 l 2,147,148
 792 631 792 631 786 672 c 1,149,150
 768 770 768 770 722 827 c 1,151,152
 620 967 620 967 458 930 c 0,153,154
 294 893 294 893 213 745 c 0,155,156
 170 666 170 666 170 571 c 2,157,-1
 170 569 l 1,158,-1
 172 569 l 1,23,24
2242 868 m 1,159,160
 2252 905 2252 905 2289 936 c 1,161,162
 2367 1014 2367 1014 2478 1001 c 0,163,164
 2492 999 2492 999 2502 997 c 0,165,166
 2596 981 2596 981 2654 905 c 1,167,168
 2711 825 2711 825 2730 666 c 1,169,170
 2746 492 2746 492 2713 362 c 0,171,172
 2695 293 2695 293 2664 233 c 0,173,174
 2557 23 2557 23 2322 -35 c 2,175,-1
 2314 -37 l 2,176,177
 2234 -57 2234 -57 2189 -43 c 1,178,-1
 2162 -29 l 2,179,180
 2158 -27 2158 -27 2156 -23 c 0,181,182
 2140 2 2140 2 2152 14 c 0,183,184
 2158 20 2158 20 2177 23 c 2,185,-1
 2189 25 l 1,186,-1
 2275 37 l 1,187,188
 2377 63 2377 63 2449 147 c 1,189,-1
 2451 147 l 2,190,191
 2627 147 2627 147 2592 555 c 0,192,193
 2586 614 2586 614 2580 680 c 1,194,195
 2553 885 2553 885 2459 920 c 0,196,197
 2437 928 2437 928 2414 924 c 0,198,199
 2404 922 2404 922 2390 915 c 0,200,201
 2326 887 2326 887 2291 803 c 0,202,203
 2281 778 2281 778 2291 688 c 1,204,-1
 2297 666 l 1,205,-1
 2297 403 l 1,206,-1
 2291 369 l 1,207,208
 2275 340 2275 340 2224 340 c 0,209,210
 2168 340 2168 340 2152 369 c 1,211,212
 2152 395 2152 395 2150 412 c 1,213,-1
 2150 506 l 2,214,215
 2150 705 2150 705 2123 788 c 1,216,-1
 2113 813 l 1,217,218
 2076 899 2076 899 2017 922 c 1,219,220
 1982 934 1982 934 1941 909 c 1,221,222
 1916 897 1916 897 1894 870 c 1,223,-1
 1892 868 l 1,224,-1
 1880 854 l 1,225,226
 1802 745 1802 745 1826 600 c 1,227,228
 1835 553 1835 553 1853 500 c 1,229,-1
 1906 385 l 1,230,231
 1910 367 1910 367 1898 354 c 0,232,233
 1892 348 1892 348 1882 344 c 0,234,235
 1869 340 1869 340 1859 344 c 2,236,-1
 1847 350 l 1,237,238
 1812 379 1812 379 1777 485 c 1,239,-1
 1777 487 l 1,240,-1
 1775 492 l 1,241,242
 1724 596 1724 596 1740 717 c 1,243,244
 1751 774 1751 774 1777 836 c 0,245,246
 1814 922 1814 922 1884 965 c 1,247,248
 1970 1028 1970 1028 2099 987 c 1,249,250
 2150 973 2150 973 2181 940 c 1,251,252
 2228 897 2228 897 2234 868 c 1,253,-1
 2242 868 l 1,159,160
EndSplineSet
EndChar

StartChar: b_u
Encoding: 3337 3337 105
Width: 1195
GlyphClass: 2
Flags: W
LayerCount: 2
Fore
SplineSet
386 594 m 1,0,1
 345 592 345 592 308 561 c 1,2,3
 240 508 240 508 246 414 c 0,4,5
 246 410 246 410 246 403 c 1,6,-1
 254 369 l 2,7,8
 273 291 273 291 338 254 c 1,9,10
 373 231 373 231 410 242 c 1,11,-1
 412 242 l 1,12,13
 453 244 453 244 492 293 c 1,14,15
 543 369 543 369 529 451 c 0,16,17
 525 473 525 473 515 498 c 2,18,-1
 508 514 l 1,19,20
 470 590 470 590 406 594 c 1,21,-1
 386 594 l 1,0,1
214 569 m 1,22,23
 234 604 234 604 275 631 c 1,24,-1
 277 631 l 1,25,26
 373 700 373 700 500 659 c 1,27,-1
 523 651 l 1,28,29
 588 621 588 621 633 561 c 1,30,31
 693 473 693 473 676 381 c 0,32,33
 672 356 672 356 664 332 c 1,34,-1
 664 330 l 1,35,36
 599 166 599 166 420 164 c 0,37,38
 386 164 386 164 353 170 c 1,39,40
 185 207 185 207 148 453 c 0,41,42
 138 516 138 516 138 569 c 2,43,-1
 138 571 l 2,44,45
 138 827 138 827 359 952 c 1,46,-1
 420 979 l 1,47,48
 562 1034 562 1034 703 1006 c 0,49,50
 775 991 775 991 846 956 c 1,51,-1
 889 930 l 1,52,53
 1072 807 1072 807 1108 578 c 1,54,55
 1131 424 1131 424 1084 293 c 0,56,57
 1059 223 1059 223 1018 162 c 1,58,-1
 1004 143 l 1,59,60
 930 45 930 45 744 23 c 2,61,-1
 703 18 l 1,62,-1
 693 16 l 1,63,-1
 691 16 l 1,64,-1
 605 14 l 1,65,-1
 365 10 l 1,66,67
 277 2 277 2 211 -45 c 1,68,-1
 209 -47 l 1,69,70
 158 -86 158 -86 160 -139 c 1,71,-1
 160 -141 l 1,72,73
 164 -170 164 -170 195 -195 c 0,74,75
 273 -260 273 -260 455 -264 c 1,76,-1
 1043 -264 l 1,77,-1
 1051 -266 l 1,78,79
 1084 -287 1084 -287 1082 -348 c 1,80,81
 1076 -393 1076 -393 1051 -406 c 0,82,83
 1045 -410 1045 -410 986 -410 c 2,84,-1
 523 -410 l 2,85,86
 363 -410 363 -410 308 -397 c 0,87,88
 162 -365 162 -365 109 -260 c 0,89,90
 70 -182 70 -182 84 -115 c 0,91,92
 91 -78 91 -78 109 -45 c 1,93,-1
 128 -16 l 1,94,95
 171 35 171 35 254 66 c 1,96,97
 332 92 332 92 506 90 c 0,98,99
 515 90 515 90 521 90 c 2,100,-1
 564 90 l 2,101,102
 680 90 680 90 734 106 c 1,103,104
 875 166 875 166 922 270 c 1,105,-1
 928 279 l 1,106,107
 986 424 986 424 963 561 c 1,108,109
 955 633 955 633 922 700 c 1,110,111
 898 764 898 764 846 823 c 1,112,113
 773 901 773 901 680 926 c 0,114,115
 576 954 576 954 478 920 c 0,116,117
 427 903 427 903 375 870 c 1,118,119
 234 776 234 776 214 625 c 1,120,-1
 214 569 l 1,22,23
EndSplineSet
EndChar

StartChar: b_uu
Encoding: 3338 3338 106
Width: 2297
GlyphClass: 2
Flags: W
LayerCount: 2
Fore
SplineSet
1725 881 m 1,0,1
 1735 920 1735 920 1772 946 c 1,2,3
 1852 1026 1852 1026 1963 1012 c 1,4,5
 1963 1012 1963 1012 1987 1008 c 0,6,7
 2182 969 2182 969 2210 678 c 1,8,9
 2231 504 2231 504 2194 369 c 1,10,11
 2178 301 2178 301 2149 246 c 0,12,13
 2036 25 2036 25 1803 -23 c 1,14,-1
 1797 -25 l 1,15,16
 1711 -41 1711 -41 1668 -31 c 1,17,18
 1647 -25 1647 -25 1639 -10 c 1,19,20
 1627 8 1627 8 1639 20 c 1,21,22
 1645 29 1645 29 1661 35 c 1,23,-1
 1674 37 l 1,24,-1
 1760 49 l 1,25,26
 1860 74 1860 74 1934 160 c 1,27,-1
 1936 160 l 1,28,29
 2092 340 2092 340 2069 631 c 1,30,31
 2065 659 2065 659 2061 692 c 0,32,33
 2036 903 2036 903 1944 932 c 0,34,35
 1907 944 1907 944 1872 926 c 0,36,37
 1813 897 1813 897 1778 815 c 0,38,39
 1770 795 1770 795 1772 752 c 1,40,-1
 1778 700 l 1,41,-1
 1780 678 l 1,42,-1
 1778 426 l 2,43,44
 1778 401 1778 401 1776 381 c 1,45,46
 1760 352 1760 352 1709 352 c 0,47,48
 1651 352 1651 352 1637 381 c 1,49,-1
 1633 424 l 1,50,-1
 1633 518 l 2,51,52
 1633 717 1633 717 1606 801 c 1,53,-1
 1596 823 l 1,54,55
 1557 915 1557 915 1502 934 c 0,56,57
 1461 948 1461 948 1418 922 c 0,58,59
 1395 907 1395 907 1375 883 c 1,60,-1
 1373 881 l 1,61,-1
 1362 864 l 1,62,63
 1287 758 1287 758 1309 616 c 0,64,65
 1317 565 1317 565 1338 512 c 1,66,-1
 1391 395 l 1,67,68
 1393 377 1393 377 1381 365 c 0,69,70
 1375 360 1375 360 1362 356 c 0,71,72
 1326 342 1326 342 1295 408 c 1,73,74
 1276 442 1276 442 1260 496 c 1,75,-1
 1260 498 l 1,76,-1
 1260 504 l 1,77,78
 1199 692 1199 692 1260 846 c 1,79,80
 1297 932 1297 932 1364 977 c 0,81,82
 1438 1028 1438 1028 1530 1014 c 0,83,84
 1555 1010 1555 1010 1582 999 c 1,85,86
 1629 983 1629 983 1664 952 c 0,87,88
 1713 909 1713 909 1719 881 c 1,89,-1
 1725 881 l 1,0,1
345 594 m 1,90,91
 304 592 304 592 267 561 c 1,92,93
 197 508 197 508 203 416 c 1,94,95
 205 410 205 410 205 403 c 1,96,-1
 214 369 l 1,97,98
 230 291 230 291 297 254 c 1,99,100
 330 231 330 231 369 242 c 1,101,-1
 371 242 l 1,102,103
 414 244 414 244 451 293 c 1,104,105
 502 369 502 369 488 453 c 1,106,107
 482 473 482 473 474 498 c 1,108,-1
 467 514 l 1,109,110
 427 590 427 590 365 594 c 1,111,-1
 345 594 l 1,90,91
173 569 m 1,112,113
 209 631 209 631 234 631 c 2,114,-1
 236 631 l 1,115,116
 314 686 314 686 412 670 c 1,117,118
 437 668 437 668 459 659 c 1,119,-1
 482 651 l 1,120,121
 539 629 539 629 592 561 c 1,122,123
 650 471 650 471 633 379 c 1,124,125
 631 356 631 356 623 332 c 1,126,-1
 623 330 l 1,127,128
 601 281 601 281 580 254 c 0,129,130
 506 164 506 164 379 164 c 0,131,132
 347 164 347 164 312 170 c 1,133,134
 154 205 154 205 107 453 c 0,135,136
 97 508 97 508 97 569 c 2,137,-1
 97 571 l 2,138,139
 97 645 97 645 109 688 c 0,140,141
 154 864 154 864 318 952 c 1,142,-1
 379 979 l 1,143,144
 523 1034 523 1034 664 1006 c 1,145,146
 734 991 734 991 805 956 c 1,147,-1
 848 930 l 1,148,149
 1033 807 1033 807 1068 578 c 1,150,151
 1090 424 1090 424 1045 293 c 0,152,153
 1020 223 1020 223 977 162 c 1,154,-1
 963 143 l 1,155,156
 879 39 879 39 744 23 c 2,157,-1
 703 18 l 1,158,-1
 693 16 l 1,159,-1
 691 16 l 1,160,-1
 605 14 l 1,161,-1
 365 10 l 1,162,163
 252 -2 252 -2 211 -45 c 1,164,-1
 209 -47 l 1,165,166
 162 -96 162 -96 164 -139 c 1,167,-1
 164 -141 l 1,168,169
 168 -170 168 -170 195 -195 c 1,170,171
 277 -264 277 -264 455 -264 c 2,172,-1
 457 -264 l 1,173,-1
 545 -264 l 1,174,-1
 992 -264 l 1,175,-1
 1043 -264 l 1,176,-1
 1051 -266 l 2,177,178
 1086 -274 1086 -274 1082 -338 c 0,179,180
 1082 -342 1082 -342 1082 -348 c 0,181,182
 1080 -387 1080 -387 1051 -406 c 1,183,184
 1041 -410 1041 -410 986 -410 c 2,185,-1
 982 -410 l 1,186,-1
 523 -410 l 2,187,188
 363 -410 363 -410 308 -397 c 0,189,190
 162 -365 162 -365 109 -260 c 0,191,192
 70 -182 70 -182 84 -115 c 0,193,194
 91 -78 91 -78 109 -45 c 1,195,-1
 128 -16 l 1,196,197
 171 35 171 35 254 66 c 1,198,199
 322 90 322 90 521 90 c 2,200,-1
 527 90 l 1,201,-1
 564 90 l 2,202,203
 691 90 691 90 734 106 c 0,204,205
 816 137 816 137 883 270 c 1,206,-1
 887 279 l 1,207,208
 953 408 953 408 928 551 c 0,209,210
 916 625 916 625 881 700 c 1,211,212
 850 778 850 778 805 823 c 0,213,214
 730 899 730 899 640 926 c 1,215,216
 535 954 535 954 437 920 c 1,217,218
 384 903 384 903 334 870 c 0,219,220
 193 776 193 776 173 625 c 1,221,-1
 173 569 l 1,112,113
EndSplineSet
EndChar

StartChar: b_r
Encoding: 3339 3339 107
Width: 1475
GlyphClass: 2
Flags: W
LayerCount: 2
Fore
SplineSet
388 938 m 1,0,1
 261 922 261 922 234 834 c 0,2,3
 226 809 226 809 228 786 c 0,4,5
 228 780 228 780 230 776 c 0,6,7
 236 754 236 754 252 733 c 1,8,9
 285 670 285 670 357 651 c 1,10,11
 418 637 418 637 463 664 c 0,12,13
 488 680 488 680 508 707 c 1,14,-1
 510 709 l 1,15,16
 549 764 549 764 539 811 c 0,17,18
 537 821 537 821 533 831 c 1,19,-1
 533 836 l 1,20,-1
 517 864 l 1,21,22
 467 944 467 944 388 938 c 1,0,1
1065 940 m 1,23,24
 1010 932 1010 932 971 879 c 1,25,-1
 969 877 l 1,26,27
 918 815 918 815 941 762 c 1,28,-1
 959 725 l 1,29,30
 1004 643 1004 643 1086 647 c 1,31,32
 1090 649 1090 649 1096 649 c 1,33,-1
 1104 651 l 1,34,35
 1227 670 1227 670 1246 756 c 1,36,37
 1252 788 1252 788 1242 819 c 0,38,39
 1235 838 1235 838 1225 856 c 1,40,-1
 1225 858 l 1,41,42
 1195 918 1195 918 1123 936 c 1,43,-1
 1065 940 l 1,23,24
545 301 m 1,44,45
 396 283 396 283 363 268 c 1,46,-1
 318 246 l 1,47,48
 207 168 207 168 228 78 c 0,49,50
 230 66 230 66 234 53 c 0,51,52
 254 0 254 0 332 -55 c 1,53,-1
 429 -94 l 2,54,55
 472 -111 472 -111 498 -111 c 1,56,57
 537 -119 537 -119 736 -119 c 2,58,-1
 738 -119 l 1,59,-1
 959 -113 l 1,60,61
 1160 -94 1160 -94 1229 6 c 0,62,63
 1258 47 1258 47 1256 98 c 1,64,65
 1242 229 1242 229 1051 279 c 1,66,-1
 979 291 l 2,67,68
 930 299 930 299 740 299 c 2,69,-1
 615 299 l 1,70,-1
 545 301 l 1,44,45
398 348 m 1,71,-1
 336 377 l 1,72,73
 162 457 162 457 125 600 c 1,74,-1
 115 635 l 1,75,76
 111 674 111 674 117 725 c 0,77,78
 121 752 121 752 130 784 c 1,79,80
 152 901 152 901 228 956 c 1,81,82
 310 1022 310 1022 439 1012 c 1,83,84
 439 1012 439 1012 467 1008 c 0,85,86
 543 997 543 997 592 961 c 1,87,88
 691 895 691 895 685 774 c 1,89,90
 676 707 676 707 627 651 c 0,91,92
 560 575 560 575 416 575 c 1,93,94
 361 573 361 573 314 588 c 1,95,96
 289 594 289 594 269 606 c 0,97,98
 238 623 238 623 191 680 c 1,99,100
 191 502 191 502 408 412 c 1,101,-1
 498 379 l 1,102,103
 551 367 551 367 709 367 c 1,104,-1
 904 365 l 1,105,106
 951 369 951 369 979 379 c 0,107,108
 1287 494 1287 494 1289 676 c 1,109,-1
 1289 680 l 1,110,-1
 1287 680 l 1,111,112
 1281 664 1281 664 1254 639 c 0,113,114
 1217 604 1217 604 1168 590 c 1,115,116
 1092 561 1092 561 1012 575 c 0,117,118
 971 582 971 582 932 598 c 1,119,-1
 902 612 l 1,120,121
 797 674 797 674 791 791 c 1,122,-1
 791 793 l 1,123,124
 797 850 797 850 820 891 c 1,125,-1
 822 895 l 1,126,127
 848 944 848 944 904 973 c 1,128,129
 988 1022 988 1022 1100 1012 c 1,130,131
 1121 1012 1121 1012 1137 1008 c 1,132,133
 1334 973 1334 973 1358 727 c 1,134,135
 1362 649 1362 649 1360 635 c 0,136,137
 1338 485 1338 485 1170 391 c 1,138,-1
 1160 387 l 1,139,140
 1094 356 1094 356 1082 348 c 1,141,142
 1125 346 1125 346 1199 313 c 1,143,144
 1346 254 1346 254 1385 145 c 0,145,146
 1405 90 1405 90 1387 37 c 1,147,148
 1383 12 1383 12 1367 -12 c 0,149,150
 1274 -158 1274 -158 1014 -188 c 2,151,-1
 953 -195 l 1,152,-1
 523 -195 l 1,153,154
 320 -182 320 -182 209 -106 c 1,155,156
 134 -59 134 -59 101 6 c 0,157,158
 62 84 62 84 97 156 c 1,159,160
 113 195 113 195 150 229 c 1,161,162
 193 279 193 279 277 311 c 1,163,164
 349 346 349 346 398 348 c 1,71,-1
EndSplineSet
EndChar

StartChar: b_n
Encoding: 3340 3340 108
Width: 1723
GlyphClass: 2
Flags: W
LayerCount: 2
Fore
SplineSet
1459 711 m 1,0,1
 1373 657 1373 657 1340 627 c 1,2,3
 1215 494 1215 494 1223 293 c 1,4,-1
 1223 276 l 1,5,6
 1242 70 1242 70 1332 45 c 0,7,8
 1338 43 1338 43 1346 43 c 0,9,10
 1401 37 1401 37 1440 102 c 1,11,12
 1461 133 1461 133 1473 184 c 1,13,14
 1510 317 1510 317 1500 487 c 0,15,16
 1498 528 1498 528 1494 569 c 0,17,18
 1485 670 1485 670 1459 711 c 1,0,1
357 537 m 1,19,20
 252 516 252 516 209 393 c 1,21,22
 187 319 187 319 197 242 c 1,23,24
 203 207 203 207 218 170 c 1,25,26
 248 88 248 88 314 53 c 1,27,28
 416 6 416 6 482 137 c 1,29,30
 523 221 523 221 515 313 c 1,31,32
 515 326 515 326 513 336 c 0,33,34
 506 381 506 381 486 428 c 1,35,36
 441 543 441 543 357 537 c 1,19,20
904 623 m 1,37,-1
 914 512 l 1,38,-1
 914 70 l 2,39,40
 914 23 914 23 912 16 c 1,41,42
 896 -14 896 -14 842 -10 c 0,43,44
 836 -10 836 -10 832 -10 c 2,45,-1
 795 -2 l 1,46,-1
 779 16 l 1,47,48
 773 25 773 25 775 68 c 1,49,-1
 775 80 l 1,50,-1
 775 223 l 1,51,-1
 773 487 l 1,52,53
 764 664 764 664 693 782 c 0,54,55
 603 930 603 930 463 913 c 1,56,57
 463 913 463 913 443 909 c 1,58,59
 435 905 435 905 420 905 c 1,60,61
 252 856 252 856 187 655 c 1,62,63
 152 559 152 559 152 453 c 1,64,-1
 156 453 l 1,65,66
 162 477 162 477 191 516 c 0,67,68
 236 578 236 578 306 600 c 1,69,70
 377 625 377 625 449 604 c 0,71,72
 486 594 486 594 521 573 c 1,73,74
 580 532 580 532 609 485 c 1,75,76
 672 371 672 371 658 246 c 0,77,78
 656 225 656 225 652 209 c 0,79,80
 635 127 635 127 594 74 c 1,81,82
 519 -33 519 -33 381 -33 c 0,83,84
 107 -33 107 -33 82 391 c 1,85,86
 70 563 70 563 117 696 c 0,87,88
 142 764 142 764 183 819 c 0,89,90
 250 911 250 911 340 954 c 1,91,92
 439 999 439 999 543 987 c 1,93,94
 543 987 543 987 596 979 c 1,95,96
 670 963 670 963 723 924 c 0,97,98
 793 872 793 872 869 739 c 1,99,100
 875 776 875 776 934 850 c 1,101,102
 1012 940 1012 940 1117 973 c 1,103,104
 1197 997 1197 997 1274 987 c 1,105,106
 1317 983 1317 983 1360 969 c 1,107,108
 1430 948 1430 948 1479 901 c 1,109,110
 1649 756 1649 756 1643 432 c 0,111,112
 1643 424 1643 424 1643 418 c 2,113,-1
 1641 362 l 1,114,115
 1625 94 1625 94 1524 20 c 1,116,117
 1455 -41 1455 -41 1356 -35 c 1,118,119
 1350 -33 1350 -33 1342 -33 c 1,120,-1
 1326 -29 l 1,121,122
 1186 -4 1186 -4 1156 221 c 1,123,124
 1125 428 1125 428 1211 578 c 0,125,126
 1254 651 1254 651 1326 715 c 1,127,128
 1379 758 1379 758 1424 776 c 1,129,130
 1377 866 1377 866 1301 899 c 0,131,132
 1211 938 1211 938 1123 897 c 1,133,134
 1076 879 1076 879 1031 836 c 0,135,136
 967 776 967 776 934 711 c 1,137,138
 908 653 908 653 904 623 c 1,37,-1
EndSplineSet
EndChar

StartChar: b_e
Encoding: 3342 3342 110
Width: 2108
GlyphClass: 2
Flags: W
LayerCount: 2
Fore
SplineSet
1078 -10 m 1,0,1
 1078 -160 1078 -160 1131 -238 c 1,2,-1
 1162 -281 l 1,3,4
 1203 -330 1203 -330 1272 -338 c 1,5,6
 1301 -344 1301 -344 1321 -338 c 0,7,8
 1332 -334 1332 -334 1340 -328 c 0,9,10
 1371 -301 1371 -301 1391 -221 c 0,11,12
 1410 -147 1410 -147 1408 -78 c 1,13,-1
 1408 -70 l 1,14,-1
 1405 -10 l 1,15,-1
 1078 -10 l 1,0,1
1004 66 m 1,16,17
 1004 369 1004 369 1027 479 c 2,18,-1
 1041 547 l 1,19,20
 1100 780 1100 780 1242 909 c 1,21,22
 1381 1026 1381 1026 1559 1012 c 1,23,24
 1573 1012 1573 1012 1586 1010 c 0,25,26
 1747 991 1747 991 1854 874 c 1,27,28
 2032 676 2032 676 2028 240 c 0,29,30
 2028 236 2028 236 2028 229 c 2,31,-1
 2024 119 l 1,32,33
 2008 -82 2008 -82 1981 -150 c 1,34,35
 1958 -205 1958 -205 1907 -276 c 0,36,37
 1823 -395 1823 -395 1672 -414 c 1,38,-1
 1643 -416 l 2,39,40
 1590 -420 1590 -420 1561 -408 c 1,41,-1
 1545 -395 l 1,42,-1
 1543 -393 l 1,43,44
 1532 -375 1532 -375 1549 -360 c 0,45,46
 1557 -354 1557 -354 1569 -348 c 2,47,-1
 1573 -346 l 1,48,49
 1616 -344 1616 -344 1655 -334 c 1,50,51
 1739 -309 1739 -309 1797 -207 c 1,52,53
 1854 -94 1854 -94 1866 23 c 1,54,-1
 1870 129 l 1,55,56
 1883 408 1883 408 1838 590 c 1,57,58
 1817 682 1817 682 1782 748 c 1,59,-1
 1745 803 l 1,60,61
 1657 928 1657 928 1530 938 c 1,62,63
 1434 944 1434 944 1344 885 c 1,64,65
 1289 854 1289 854 1233 782 c 0,66,67
 1096 608 1096 608 1080 262 c 1,68,-1
 1078 66 l 1,69,-1
 1405 66 l 1,70,71
 1405 547 1405 547 1408 782 c 1,72,73
 1418 821 1418 821 1481 819 c 0,74,75
 1485 819 1485 819 1491 819 c 2,76,-1
 1494 819 l 1,77,-1
 1514 815 l 1,78,79
 1553 803 1553 803 1555 756 c 1,80,-1
 1553 -209 l 1,81,82
 1537 -309 1537 -309 1467 -369 c 1,83,84
 1389 -432 1389 -432 1281 -418 c 0,85,86
 1262 -416 1262 -416 1242 -412 c 1,87,-1
 1240 -412 l 1,88,89
 1166 -393 1166 -393 1119 -346 c 1,90,91
 1029 -252 1029 -252 1016 -172 c 1,92,93
 1008 -139 1008 -139 1008 -78 c 1,94,-1
 1004 -10 l 1,95,-1
 748 -10 l 1,96,97
 676 -12 676 -12 603 -27 c 1,98,99
 547 -41 547 -41 521 -31 c 1,100,101
 504 -27 504 -27 496 -14 c 1,102,103
 482 0 482 0 494 18 c 0,104,105
 500 27 500 27 513 37 c 1,106,-1
 519 45 l 1,107,108
 568 80 568 80 601 141 c 1,109,-1
 603 143 l 1,110,111
 674 258 674 258 658 387 c 0,112,113
 654 412 654 412 648 438 c 0,114,115
 623 535 623 535 553 592 c 1,116,117
 502 625 502 625 474 637 c 1,118,119
 400 662 400 662 328 627 c 1,120,121
 291 606 291 606 257 571 c 1,122,-1
 250 567 l 1,123,124
 199 518 199 518 179 453 c 1,125,126
 140 344 140 344 173 240 c 0,127,128
 189 190 189 190 220 139 c 1,129,-1
 224 131 l 1,130,131
 248 92 248 92 304 45 c 1,132,-1
 306 45 l 1,133,-1
 330 20 l 1,134,135
 338 2 338 2 330 -10 c 1,136,137
 326 -18 326 -18 318 -25 c 1,138,-1
 306 -31 l 1,139,140
 289 -35 289 -35 271 -25 c 1,141,142
 259 -16 259 -16 246 -6 c 1,143,-1
 244 -4 l 1,144,145
 191 41 191 41 146 109 c 1,146,147
 64 242 64 242 84 389 c 0,148,149
 89 420 89 420 97 451 c 0,150,151
 121 555 121 555 199 631 c 1,152,153
 310 733 310 733 463 721 c 1,154,-1
 492 717 l 1,155,-1
 494 717 l 1,156,157
 654 692 654 692 740 563 c 1,158,159
 826 438 826 438 805 289 c 0,160,161
 801 260 801 260 793 231 c 1,162,163
 771 137 771 137 709 66 c 1,164,-1
 1004 66 l 1,16,17
EndSplineSet
EndChar

StartChar: b_ee
Encoding: 3343 3343 111
Width: 2115
GlyphClass: 2
Flags: W
LayerCount: 2
Fore
SplineSet
1078 -10 m 1,0,1
 1078 -164 1078 -164 1133 -248 c 1,2,-1
 1162 -287 l 1,3,4
 1203 -336 1203 -336 1272 -344 c 1,5,6
 1301 -350 1301 -350 1321 -344 c 0,7,8
 1332 -340 1332 -340 1340 -334 c 1,9,10
 1369 -307 1369 -307 1391 -229 c 1,11,12
 1410 -152 1410 -152 1405 -76 c 0,13,14
 1405 -70 1405 -70 1405 -61 c 2,15,-1
 1405 -10 l 1,16,-1
 1078 -10 l 1,0,1
1004 66 m 1,17,18
 1004 373 1004 373 1027 487 c 1,19,-1
 1047 569 l 1,20,21
 1135 881 1135 881 1346 977 c 1,22,23
 1424 1014 1424 1014 1522 1014 c 0,24,25
 1756 1014 1756 1014 1899 852 c 1,26,-1
 1903 846 l 1,27,28
 2020 715 2020 715 2036 532 c 1,29,-1
 2032 418 l 1,30,31
 2012 154 2012 154 1831 35 c 1,32,-1
 1829 33 l 1,33,-1
 1928 -6 l 1,34,35
 1960 -25 1960 -25 1979 -45 c 1,36,37
 2042 -131 2042 -131 2026 -219 c 1,38,39
 2024 -236 2024 -236 2018 -252 c 1,40,41
 2006 -291 2006 -291 1973 -324 c 1,42,43
 1883 -422 1883 -422 1666 -422 c 0,44,45
 1604 -422 1604 -422 1586 -403 c 1,46,47
 1571 -385 1571 -385 1586 -369 c 1,48,49
 1594 -358 1594 -358 1614 -352 c 1,50,-1
 1627 -350 l 1,51,-1
 1723 -338 l 1,52,53
 1887 -291 1887 -291 1889 -178 c 1,54,-1
 1889 -172 l 1,55,56
 1887 -92 1887 -92 1815 -57 c 1,57,-1
 1727 -25 l 1,58,59
 1692 -18 1692 -18 1612 -6 c 1,60,61
 1582 8 1582 8 1582 27 c 1,62,63
 1584 53 1584 53 1627 66 c 1,64,-1
 1686 70 l 1,65,66
 1727 78 1727 78 1772 131 c 1,67,-1
 1774 135 l 1,68,69
 1868 238 1868 238 1887 428 c 1,70,-1
 1887 430 l 1,71,72
 1895 510 1895 510 1879 586 c 0,73,74
 1870 625 1870 625 1858 659 c 0,75,76
 1799 821 1799 821 1670 897 c 0,77,78
 1582 950 1582 950 1479 936 c 1,79,80
 1457 932 1457 932 1432 926 c 1,81,82
 1313 891 1313 891 1233 782 c 1,83,84
 1096 602 1096 602 1080 256 c 1,85,86
 1080 127 1080 127 1078 66 c 1,87,-1
 1405 66 l 1,88,89
 1405 547 1405 547 1408 782 c 1,90,91
 1418 821 1418 821 1481 819 c 0,92,93
 1485 819 1485 819 1491 819 c 2,94,-1
 1494 819 l 1,95,-1
 1514 815 l 1,96,97
 1553 803 1553 803 1555 756 c 1,98,-1
 1553 -209 l 1,99,100
 1537 -315 1537 -315 1467 -373 c 1,101,102
 1389 -436 1389 -436 1278 -424 c 0,103,104
 1260 -422 1260 -422 1242 -418 c 1,105,-1
 1240 -418 l 1,106,107
 1166 -399 1166 -399 1119 -352 c 1,108,109
 1027 -256 1027 -256 1014 -168 c 0,110,111
 1008 -131 1008 -131 1008 -78 c 1,112,-1
 1004 -10 l 1,113,-1
 748 -10 l 1,114,115
 676 -12 676 -12 603 -27 c 1,116,117
 547 -41 547 -41 521 -31 c 1,118,119
 504 -27 504 -27 496 -14 c 1,120,121
 482 0 482 0 494 18 c 0,122,123
 500 27 500 27 513 37 c 1,124,-1
 519 45 l 1,125,126
 568 80 568 80 601 141 c 1,127,-1
 603 143 l 1,128,129
 674 258 674 258 658 387 c 0,130,131
 654 412 654 412 648 438 c 0,132,133
 623 535 623 535 553 592 c 1,134,135
 502 625 502 625 474 637 c 1,136,137
 400 662 400 662 328 627 c 1,138,139
 291 606 291 606 257 571 c 1,140,-1
 250 567 l 1,141,142
 199 518 199 518 179 453 c 1,143,144
 140 344 140 344 173 240 c 0,145,146
 189 190 189 190 220 139 c 1,147,-1
 224 131 l 1,148,149
 248 92 248 92 304 45 c 1,150,-1
 306 45 l 1,151,-1
 330 20 l 1,152,153
 338 2 338 2 330 -10 c 1,154,155
 326 -18 326 -18 318 -25 c 1,156,-1
 306 -31 l 1,157,158
 289 -35 289 -35 271 -25 c 1,159,160
 259 -16 259 -16 246 -6 c 1,161,-1
 244 -4 l 1,162,163
 191 41 191 41 146 109 c 1,164,165
 64 242 64 242 84 389 c 0,166,167
 89 420 89 420 97 451 c 0,168,169
 121 555 121 555 199 631 c 1,170,171
 310 733 310 733 463 721 c 1,172,-1
 492 717 l 1,173,-1
 494 717 l 1,174,175
 654 692 654 692 740 563 c 1,176,177
 826 438 826 438 805 289 c 0,178,179
 801 260 801 260 793 231 c 1,180,181
 771 137 771 137 709 66 c 1,182,-1
 1004 66 l 1,17,18
EndSplineSet
EndChar

StartChar: b_ai
Encoding: 3344 3344 112
Width: 3270
GlyphClass: 2
Flags: W
LayerCount: 2
Fore
SplineSet
2243 -10 m 1,0,1
 2243 -162 2243 -162 2294 -238 c 1,2,-1
 2327 -281 l 2,3,4
 2364 -328 2364 -328 2434 -338 c 1,5,6
 2466 -344 2466 -344 2489 -336 c 0,7,8
 2495 -334 2495 -334 2503 -328 c 0,9,10
 2536 -301 2536 -301 2556 -221 c 1,11,12
 2575 -158 2575 -158 2575 -70 c 1,13,-1
 2573 -10 l 1,14,-1
 2243 -10 l 1,0,1
2167 66 m 1,15,16
 2167 362 2167 362 2188 479 c 1,17,-1
 2204 547 l 2,18,19
 2259 780 2259 780 2409 909 c 0,20,21
 2544 1026 2544 1026 2726 1012 c 1,22,23
 2741 1012 2741 1012 2751 1010 c 0,24,25
 2913 991 2913 991 3017 874 c 0,26,27
 3195 676 3195 676 3191 240 c 0,28,29
 3191 236 3191 236 3191 229 c 2,30,-1
 3187 119 l 1,31,32
 3177 -72 3177 -72 3144 -150 c 1,33,34
 3126 -199 3126 -199 3070 -276 c 1,35,36
 2987 -395 2987 -395 2837 -414 c 1,37,-1
 2806 -416 l 2,38,39
 2751 -420 2751 -420 2724 -408 c 0,40,41
 2712 -403 2712 -403 2704 -393 c 1,42,43
 2696 -373 2696 -373 2712 -360 c 0,44,45
 2720 -354 2720 -354 2735 -348 c 1,46,-1
 2739 -346 l 1,47,48
 2780 -344 2780 -344 2821 -334 c 1,49,50
 2905 -309 2905 -309 2958 -207 c 0,51,52
 3017 -94 3017 -94 3027 23 c 2,53,-1
 3036 129 l 1,54,55
 3046 408 3046 408 3005 590 c 1,56,57
 2982 682 2982 682 2946 748 c 1,58,-1
 2913 803 l 1,59,60
 2821 928 2821 928 2694 938 c 1,61,62
 2597 944 2597 944 2507 885 c 1,63,64
 2454 854 2454 854 2401 782 c 1,65,66
 2257 608 2257 608 2245 262 c 1,67,-1
 2243 66 l 1,68,-1
 2573 66 l 1,69,-1
 2575 743 l 2,70,71
 2575 764 2575 764 2575 782 c 1,72,73
 2581 821 2581 821 2649 819 c 0,74,75
 2653 819 2653 819 2659 819 c 2,76,-1
 2661 819 l 1,77,-1
 2677 815 l 1,78,79
 2718 801 2718 801 2720 756 c 1,80,-1
 2716 -137 l 2,81,82
 2716 -174 2716 -174 2716 -209 c 1,83,84
 2702 -305 2702 -305 2630 -369 c 1,85,86
 2554 -432 2554 -432 2444 -418 c 0,87,88
 2425 -416 2425 -416 2409 -412 c 1,89,-1
 2407 -412 l 1,90,91
 2329 -393 2329 -393 2282 -346 c 0,92,93
 2192 -256 2192 -256 2180 -172 c 1,94,95
 2169 -131 2169 -131 2169 -78 c 1,96,-1
 2167 -10 l 1,97,-1
 1911 -10 l 1,98,99
 1838 -12 1838 -12 1768 -27 c 1,100,101
 1715 -41 1715 -41 1684 -31 c 1,102,103
 1668 -27 1668 -27 1657 -14 c 0,104,105
 1645 0 1645 0 1657 16 c 1,106,107
 1661 27 1661 27 1676 37 c 1,108,-1
 1680 45 l 1,109,110
 1729 78 1729 78 1766 141 c 1,111,-1
 1768 143 l 1,112,113
 1840 262 1840 262 1821 391 c 1,114,115
 1819 414 1819 414 1813 438 c 0,116,117
 1790 530 1790 530 1721 592 c 1,118,119
 1661 627 1661 627 1641 637 c 1,120,121
 1561 662 1561 662 1489 625 c 1,122,123
 1455 606 1455 606 1420 571 c 1,124,-1
 1412 567 l 1,125,126
 1367 518 1367 518 1340 453 c 1,127,128
 1303 344 1303 344 1336 242 c 0,129,130
 1352 190 1352 190 1387 139 c 1,131,-1
 1389 131 l 1,132,133
 1414 92 1414 92 1471 45 c 1,134,-1
 1471 45 l 1,135,-1
 1491 20 l 1,136,137
 1500 2 1500 2 1494 -10 c 0,138,139
 1489 -18 1489 -18 1481 -25 c 1,140,-1
 1471 -31 l 1,141,142
 1455 -35 1455 -35 1434 -23 c 0,143,144
 1422 -16 1422 -16 1410 -6 c 1,145,-1
 1408 -4 l 1,146,147
 1350 43 1350 43 1307 109 c 1,148,149
 1227 242 1227 242 1246 391 c 0,150,151
 1250 420 1250 420 1258 451 c 1,152,153
 1289 555 1289 555 1364 631 c 1,154,155
 1473 733 1473 733 1629 721 c 1,156,-1
 1655 717 l 2,157,158
 1817 692 1817 692 1905 563 c 1,159,160
 1987 436 1987 436 1969 287 c 0,161,162
 1965 260 1965 260 1958 231 c 0,163,164
 1934 137 1934 137 1872 66 c 1,165,-1
 2167 66 l 1,15,16
363 549 m 1,166,167
 257 530 257 530 214 406 c 1,168,169
 193 352 193 352 197 295 c 0,170,171
 197 285 197 285 199 274 c 1,172,173
 201 229 201 229 220 174 c 1,174,175
 252 88 252 88 318 57 c 1,176,-1
 322 57 l 1,177,178
 353 41 353 41 379 43 c 0,179,180
 384 43 384 43 390 45 c 0,181,182
 453 57 453 57 492 139 c 0,183,184
 553 268 553 268 504 416 c 1,185,-1
 498 438 l 1,186,187
 453 549 453 549 375 549 c 2,188,-1
 363 549 l 1,166,167
156 463 m 1,189,190
 166 492 166 492 195 528 c 0,191,192
 246 594 246 594 310 614 c 1,193,-1
 312 614 l 1,194,195
 392 639 392 639 470 616 c 1,196,197
 506 604 506 604 543 580 c 1,198,-1
 545 578 l 1,199,200
 594 545 594 545 621 496 c 1,201,202
 689 379 689 379 672 244 c 0,203,204
 668 213 668 213 660 184 c 0,205,206
 646 129 646 129 615 78 c 1,207,208
 535 -27 535 -27 396 -33 c 0,209,210
 271 -39 271 -39 191 57 c 1,211,-1
 191 57 l 1,212,213
 95 172 95 172 82 393 c 1,214,-1
 82 395 l 1,215,216
 76 512 76 512 89 592 c 0,217,218
 97 635 97 635 107 668 c 0,219,220
 175 872 175 872 343 958 c 1,221,222
 461 1024 461 1024 609 1012 c 0,223,224
 627 1010 627 1010 650 1006 c 0,225,226
 814 981 814 981 932 852 c 1,227,228
 1086 688 1086 688 1065 424 c 1,229,-1
 1061 381 l 1,230,231
 1047 299 1047 299 1027 242 c 1,232,233
 994 131 994 131 924 35 c 1,234,-1
 922 33 l 1,235,236
 902 2 902 2 881 -18 c 1,237,238
 855 -41 855 -41 812 -35 c 1,239,-1
 783 -27 l 1,240,241
 740 -12 740 -12 754 23 c 0,242,243
 758 35 758 35 771 49 c 1,244,-1
 795 78 l 1,245,246
 844 160 844 160 867 209 c 1,247,248
 943 399 943 399 916 563 c 1,249,250
 906 639 906 639 873 709 c 1,251,-1
 838 768 l 1,252,253
 769 868 769 868 668 915 c 1,254,-1
 666 915 l 1,255,256
 566 956 566 956 465 928 c 1,257,258
 416 913 416 913 365 883 c 1,259,-1
 306 838 l 1,260,261
 179 721 179 721 156 532 c 1,262,-1
 154 473 l 1,263,-1
 156 463 l 1,189,190
EndSplineSet
EndChar

StartChar: b_o
Encoding: 3346 3346 114
Width: 1237
GlyphClass: 2
Flags: W
LayerCount: 2
Fore
SplineSet
362 549 m 1,0,1
 258 530 258 530 215 406 c 0,2,3
 194 344 194 344 198 289 c 1,4,5
 200 281 200 281 200 274 c 0,6,7
 202 229 202 229 221 174 c 1,8,9
 253 88 253 88 319 57 c 1,10,-1
 323 57 l 1,11,12
 358 41 358 41 383 43 c 0,13,14
 387 43 387 43 391 45 c 1,15,16
 454 57 454 57 493 139 c 1,17,18
 559 268 559 268 505 416 c 1,19,-1
 499 438 l 1,20,21
 454 549 454 549 376 549 c 2,22,-1
 362 549 l 1,0,1
157 463 m 1,23,24
 178 532 178 532 260 590 c 1,25,-1
 280 602 l 1,26,27
 352 637 352 637 430 625 c 0,28,29
 469 618 469 618 512 600 c 1,30,-1
 538 584 l 2,31,32
 649 516 649 516 667 360 c 1,33,-1
 667 358 l 1,34,35
 684 256 684 256 657 170 c 0,36,37
 643 127 643 127 618 86 c 1,38,39
 548 -18 548 -18 413 -31 c 0,40,41
 358 -37 358 -37 307 -23 c 1,42,43
 282 -14 282 -14 260 -2 c 0,44,45
 131 70 131 70 98 291 c 1,46,-1
 98 295 l 1,47,48
 43 578 43 578 155 764 c 1,49,50
 213 858 213 858 311 926 c 1,51,-1
 346 946 l 1,52,53
 514 1044 514 1044 710 1006 c 1,54,55
 792 985 792 985 849 954 c 0,56,57
 917 918 917 918 958 864 c 1,58,59
 1040 772 1040 772 1024 662 c 0,60,61
 1021 647 1021 647 1017 633 c 0,62,63
 1003 592 1003 592 1003 590 c 0,64,65
 989 551 989 551 946 506 c 1,66,-1
 944 504 l 1,67,68
 1179 401 1179 401 1155 213 c 0,69,70
 1153 201 1153 201 1151 186 c 1,71,72
 1140 152 1140 152 1124 119 c 1,73,74
 1050 -2 1050 -2 890 -27 c 1,75,-1
 831 -33 l 1,76,77
 745 -33 745 -33 708 -2 c 0,78,79
 690 14 690 14 696 37 c 0,80,81
 698 43 698 43 702 49 c 0,82,83
 712 61 712 61 720 66 c 1,84,85
 739 66 739 66 782 51 c 1,86,-1
 786 49 l 1,87,88
 804 43 804 43 829 43 c 1,89,-1
 854 47 l 1,90,91
 948 66 948 66 989 166 c 1,92,93
 1015 225 1015 225 1005 283 c 1,94,95
 999 309 999 309 985 336 c 1,96,97
 935 424 935 424 823 446 c 1,98,-1
 735 457 l 1,99,100
 710 469 710 469 704 487 c 0,101,102
 702 496 702 496 710 506 c 0,103,104
 714 510 714 510 722 516 c 1,105,-1
 727 518 l 1,106,-1
 776 530 l 1,107,-1
 784 530 l 1,108,109
 804 537 804 537 827 557 c 1,110,111
 890 618 890 618 874 713 c 1,112,113
 874 733 874 733 866 756 c 0,114,115
 845 813 845 813 802 856 c 0,116,117
 677 977 677 977 485 922 c 0,118,119
 360 887 360 887 276 793 c 0,120,121
 155 659 155 659 155 467 c 2,122,-1
 155 463 l 1,123,-1
 157 463 l 1,23,24
EndSplineSet
EndChar

StartChar: b_oo
Encoding: 3347 3347 115
Width: 2112
GlyphClass: 2
Flags: W
LayerCount: 2
Fore
SplineSet
1614 1012 m 1,0,1
 1702 1026 1702 1026 1784 993 c 0,2,3
 1821 979 1821 979 1860 950 c 2,4,-1
 1881 934 l 1,5,6
 2036 797 2036 797 2032 487 c 1,7,-1
 2032 479 l 1,8,-1
 2032 414 l 1,9,10
 2018 207 2018 207 1911 82 c 0,11,12
 1817 -27 1817 -27 1686 -33 c 1,13,14
 1549 -37 1549 -37 1453 31 c 1,15,16
 1401 63 1401 63 1367 115 c 1,17,18
 1326 172 1326 172 1311 225 c 1,19,-1
 1311 229 l 1,20,21
 1305 256 1305 256 1317 270 c 0,22,23
 1324 279 1324 279 1336 283 c 0,24,25
 1352 289 1352 289 1364 283 c 0,26,27
 1373 279 1373 279 1379 268 c 1,28,-1
 1393 229 l 1,29,30
 1434 119 1434 119 1541 68 c 1,31,32
 1590 41 1590 41 1641 43 c 1,33,34
 1645 45 1645 45 1651 45 c 0,35,36
 1770 45 1770 45 1846 231 c 1,37,38
 1899 381 1899 381 1885 557 c 0,39,40
 1881 608 1881 608 1870 659 c 0,41,42
 1825 864 1825 864 1711 924 c 1,43,-1
 1686 932 l 2,44,45
 1627 950 1627 950 1559 922 c 0,46,47
 1526 909 1526 909 1489 885 c 1,48,-1
 1485 881 l 1,49,-1
 1444 842 l 1,50,51
 1412 795 1412 795 1395 760 c 1,52,-1
 1381 713 l 1,53,54
 1369 690 1369 690 1344 694 c 2,55,-1
 1334 696 l 1,56,57
 1299 709 1299 709 1311 758 c 1,58,59
 1319 786 1319 786 1340 823 c 1,60,61
 1418 977 1418 977 1594 1008 c 1,62,-1
 1614 1012 l 1,0,1
363 549 m 1,63,64
 259 530 259 530 216 406 c 0,65,66
 195 344 195 344 199 289 c 1,67,68
 201 281 201 281 201 274 c 0,69,70
 203 229 203 229 222 174 c 1,71,72
 254 88 254 88 320 57 c 1,73,-1
 324 57 l 1,74,75
 359 41 359 41 384 43 c 0,76,77
 388 43 388 43 392 45 c 1,78,79
 455 57 455 57 494 139 c 0,80,81
 541 238 541 238 527 342 c 1,82,83
 521 379 521 379 506 416 c 1,84,-1
 500 438 l 1,85,86
 455 549 455 549 377 549 c 2,87,-1
 363 549 l 1,63,64
158 463 m 1,88,89
 179 532 179 532 261 590 c 1,90,-1
 281 602 l 1,91,92
 353 637 353 637 431 625 c 0,93,94
 470 618 470 618 513 600 c 1,95,-1
 539 584 l 2,96,97
 650 516 650 516 668 360 c 1,98,-1
 668 358 l 1,99,100
 685 256 685 256 658 170 c 0,101,102
 644 127 644 127 619 86 c 1,103,104
 549 -18 549 -18 414 -31 c 0,105,106
 359 -37 359 -37 308 -23 c 1,107,108
 283 -14 283 -14 261 -2 c 0,109,110
 132 70 132 70 99 291 c 1,111,-1
 99 293 l 1,112,-1
 99 295 l 1,113,114
 74 426 74 426 82 528 c 1,115,116
 87 569 87 569 97 610 c 1,117,118
 140 807 140 807 312 926 c 1,119,-1
 347 946 l 1,120,121
 515 1044 515 1044 711 1006 c 1,122,123
 793 985 793 985 848 954 c 1,124,125
 916 920 916 920 959 864 c 1,126,127
 1041 772 1041 772 1025 662 c 0,128,129
 1022 647 1022 647 1018 633 c 2,130,-1
 1004 590 l 1,131,132
 990 551 990 551 947 506 c 1,133,-1
 945 504 l 1,134,135
 1053 455 1053 455 1098 399 c 1,136,137
 1170 319 1170 319 1156 213 c 1,138,139
 1156 201 1156 201 1152 186 c 0,140,141
 1141 152 1141 152 1125 119 c 1,142,143
 1051 -2 1051 -2 891 -27 c 1,144,-1
 832 -33 l 1,145,146
 746 -33 746 -33 709 -2 c 0,147,148
 691 14 691 14 697 37 c 0,149,150
 699 43 699 43 703 49 c 1,151,152
 707 59 707 59 721 66 c 1,153,154
 740 66 740 66 783 51 c 1,155,-1
 787 49 l 1,156,157
 805 43 805 43 830 43 c 1,158,-1
 855 47 l 1,159,160
 949 66 949 66 990 166 c 1,161,162
 1016 225 1016 225 1006 283 c 1,163,164
 1000 309 1000 309 986 336 c 1,165,166
 936 424 936 424 824 446 c 1,167,-1
 736 457 l 1,168,169
 711 469 711 469 705 487 c 0,170,171
 703 496 703 496 709 506 c 1,172,173
 715 510 715 510 723 516 c 1,174,-1
 728 518 l 1,175,-1
 777 530 l 1,176,-1
 785 530 l 1,177,178
 805 537 805 537 828 557 c 1,179,180
 891 618 891 618 875 713 c 1,181,182
 875 733 875 733 867 756 c 0,183,184
 846 813 846 813 803 856 c 0,185,186
 678 977 678 977 486 922 c 0,187,188
 361 887 361 887 277 793 c 0,189,190
 156 659 156 659 156 467 c 2,191,-1
 156 465 l 1,192,-1
 156 463 l 1,193,-1
 158 463 l 1,88,89
EndSplineSet
EndChar

StartChar: b_ou
Encoding: 3348 3348 116
Width: 2338
GlyphClass: 2
Flags: W
LayerCount: 2
Fore
SplineSet
1764 881 m 1,0,1
 1776 920 1776 920 1813 946 c 1,2,3
 1891 1026 1891 1026 1999 1012 c 0,4,5
 2012 1010 2012 1010 2026 1008 c 0,6,7
 2122 989 2122 989 2176 918 c 1,8,9
 2235 836 2235 836 2251 678 c 1,10,11
 2270 504 2270 504 2239 373 c 1,12,13
 2221 303 2221 303 2190 246 c 1,14,15
 2075 23 2075 23 1842 -23 c 1,16,-1
 1838 -25 l 1,17,18
 1752 -41 1752 -41 1711 -31 c 1,19,-1
 1686 -18 l 2,20,21
 1680 -14 1680 -14 1678 -10 c 0,22,23
 1664 8 1664 8 1678 20 c 1,24,25
 1684 29 1684 29 1700 35 c 1,26,-1
 1715 37 l 1,27,-1
 1801 49 l 1,28,29
 1899 74 1899 74 1975 160 c 1,30,-1
 1977 160 l 1,31,32
 2135 340 2135 340 2108 629 c 1,33,-1
 2100 692 l 1,34,35
 2071 905 2071 905 1983 932 c 1,36,37
 1948 944 1948 944 1911 926 c 0,38,39
 1854 897 1854 897 1817 815 c 1,40,41
 1811 795 1811 795 1813 752 c 1,42,-1
 1817 700 l 1,43,-1
 1819 678 l 1,44,-1
 1817 426 l 2,45,46
 1817 401 1817 401 1815 381 c 1,47,48
 1799 352 1799 352 1747 352 c 0,49,50
 1692 352 1692 352 1676 381 c 1,51,-1
 1672 424 l 1,52,-1
 1672 518 l 2,53,54
 1672 717 1672 717 1645 801 c 1,55,-1
 1639 823 l 1,56,57
 1594 915 1594 915 1543 934 c 1,58,59
 1500 948 1500 948 1459 922 c 0,60,61
 1436 907 1436 907 1414 883 c 1,62,-1
 1412 881 l 1,63,-1
 1401 864 l 1,64,65
 1326 758 1326 758 1350 616 c 0,66,67
 1358 565 1358 565 1379 512 c 1,68,-1
 1432 395 l 1,69,70
 1434 377 1434 377 1422 365 c 1,71,72
 1414 360 1414 360 1403 356 c 0,73,74
 1391 352 1391 352 1383 356 c 0,75,76
 1377 358 1377 358 1373 362 c 0,77,78
 1332 393 1332 393 1301 496 c 1,79,-1
 1301 498 l 1,80,-1
 1301 504 l 1,81,82
 1258 631 1258 631 1272 737 c 1,83,84
 1281 795 1281 795 1301 846 c 0,85,86
 1336 932 1336 932 1403 977 c 0,87,88
 1477 1028 1477 1028 1569 1014 c 0,89,90
 1594 1010 1594 1010 1623 999 c 1,91,92
 1672 983 1672 983 1702 952 c 1,93,94
 1747 913 1747 913 1758 881 c 1,95,-1
 1764 881 l 1,0,1
363 549 m 1,96,97
 259 530 259 530 216 406 c 0,98,99
 195 344 195 344 199 289 c 1,100,101
 201 281 201 281 201 274 c 0,102,103
 203 229 203 229 222 174 c 1,104,105
 254 88 254 88 320 57 c 1,106,-1
 324 57 l 1,107,108
 359 41 359 41 384 43 c 0,109,110
 388 43 388 43 392 45 c 1,111,112
 455 57 455 57 494 139 c 0,113,114
 541 238 541 238 527 342 c 1,115,116
 521 379 521 379 506 416 c 1,117,-1
 500 438 l 1,118,119
 455 549 455 549 377 549 c 2,120,-1
 363 549 l 1,96,97
158 463 m 1,121,122
 179 532 179 532 261 590 c 1,123,-1
 281 602 l 1,124,125
 353 637 353 637 431 625 c 0,126,127
 470 618 470 618 513 600 c 1,128,-1
 539 584 l 2,129,130
 650 516 650 516 668 360 c 1,131,-1
 668 358 l 1,132,133
 685 256 685 256 658 170 c 0,134,135
 644 127 644 127 619 86 c 1,136,137
 549 -18 549 -18 414 -31 c 0,138,139
 359 -37 359 -37 308 -23 c 1,140,141
 283 -14 283 -14 261 -2 c 0,142,143
 132 70 132 70 99 291 c 1,144,-1
 99 293 l 1,145,-1
 99 295 l 1,146,147
 74 426 74 426 82 528 c 1,148,149
 87 569 87 569 97 610 c 1,150,151
 140 807 140 807 312 926 c 1,152,-1
 347 946 l 1,153,154
 515 1044 515 1044 711 1006 c 1,155,156
 793 985 793 985 848 954 c 1,157,158
 916 920 916 920 959 864 c 1,159,160
 1041 772 1041 772 1025 662 c 0,161,162
 1022 647 1022 647 1018 633 c 2,163,-1
 1004 590 l 1,164,165
 990 551 990 551 947 506 c 1,166,-1
 945 504 l 1,167,168
 1053 455 1053 455 1098 399 c 1,169,170
 1170 319 1170 319 1156 213 c 1,171,172
 1156 201 1156 201 1152 186 c 0,173,174
 1141 152 1141 152 1125 119 c 1,175,176
 1051 -2 1051 -2 891 -27 c 1,177,-1
 832 -33 l 1,178,179
 746 -33 746 -33 709 -2 c 0,180,181
 691 14 691 14 697 37 c 0,182,183
 699 43 699 43 703 49 c 1,184,185
 707 59 707 59 721 66 c 1,186,187
 740 66 740 66 783 51 c 1,188,-1
 787 49 l 1,189,190
 805 43 805 43 830 43 c 1,191,-1
 855 47 l 1,192,193
 949 66 949 66 990 166 c 1,194,195
 1016 225 1016 225 1006 283 c 1,196,197
 1000 309 1000 309 986 336 c 1,198,199
 936 424 936 424 824 446 c 1,200,-1
 736 457 l 1,201,202
 711 469 711 469 705 487 c 0,203,204
 703 496 703 496 709 506 c 1,205,206
 715 510 715 510 723 516 c 1,207,-1
 728 518 l 1,208,-1
 777 530 l 1,209,-1
 785 530 l 1,210,211
 805 537 805 537 828 557 c 1,212,213
 891 618 891 618 875 713 c 1,214,215
 875 733 875 733 867 756 c 0,216,217
 846 813 846 813 803 856 c 0,218,219
 678 977 678 977 486 922 c 0,220,221
 361 887 361 887 277 793 c 0,222,223
 156 659 156 659 156 467 c 2,224,-1
 156 465 l 1,225,-1
 156 463 l 1,226,-1
 158 463 l 1,121,122
EndSplineSet
EndChar

StartChar: b_ka
Encoding: 3349 3349 117
Width: 1711
GlyphClass: 2
Flags: W
LayerCount: 2
Fore
SplineSet
631 573 m 1,0,-1
 1045 573 l 1,1,2
 1039 739 1039 739 971 852 c 0,3,4
 924 930 924 930 857 938 c 1,5,-1
 855 938 l 1,6,7
 797 942 797 942 752 903 c 1,8,9
 728 885 728 885 705 854 c 1,10,-1
 703 852 l 1,11,12
 644 758 644 758 631 573 c 1,0,-1
553 498 m 1,13,-1
 435 500 l 1,14,-1
 422 500 l 1,15,-1
 367 489 l 1,16,17
 252 446 252 446 232 311 c 0,18,19
 226 264 226 264 234 219 c 1,20,21
 236 199 236 199 244 174 c 0,22,23
 289 37 289 37 404 45 c 1,24,-1
 412 45 l 1,25,26
 545 63 545 63 586 147 c 1,27,-1
 596 178 l 1,28,-1
 588 221 l 1,29,30
 553 354 553 354 553 496 c 2,31,-1
 553 498 l 1,13,-1
631 500 m 1,32,33
 631 430 631 430 635 395 c 0,34,35
 654 221 654 221 703 137 c 1,36,37
 756 49 756 49 838 45 c 1,38,-1
 877 45 l 1,39,40
 943 63 943 63 982 156 c 1,41,-1
 988 160 l 1,42,43
 1045 295 1045 295 1045 496 c 2,44,-1
 1045 500 l 1,45,-1
 631 500 l 1,32,33
553 573 m 1,46,47
 553 805 553 805 674 932 c 2,48,-1
 691 950 l 1,49,-1
 726 979 l 1,50,51
 803 1030 803 1030 900 1014 c 0,52,53
 928 1010 928 1010 959 999 c 0,54,55
 998 985 998 985 1022 969 c 1,56,-1
 1059 942 l 1,57,58
 1190 821 1190 821 1190 580 c 2,59,-1
 1190 573 l 1,60,-1
 1330 578 l 1,61,62
 1332 573 1332 573 1338 573 c 0,63,64
 1504 551 1504 551 1584 432 c 1,65,-1
 1594 414 l 1,66,67
 1641 322 1641 322 1629 223 c 1,68,69
 1623 186 1623 186 1608 147 c 0,70,71
 1571 53 1571 53 1489 6 c 0,72,73
 1401 -45 1401 -45 1326 -33 c 0,74,75
 1309 -31 1309 -31 1295 -25 c 1,76,-1
 1293 -25 l 1,77,78
 1256 -12 1256 -12 1227 18 c 0,79,80
 1199 47 1199 47 1221 78 c 1,81,-1
 1227 82 l 1,82,83
 1252 100 1252 100 1289 70 c 1,84,-1
 1291 68 l 1,85,-1
 1321 47 l 1,86,87
 1348 39 1348 39 1377 55 c 0,88,89
 1391 63 1391 63 1408 80 c 0,90,91
 1487 156 1487 156 1481 281 c 1,92,93
 1479 287 1479 287 1479 295 c 0,94,95
 1465 414 1465 414 1377 473 c 1,96,97
 1330 502 1330 502 1215 500 c 1,98,-1
 1209 500 l 1,99,-1
 1190 500 l 1,100,-1
 1186 381 l 1,101,102
 1166 158 1166 158 1082 59 c 1,103,-1
 1059 37 l 1,104,105
 975 -41 975 -41 852 -35 c 1,106,107
 846 -33 846 -33 838 -33 c 0,108,109
 769 -27 769 -27 715 8 c 2,110,-1
 703 16 l 1,111,112
 658 57 658 57 646 90 c 1,113,114
 576 10 576 10 498 -14 c 0,115,116
 392 -47 392 -47 302 -27 c 0,117,118
 257 -16 257 -16 214 10 c 1,119,-1
 185 31 l 1,120,121
 80 117 80 117 80 264 c 2,122,-1
 80 266 l 2,123,124
 80 463 80 463 269 545 c 1,125,-1
 271 547 l 1,126,127
 336 575 336 575 494 573 c 0,128,129
 502 573 502 573 508 573 c 2,130,-1
 553 573 l 1,46,47
EndSplineSet
EndChar

StartChar: b_kha
Encoding: 3350 3350 118
Width: 1761
GlyphClass: 2
Flags: W
LayerCount: 2
Fore
SplineSet
363 549 m 1,0,1
 259 530 259 530 216 406 c 1,2,3
 195 352 195 352 199 295 c 0,4,5
 199 285 199 285 201 274 c 1,6,7
 205 219 205 219 222 174 c 0,8,9
 254 88 254 88 320 57 c 1,10,-1
 324 57 l 1,11,12
 355 41 355 41 381 43 c 0,13,14
 388 43 388 43 392 45 c 1,15,16
 453 57 453 57 494 139 c 0,17,18
 558 268 558 268 506 416 c 1,19,-1
 500 438 l 1,20,21
 455 549 455 549 377 549 c 2,22,-1
 363 549 l 1,0,1
158 463 m 1,23,24
 179 535 179 535 259 590 c 1,25,-1
 285 602 l 1,26,27
 357 637 357 637 433 623 c 0,28,29
 470 616 470 616 510 598 c 1,30,-1
 560 569 l 1,31,32
 676 477 676 477 676 303 c 1,33,34
 678 219 678 219 646 147 c 1,35,36
 617 59 617 59 547 16 c 1,37,-1
 545 14 l 1,38,39
 453 -47 453 -47 355 -33 c 0,40,41
 332 -29 332 -29 310 -23 c 0,42,43
 240 -2 240 -2 191 57 c 0,44,45
 105 162 105 162 87 352 c 1,46,47
 60 588 60 588 140 748 c 1,48,49
 181 827 181 827 248 889 c 1,50,-1
 263 905 l 1,51,52
 408 1028 408 1028 605 1012 c 0,53,54
 619 1010 619 1010 637 1008 c 0,55,56
 766 989 766 989 873 911 c 1,57,58
 969 831 969 831 1022 717 c 0,59,60
 1090 569 1090 569 1068 401 c 1,61,62
 1057 326 1057 326 1029 244 c 1,63,-1
 1029 242 l 1,64,65
 1002 147 1002 147 945 66 c 1,66,-1
 1539 66 l 1,67,-1
 1539 909 l 1,68,-1
 1541 963 l 1,69,70
 1565 995 1565 995 1620 989 c 0,71,72
 1629 989 1629 989 1637 987 c 1,73,-1
 1655 979 l 2,74,75
 1682 967 1682 967 1682 924 c 2,76,-1
 1682 61 l 2,77,78
 1682 20 1682 20 1670 8 c 1,79,-1
 1670 6 l 1,80,81
 1647 -10 1647 -10 1594 -10 c 2,82,-1
 965 -10 l 1,83,84
 867 -27 867 -27 816 -33 c 1,85,-1
 809 -33 l 2,86,87
 762 -33 762 -33 750 -4 c 1,88,89
 748 8 748 8 762 33 c 1,90,91
 771 43 771 43 781 57 c 1,92,-1
 787 61 l 1,93,94
 912 242 912 242 922 467 c 1,95,96
 924 588 924 588 881 690 c 0,97,98
 861 737 861 737 830 782 c 1,99,100
 728 922 728 922 574 938 c 1,101,-1
 568 938 l 1,102,103
 467 944 467 944 379 893 c 1,104,105
 336 866 336 866 295 825 c 1,106,-1
 248 774 l 1,107,108
 154 649 154 649 154 467 c 2,109,-1
 154 463 l 1,110,-1
 158 463 l 1,23,24
EndSplineSet
EndChar

StartChar: b_ga
Encoding: 3351 3351 119
Width: 1642
GlyphClass: 2
Flags: W
LayerCount: 2
Fore
SplineSet
457 1012 m 1,0,1
 480 1018 480 1018 492 1004 c 1,2,3
 500 997 500 997 504 987 c 1,4,5
 515 969 515 969 498 946 c 1,6,-1
 455 928 l 1,7,8
 320 874 320 874 238 756 c 1,9,-1
 238 754 l 1,10,11
 136 602 136 602 158 412 c 0,12,13
 162 383 162 383 168 352 c 1,14,15
 236 98 236 98 406 49 c 0,16,17
 431 41 431 41 455 43 c 0,18,19
 465 43 465 43 478 45 c 0,20,21
 619 57 619 57 699 242 c 1,22,23
 742 344 742 344 748 473 c 2,24,-1
 754 586 l 1,25,26
 781 821 781 821 934 938 c 1,27,-1
 936 940 l 1,28,29
 994 983 994 983 1072 1004 c 1,30,-1
 1082 1006 l 1,31,32
 1326 1061 1326 1061 1467 844 c 1,33,34
 1504 776 1504 776 1526 713 c 0,35,36
 1580 553 1580 553 1555 403 c 1,37,38
 1541 328 1541 328 1506 254 c 1,39,40
 1410 59 1410 59 1213 -25 c 1,41,-1
 1192 -31 l 1,42,-1
 1160 -31 l 1,43,-1
 1152 -27 l 2,44,45
 1129 -16 1129 -16 1133 6 c 1,46,47
 1135 10 1135 10 1137 16 c 1,48,-1
 1137 20 l 1,49,-1
 1139 25 l 1,50,51
 1147 37 1147 37 1180 49 c 0,52,53
 1307 98 1307 98 1395 221 c 1,54,55
 1502 365 1502 365 1479 553 c 0,56,57
 1475 582 1475 582 1471 614 c 1,58,-1
 1471 616 l 1,59,60
 1418 860 1418 860 1250 926 c 1,61,-1
 1248 926 l 1,62,63
 1211 940 1211 940 1170 938 c 0,64,65
 1025 930 1025 930 943 737 c 1,66,67
 898 625 898 625 896 532 c 1,68,-1
 891 408 l 1,69,70
 857 139 857 139 687 27 c 1,71,72
 619 -14 619 -14 558 -25 c 0,73,74
 390 -57 390 -57 273 31 c 1,75,76
 214 74 214 74 168 147 c 1,77,78
 128 215 128 215 105 307 c 0,79,80
 52 514 52 514 111 680 c 0,81,82
 140 762 140 762 197 836 c 1,83,84
 306 965 306 965 453 1010 c 1,85,-1
 455 1012 l 1,86,-1
 457 1012 l 1,0,1
EndSplineSet
EndChar

StartChar: b_gha
Encoding: 3352 3352 120
Width: 2507
GlyphClass: 2
Flags: W
LayerCount: 2
Fore
SplineSet
1024 453 m 1,0,-1
 1703 453 l 1,1,2
 1675 692 1675 692 1593 803 c 1,3,-1
 1568 836 l 1,4,5
 1478 934 1478 934 1343 938 c 1,6,-1
 1341 938 l 1,7,8
 1187 934 1187 934 1085 729 c 1,9,10
 1050 651 1050 651 1024 453 c 1,0,-1
876 377 m 1,11,-1
 725 377 l 2,12,13
 639 377 639 377 571 362 c 1,14,-1
 567 362 l 1,15,-1
 538 356 l 1,16,17
 485 348 485 348 460 362 c 0,18,19
 448 369 448 369 446 381 c 1,20,21
 442 393 442 393 452 412 c 1,22,23
 458 418 458 418 466 428 c 0,24,25
 509 475 509 475 532 518 c 1,26,27
 583 629 583 629 567 729 c 0,28,29
 561 762 561 762 548 793 c 1,30,31
 530 846 530 846 485 885 c 1,32,-1
 479 889 l 1,33,34
 454 915 454 915 421 930 c 1,35,-1
 417 932 l 1,36,37
 348 956 348 956 282 915 c 1,38,39
 256 897 256 897 225 864 c 1,40,-1
 223 862 l 1,41,42
 186 815 186 815 167 758 c 1,43,-1
 167 756 l 1,44,45
 141 664 141 664 174 575 c 0,46,47
 190 532 190 532 219 487 c 1,48,-1
 276 420 l 2,49,50
 292 401 292 401 288 385 c 1,51,52
 284 375 284 375 276 365 c 1,53,54
 260 348 260 348 237 356 c 1,55,-1
 210 373 l 1,56,57
 108 457 108 457 86 618 c 1,58,59
 69 721 69 721 102 807 c 1,60,61
 114 848 114 848 141 885 c 1,62,63
 190 956 190 956 260 987 c 1,64,65
 346 1028 346 1028 438 1012 c 1,66,67
 485 1001 485 1001 534 979 c 0,68,69
 614 944 614 944 661 864 c 1,70,71
 733 756 733 756 710 625 c 0,72,73
 702 575 702 575 684 524 c 1,74,-1
 649 453 l 1,75,-1
 876 453 l 1,76,77
 882 700 882 700 1015 862 c 1,78,-1
 1028 874 l 1,79,80
 1148 1008 1148 1008 1327 1014 c 0,81,82
 1447 1018 1447 1018 1538 961 c 1,83,84
 1581 932 1581 932 1622 887 c 0,85,86
 1740 760 1740 760 1771 524 c 1,87,88
 1781 473 1781 473 1781 432 c 0,89,90
 1781 399 1781 399 1765 387 c 1,91,92
 1757 377 1757 377 1703 377 c 2,93,-1
 1024 377 l 1,94,-1
 1024 66 l 1,95,-1
 2281 66 l 1,96,-1
 2283 911 l 2,97,98
 2283 936 2283 936 2283 958 c 1,99,100
 2299 981 2299 981 2328 987 c 1,101,102
 2379 995 2379 995 2404 981 c 1,103,104
 2416 973 2416 973 2422 958 c 1,105,-1
 2428 952 l 1,106,-1
 2428 82 l 1,107,-1
 2424 20 l 1,108,-1
 2422 14 l 1,109,110
 2410 -10 2410 -10 2334 -10 c 2,111,-1
 989 -10 l 2,112,113
 923 -10 923 -10 899 0 c 1,114,-1
 895 4 l 1,115,-1
 888 6 l 1,116,117
 874 20 874 20 876 82 c 0,118,119
 876 86 876 86 876 92 c 2,120,-1
 876 377 l 1,11,-1
EndSplineSet
EndChar

StartChar: b_nga
Encoding: 3353 3353 121
Width: 1762
GlyphClass: 2
Flags: W
LayerCount: 2
Fore
SplineSet
363 549 m 1,0,1
 257 530 257 530 214 406 c 1,2,3
 193 352 193 352 197 295 c 0,4,5
 197 285 197 285 199 274 c 1,6,7
 201 229 201 229 220 174 c 1,8,9
 252 88 252 88 318 57 c 1,10,-1
 322 57 l 1,11,12
 357 41 357 41 381 43 c 0,13,14
 386 43 386 43 390 45 c 1,15,16
 453 57 453 57 492 139 c 0,17,18
 553 268 553 268 504 416 c 1,19,-1
 498 438 l 1,20,21
 453 549 453 549 375 549 c 2,22,-1
 363 549 l 1,0,1
156 463 m 1,23,24
 166 492 166 492 195 528 c 0,25,26
 246 594 246 594 310 614 c 1,27,-1
 312 614 l 1,28,29
 392 639 392 639 470 616 c 1,30,31
 506 604 506 604 543 580 c 1,32,-1
 545 578 l 1,33,34
 594 545 594 545 621 496 c 1,35,36
 691 375 691 375 672 244 c 0,37,38
 668 215 668 215 660 188 c 1,39,40
 646 127 646 127 609 78 c 1,41,42
 533 -33 533 -33 392 -33 c 1,43,44
 302 -35 302 -35 242 10 c 1,45,46
 209 33 209 33 187 66 c 1,47,48
 99 176 99 176 82 397 c 1,49,-1
 82 399 l 1,50,51
 70 578 70 578 119 711 c 0,52,53
 144 780 144 780 187 836 c 1,54,-1
 189 838 l 1,55,56
 248 934 248 934 349 977 c 1,57,58
 480 1040 480 1040 611 1006 c 1,59,60
 676 987 676 987 740 946 c 1,61,62
 812 897 812 897 883 766 c 1,63,64
 883 758 883 758 885 756 c 1,65,66
 902 807 902 807 955 864 c 1,67,68
 1022 954 1022 954 1129 993 c 0,69,70
 1231 1030 1231 1030 1336 1012 c 1,71,72
 1389 1001 1389 1001 1446 979 c 1,73,74
 1522 948 1522 948 1575 893 c 1,75,76
 1649 813 1649 813 1637 700 c 0,77,78
 1635 684 1635 684 1631 666 c 1,79,80
 1614 610 1614 610 1586 571 c 1,81,82
 1551 516 1551 516 1510 500 c 1,83,-1
 1510 492 l 1,84,85
 1537 485 1537 485 1575 455 c 1,86,87
 1686 375 1686 375 1682 236 c 0,88,89
 1680 152 1680 152 1631 86 c 1,90,91
 1534 -39 1534 -39 1346 -35 c 1,92,93
 1264 -35 1264 -35 1186 0 c 1,94,95
 1162 8 1162 8 1141 25 c 1,96,97
 1127 43 1127 43 1129 59 c 0,98,99
 1131 68 1131 68 1139 78 c 1,100,-1
 1141 78 l 1,101,102
 1152 88 1152 88 1168 88 c 1,103,-1
 1215 74 l 1,104,-1
 1215 74 l 1,105,106
 1295 33 1295 33 1364 41 c 0,107,108
 1379 43 1379 43 1389 45 c 1,109,-1
 1395 45 l 1,110,111
 1479 66 1479 66 1518 162 c 1,112,-1
 1520 166 l 2,113,114
 1537 199 1537 199 1537 242 c 0,115,116
 1537 348 1537 348 1455 410 c 1,117,-1
 1453 412 l 1,118,119
 1405 453 1405 453 1301 453 c 2,120,-1
 1178 453 l 2,121,122
 1143 453 1143 453 1137 477 c 0,123,124
 1127 514 1127 514 1156 526 c 1,125,-1
 1158 526 l 1,126,-1
 1250 528 l 1,127,-1
 1254 528 l 2,128,129
 1346 528 1346 528 1362 535 c 1,130,-1
 1364 535 l 1,131,-1
 1397 549 l 1,132,133
 1485 608 1485 608 1487 719 c 1,134,-1
 1487 721 l 2,135,136
 1487 799 1487 799 1444 850 c 1,137,-1
 1414 883 l 1,138,139
 1387 907 1387 907 1346 920 c 1,140,141
 1248 958 1248 958 1154 918 c 1,142,143
 1106 899 1106 899 1059 860 c 1,144,145
 957 772 957 772 924 651 c 1,146,-1
 928 602 l 1,147,148
 941 537 941 537 934 242 c 1,149,-1
 934 49 l 2,150,151
 934 25 934 25 932 -4 c 1,152,153
 920 -35 920 -35 863 -35 c 0,154,155
 822 -35 822 -35 803 -18 c 1,156,-1
 795 -10 l 1,157,158
 789 2 789 2 789 37 c 2,159,-1
 789 520 l 1,160,161
 773 735 773 735 666 856 c 1,162,163
 619 911 619 911 558 930 c 0,164,165
 484 952 484 952 408 920 c 0,166,167
 367 903 367 903 328 874 c 1,168,-1
 283 836 l 1,169,170
 154 696 154 696 154 467 c 2,171,-1
 154 463 l 1,172,-1
 156 463 l 1,23,24
EndSplineSet
EndChar

StartChar: b_ca
Encoding: 3354 3354 122
Width: 1846
GlyphClass: 2
Flags: W
LayerCount: 2
Fore
SplineSet
1618 66 m 1,0,-1
 1618 907 l 1,1,-1
 1620 958 l 1,2,3
 1641 995 1641 995 1696 991 c 1,4,5
 1702 989 1702 989 1709 989 c 1,6,7
 1750 983 1750 983 1762 958 c 1,8,-1
 1766 905 l 1,9,-1
 1766 61 l 2,10,11
 1766 12 1766 12 1747 4 c 1,12,13
 1725 -12 1725 -12 1651 -10 c 1,14,-1
 1639 -10 l 1,15,-1
 117 -12 l 1,16,-1
 111 -10 l 1,17,18
 78 -4 78 -4 80 31 c 0,19,20
 82 55 82 55 107 66 c 1,21,-1
 441 66 l 2,22,23
 558 66 558 66 596 78 c 1,24,25
 738 115 738 115 799 223 c 1,26,-1
 801 225 l 1,27,28
 846 303 846 303 832 393 c 0,29,30
 824 438 824 438 801 487 c 0,31,32
 760 578 760 578 685 618 c 1,33,-1
 662 631 l 1,34,35
 584 664 584 664 508 633 c 1,36,37
 470 614 470 614 433 580 c 0,38,39
 365 518 365 518 340 434 c 0,40,41
 328 391 328 391 328 352 c 2,42,-1
 328 350 l 1,43,-1
 326 283 l 1,44,45
 318 254 318 254 281 258 c 1,46,47
 254 268 254 268 252 307 c 1,48,-1
 252 313 l 2,49,50
 252 401 252 401 269 451 c 1,51,52
 306 606 306 606 443 682 c 1,53,54
 498 717 498 717 574 721 c 1,55,56
 734 727 734 727 844 637 c 1,57,58
 963 545 963 545 975 385 c 1,59,60
 982 319 982 319 965 264 c 1,61,62
 959 233 959 233 945 207 c 0,63,64
 906 133 906 133 805 66 c 1,65,-1
 1618 66 l 1,0,-1
EndSplineSet
EndChar

StartChar: b_cha
Encoding: 3355 3355 123
Width: 2287
GlyphClass: 2
Flags: W
LayerCount: 2
Fore
SplineSet
2002 721 m 1,0,1
 1929 676 1929 676 1898 639 c 1,2,3
 1789 528 1789 528 1777 365 c 1,4,-1
 1783 242 l 1,5,6
 1806 45 1806 45 1906 45 c 1,7,8
 1990 37 1990 37 2033 197 c 0,9,10
 2048 252 2048 252 2060 381 c 1,11,12
 2068 532 2068 532 2048 625 c 1,13,14
 2035 674 2035 674 2013 707 c 1,15,-1
 2002 721 l 1,0,1
1341 57 m 1,16,17
 1179 354 1179 354 1224 596 c 1,18,19
 1239 659 1239 659 1265 721 c 1,20,-1
 1267 723 l 1,21,-1
 1271 741 l 1,22,23
 1347 901 1347 901 1507 973 c 1,24,-1
 1548 989 l 1,25,26
 1671 1032 1671 1032 1792 1006 c 0,27,28
 1855 993 1855 993 1919 963 c 1,29,-1
 1921 963 l 1,30,31
 2017 915 2017 915 2078 842 c 0,32,33
 2185 715 2185 715 2203 535 c 1,34,-1
 2203 532 l 1,35,36
 2215 416 2215 416 2191 250 c 1,37,-1
 2187 229 l 1,38,39
 2142 -35 2142 -35 1912 -33 c 1,40,-1
 1890 -31 l 2,41,42
 1755 -18 1755 -18 1720 178 c 1,43,-1
 1710 219 l 1,44,45
 1699 313 1699 313 1703 383 c 1,46,47
 1703 383 1703 383 1708 420 c 1,48,-1
 1708 422 l 1,49,50
 1728 563 1728 563 1828 680 c 1,51,-1
 1830 682 l 1,52,-1
 1964 788 l 1,53,-1
 1908 846 l 1,54,55
 1785 954 1785 954 1642 934 c 0,56,57
 1628 932 1628 932 1609 928 c 1,58,-1
 1607 928 l 1,59,60
 1558 913 1558 913 1521 893 c 1,61,-1
 1515 889 l 1,62,-1
 1513 887 l 1,63,64
 1341 801 1341 801 1302 580 c 0,65,66
 1288 498 1288 498 1298 418 c 1,67,68
 1300 381 1300 381 1312 340 c 1,69,70
 1347 180 1347 180 1431 68 c 1,71,-1
 1468 20 l 1,72,73
 1472 2 1472 2 1468 -10 c 1,74,75
 1464 -16 1464 -16 1458 -23 c 1,76,77
 1447 -33 1447 -33 1413 -31 c 0,78,79
 1396 -29 1396 -29 1378 -25 c 1,80,-1
 1372 -25 l 1,81,-1
 1292 -10 l 1,82,-1
 167 -8 l 2,83,84
 135 -8 135 -8 104 -8 c 1,85,86
 75 6 75 6 81 37 c 1,87,88
 92 59 92 59 112 66 c 1,89,90
 321 63 321 63 528 66 c 1,91,92
 698 80 698 80 784 195 c 1,93,94
 841 276 841 276 829 385 c 0,95,96
 827 399 827 399 823 418 c 0,97,98
 792 549 792 549 700 612 c 1,99,-1
 643 637 l 1,100,101
 563 662 563 662 489 621 c 0,102,103
 450 600 450 600 415 561 c 1,104,105
 329 461 329 461 329 356 c 2,106,-1
 329 352 l 1,107,-1
 327 285 l 1,108,-1
 327 283 l 1,109,110
 319 256 319 256 288 256 c 1,111,-1
 276 260 l 2,112,113
 253 268 253 268 253 322 c 2,114,-1
 253 328 l 2,115,116
 253 543 253 543 395 653 c 1,117,118
 507 737 507 737 651 719 c 0,119,120
 675 717 675 717 700 711 c 0,121,122
 811 682 811 682 886 598 c 1,123,-1
 888 596 l 1,124,125
 987 483 987 483 978 334 c 1,126,127
 976 326 976 326 976 315 c 1,128,129
 964 223 964 223 917 160 c 0,130,131
 862 88 862 88 806 68 c 1,132,-1
 806 66 l 1,133,-1
 1255 66 l 1,134,135
 1284 61 1284 61 1341 57 c 1,16,17
EndSplineSet
EndChar

StartChar: b_ja
Encoding: 3356 3356 124
Width: 1501
GlyphClass: 2
Flags: W
LayerCount: 2
Fore
SplineSet
317 750 m 1,0,1
 237 731 237 731 219 668 c 1,2,3
 219 655 219 655 217 649 c 1,4,5
 213 610 213 610 237 578 c 0,6,7
 251 559 251 559 272 547 c 1,8,9
 299 528 299 528 333 530 c 1,10,11
 337 532 337 532 344 532 c 1,12,13
 405 545 405 545 413 621 c 1,14,15
 417 647 417 647 413 668 c 1,16,17
 409 682 409 682 403 694 c 0,18,19
 370 756 370 756 317 750 c 1,0,1
1148 252 m 1,20,21
 1056 238 1056 238 1034 168 c 1,22,23
 1013 121 1013 121 1038 78 c 1,24,25
 1048 57 1048 57 1071 41 c 1,26,27
 1118 2 1118 2 1165 6 c 1,28,29
 1169 8 1169 8 1173 8 c 0,30,31
 1241 20 1241 20 1263 92 c 1,32,-1
 1263 96 l 1,33,34
 1269 123 1269 123 1267 143 c 0,35,36
 1265 158 1265 158 1261 172 c 0,37,38
 1243 231 1243 231 1185 250 c 1,39,-1
 1153 252 l 1,40,-1
 1148 252 l 1,20,21
219 793 m 1,41,42
 301 836 301 836 385 821 c 1,43,44
 419 817 419 817 454 803 c 0,45,46
 546 764 546 764 563 668 c 1,47,48
 571 635 571 635 563 602 c 0,49,50
 559 588 559 588 552 573 c 2,51,-1
 548 565 l 2,52,53
 499 467 499 467 372 455 c 1,54,55
 292 446 292 446 235 477 c 0,56,57
 204 494 204 494 182 522 c 1,58,59
 102 614 102 614 122 737 c 0,60,61
 127 766 127 766 137 797 c 1,62,63
 174 899 174 899 256 965 c 1,64,65
 335 1022 335 1022 426 1028 c 1,66,67
 567 1034 567 1034 667 973 c 1,68,69
 718 938 718 938 761 889 c 1,70,-1
 815 813 l 1,71,-1
 823 807 l 1,72,73
 833 854 833 854 876 903 c 1,74,-1
 878 905 l 1,75,76
 974 1030 974 1030 1130 1028 c 1,77,-1
 1132 1028 l 1,78,79
 1222 1024 1222 1024 1294 981 c 0,80,81
 1409 911 1409 911 1419 750 c 1,82,83
 1421 700 1421 700 1409 649 c 0,84,85
 1404 629 1404 629 1396 606 c 0,86,87
 1335 442 1335 442 1157 377 c 0,88,89
 1103 358 1103 358 1044 352 c 1,90,-1
 1044 352 l 1,91,-1
 350 350 l 1,92,93
 272 336 272 336 239 250 c 1,94,-1
 235 238 l 1,95,-1
 235 236 l 1,96,97
 221 180 221 180 241 131 c 0,98,99
 251 109 251 109 272 84 c 1,100,-1
 274 82 l 1,101,102
 321 25 321 25 428 41 c 0,103,104
 448 43 448 43 475 49 c 0,105,106
 479 49 479 49 479 51 c 1,107,-1
 489 53 l 1,108,109
 606 82 606 82 745 168 c 1,110,111
 919 270 919 270 985 297 c 1,112,113
 1042 315 1042 315 1095 326 c 1,114,115
 1253 348 1253 348 1347 272 c 1,116,-1
 1349 270 l 1,117,118
 1398 231 1398 231 1415 170 c 1,119,-1
 1415 168 l 1,120,121
 1435 88 1435 88 1388 31 c 1,122,123
 1368 0 1368 0 1327 -25 c 1,124,-1
 1325 -27 l 1,125,-1
 1302 -39 l 1,126,127
 1216 -80 1216 -80 1134 -66 c 0,128,129
 1101 -61 1101 -61 1067 -45 c 1,130,-1
 1062 -45 l 1,131,-1
 1046 -35 l 1,132,133
 1001 -12 1001 -12 971.5 38 c 128,-1,134
 942 88 942 88 950 141 c 1,135,136
 950 154 950 154 954 166 c 1,137,-1
 954 168 l 1,138,-1
 784 72 l 1,139,140
 616 -20 616 -20 434 -39 c 1,141,142
 299 -55 299 -55 210 -12 c 1,143,144
 167 10 167 10 135 47 c 1,145,-1
 133 49 l 1,146,147
 67 123 67 123 83 217 c 0,148,149
 86 238 86 238 94 260 c 1,150,151
 110 315 110 315 151 356 c 1,152,-1
 155 358 l 1,153,154
 225 424 225 424 387 428 c 1,155,-1
 999 428 l 1,156,-1
 1060 438 l 1,157,158
 1187 479 1187 479 1245 618 c 1,159,160
 1265 676 1265 676 1267 721 c 1,161,-1
 1267 723 l 1,162,163
 1271 788 1271 788 1249 840 c 1,164,165
 1234 870 1234 870 1214 895 c 1,166,-1
 1214 897 l 1,167,168
 1173 942 1173 942 1128 950 c 1,169,-1
 1128 950 l 1,170,-1
 1077 946 l 1,171,172
 950 922 950 922 888 764 c 0,173,174
 866 709 866 709 870 676 c 1,175,-1
 874 655 l 1,176,177
 888 553 888 553 878 530 c 1,178,179
 862 500 862 500 798 500 c 1,180,181
 751 502 751 502 735 530 c 1,182,183
 718 641 718 641 708 694 c 1,184,185
 663 846 663 846 561 915 c 0,186,187
 499 956 499 956 434 950 c 0,188,189
 428 950 428 950 421 948 c 1,190,191
 309 934 309 934 233 815 c 2,192,-1
 219 793 l 1,41,42
EndSplineSet
EndChar

StartChar: b_jha
Encoding: 3357 3357 125
Width: 2781
GlyphClass: 2
Flags: W
LayerCount: 2
Fore
SplineSet
1880 205 m 1,0,1
 1892 311 1892 311 1888 537 c 0,2,3
 1888 592 1888 592 1886 655 c 1,4,-1
 1886 909 l 2,5,6
 1886 963 1886 963 1906 975 c 1,7,-1
 1908 977 l 1,8,-1
 1921 985 l 1,9,10
 1964 997 1964 997 1988 987 c 1,11,12
 2005 983 2005 983 2017 973 c 1,13,-1
 2023 969 l 1,14,-1
 2029 958 l 1,15,16
 2031 938 2031 938 2035 895 c 1,17,-1
 2035 750 l 2,18,19
 2035 494 2035 494 2041 428 c 1,20,21
 2058 301 2058 301 2103 209 c 0,22,23
 2179 57 2179 57 2299 45 c 1,24,25
 2377 33 2377 33 2445 84 c 1,26,27
 2484 111 2484 111 2514 154 c 1,28,-1
 2547 190 l 1,29,30
 2648 369 2648 369 2617 578 c 0,31,32
 2607 645 2607 645 2582 717 c 1,33,34
 2545 817 2545 817 2500 887 c 1,35,-1
 2455 950 l 1,36,-1
 2451 958 l 2,37,38
 2441 979 2441 979 2451 993 c 0,39,40
 2457 1001 2457 1001 2469 1008 c 1,41,42
 2490 1016 2490 1016 2504 1008 c 1,43,44
 2517 999 2517 999 2555 946 c 1,45,-1
 2557 942 l 1,46,47
 2617 852 2617 852 2654 750 c 1,48,49
 2717 569 2717 569 2697 401 c 1,50,51
 2687 326 2687 326 2662 254 c 1,52,53
 2590 72 2590 72 2461 4 c 0,54,55
 2365 -47 2365 -47 2254 -33 c 1,56,57
 2218 -27 2218 -27 2179 -12 c 2,58,-1
 2129 8 l 1,59,60
 2068 43 2068 43 1982 147 c 1,61,62
 1949 84 1949 84 1875 35 c 1,63,64
 1755 -49 1755 -49 1617 -33 c 0,65,66
 1595 -31 1595 -31 1572 -25 c 0,67,68
 1458 4 1458 4 1386 90 c 1,69,70
 1300 201 1300 201 1273 432 c 1,71,-1
 1271 520 l 1,72,73
 1265 635 1265 635 1226 723 c 1,74,75
 1161 895 1161 895 1042 930 c 1,76,-1
 993 938 l 1,77,78
 970 940 970 940 913 924 c 2,79,-1
 868 911 l 1,80,-1
 860 909 l 1,81,82
 933 834 933 834 958 793 c 1,83,84
 1089 594 1089 594 1067 315 c 0,85,86
 1064 287 1064 287 1060 256 c 0,87,88
 1028 37 1028 37 874 -18 c 1,89,-1
 872 -18 l 1,90,91
 823 -35 823 -35 765 -33 c 1,92,-1
 757 -33 l 1,93,-1
 755 -33 l 1,94,95
 624 -25 624 -25 559 141 c 0,96,97
 544 180 544 180 534 229 c 1,98,99
 499 440 499 440 544 610 c 1,100,101
 569 698 569 698 616 776 c 1,102,103
 649 838 649 838 702 893 c 1,104,105
 602 936 602 936 573 938 c 1,106,-1
 559 938 l 1,107,108
 473 942 473 942 395 901 c 0,109,110
 356 881 356 881 317 848 c 2,111,-1
 303 836 l 1,112,113
 163 707 163 707 155 506 c 0,114,115
 149 365 149 365 202 229 c 1,116,117
 231 162 231 162 276 96 c 1,118,-1
 276 94 l 1,119,120
 294 61 294 61 325 27 c 1,121,-1
 327 20 l 1,122,123
 335 -2 335 -2 327 -12 c 0,124,125
 321 -20 321 -20 311 -25 c 1,126,127
 286 -41 286 -41 260 -14 c 1,128,129
 243 -2 243 -2 225 25 c 1,130,-1
 221 35 l 1,131,132
 149 143 149 143 110 268 c 1,133,-1
 110 270 l 1,134,135
 61 446 61 446 92 600 c 1,136,137
 104 678 104 678 139 750 c 1,138,139
 182 829 182 829 256 899 c 1,140,141
 399 1024 399 1024 591 1014 c 1,142,143
 622 1008 622 1008 692 999 c 1,144,-1
 788 958 l 1,145,146
 819 973 819 973 837 985 c 1,147,148
 942 1028 942 1028 1044 1014 c 1,149,150
 1099 1008 1099 1008 1153 985 c 1,151,-1
 1155 985 l 1,152,153
 1398 868 1398 868 1419 537 c 1,154,-1
 1419 451 l 1,155,156
 1431 311 1431 311 1468 221 c 1,157,158
 1538 45 1538 45 1654 45 c 1,159,160
 1744 37 1744 37 1822 106 c 1,161,162
 1873 156 1873 156 1880 201 c 1,163,-1
 1880 205 l 1,0,1
759 842 m 1,164,165
 587 668 587 668 595 373 c 1,166,-1
 595 356 l 1,167,-1
 610 250 l 2,168,169
 632 96 632 96 714 55 c 0,170,171
 741 41 741 41 770 43 c 0,172,173
 774 43 774 43 780 45 c 1,174,-1
 782 45 l 1,175,176
 817 47 817 47 849 90 c 1,177,178
 892 152 892 152 909 246 c 0,179,180
 942 420 942 420 905 567 c 1,181,182
 884 641 884 641 851 711 c 1,183,184
 804 803 804 803 761 840 c 1,185,-1
 759 842 l 1,164,165
EndSplineSet
EndChar

StartChar: b_nja
Encoding: 3358 3358 126
Width: 2290
GlyphClass: 2
Flags: W
LayerCount: 2
Fore
SplineSet
1465 842 m 1,0,1
 1297 676 1297 676 1297 408 c 1,2,3
 1295 352 1295 352 1301 299 c 1,4,5
 1301 274 1301 274 1307 246 c 0,6,7
 1340 70 1340 70 1438 45 c 1,8,-1
 1440 45 l 1,9,-1
 1479 45 l 1,10,11
 1518 49 1518 49 1551 90 c 1,12,13
 1596 156 1596 156 1608 250 c 1,14,15
 1639 418 1639 418 1604 563 c 0,16,17
 1586 639 1586 639 1553 711 c 1,18,-1
 1553 713 l 1,19,20
 1502 813 1502 813 1465 842 c 1,0,1
363 549 m 1,21,22
 257 530 257 530 214 406 c 1,23,24
 193 352 193 352 197 295 c 0,25,26
 197 285 197 285 199 274 c 1,27,28
 201 229 201 229 220 174 c 1,29,30
 252 88 252 88 320 57 c 1,31,-1
 322 57 l 1,32,33
 357 41 357 41 381 43 c 0,34,35
 386 43 386 43 390 45 c 1,36,37
 453 57 453 57 492 139 c 1,38,39
 558 268 558 268 504 416 c 1,40,-1
 498 438 l 1,41,42
 453 549 453 549 375 549 c 2,43,-1
 363 549 l 1,21,22
156 463 m 1,44,45
 166 492 166 492 195 528 c 0,46,47
 246 592 246 592 312 614 c 1,48,49
 392 639 392 639 470 616 c 1,50,51
 506 604 506 604 543 580 c 1,52,-1
 545 580 l 1,53,-1
 545 578 l 1,54,55
 594 545 594 545 621 496 c 1,56,57
 691 375 691 375 672 244 c 0,58,59
 668 215 668 215 660 188 c 1,60,61
 646 127 646 127 609 78 c 1,62,63
 533 -33 533 -33 394 -33 c 1,64,65
 306 -35 306 -35 244 8 c 1,66,67
 209 31 209 31 187 66 c 1,68,69
 99 178 99 178 82 395 c 1,70,-1
 82 399 l 1,71,72
 70 578 70 578 119 711 c 0,73,74
 144 780 144 780 187 836 c 1,75,-1
 189 838 l 1,76,77
 252 936 252 936 349 977 c 1,78,79
 480 1040 480 1040 611 1006 c 1,80,81
 676 987 676 987 742 946 c 1,82,83
 812 897 812 897 883 766 c 1,84,85
 883 758 883 758 885 756 c 1,86,87
 893 793 893 793 955 864 c 1,88,89
 1084 1024 1084 1024 1291 1014 c 1,90,91
 1291 1014 1291 1014 1303 1014 c 0,92,93
 1352 1010 1352 1010 1426 987 c 1,94,-1
 1483 958 l 1,95,96
 1489 958 1489 958 1514 969 c 1,97,98
 1625 1026 1625 1026 1762 1010 c 1,99,100
 1795 1008 1795 1008 1827 999 c 0,101,102
 2024 946 2024 946 2132 764 c 1,103,-1
 2135 762 l 1,104,105
 2186 678 2186 678 2202 573 c 1,106,-1
 2202 571 l 1,107,108
 2227 412 2227 412 2173 254 c 1,109,110
 2149 176 2149 176 2102 98 c 1,111,-1
 2100 94 l 1,112,-1
 2092 78 l 1,113,114
 2036 -12 2036 -12 2003 -25 c 1,115,116
 1989 -33 1989 -33 1950 -33 c 0,117,118
 1922 -33 1922 -33 1905 -20 c 0,119,120
 1885 -6 1885 -6 1895 18 c 1,121,122
 1899 31 1899 31 1909 45 c 2,123,-1
 1917 55 l 1,124,125
 1991 160 1991 160 2028 279 c 0,126,127
 2075 432 2075 432 2053 567 c 0,128,129
 2042 639 2042 639 2012 702 c 1,130,131
 1969 799 1969 799 1899 854 c 1,132,133
 1815 930 1815 930 1707 938 c 0,134,135
 1680 940 1680 940 1633 930 c 1,136,-1
 1561 909 l 1,137,138
 1637 834 1637 834 1661 793 c 1,139,140
 1786 592 1786 592 1768 330 c 0,141,142
 1766 303 1766 303 1762 279 c 2,143,-1
 1758 254 l 2,144,145
 1731 88 1731 88 1643 18 c 1,146,-1
 1641 16 l 1,147,148
 1567 -37 1567 -37 1463 -33 c 0,149,150
 1457 -33 1457 -33 1453 -33 c 0,151,152
 1311 -23 1311 -23 1250 162 c 1,153,-1
 1233 219 l 1,154,155
 1219 285 1219 285 1219 385 c 2,156,-1
 1219 391 l 2,157,158
 1219 705 1219 705 1401 889 c 1,159,-1
 1405 893 l 1,160,161
 1301 938 1301 938 1254 938 c 0,162,163
 1104 938 1104 938 996 795 c 1,164,-1
 994 793 l 1,165,-1
 965 741 l 2,166,167
 930 678 930 678 924 649 c 1,168,-1
 928 602 l 1,169,170
 939 549 939 549 936 369 c 0,171,172
 936 330 936 330 934 289 c 1,173,-1
 936 68 l 2,174,175
 936 43 936 43 934 20 c 1,176,177
 922 -8 922 -8 863 -12 c 1,178,179
 812 -12 812 -12 793 18 c 1,180,181
 791 35 791 35 791 68 c 2,182,-1
 791 520 l 1,183,184
 775 737 775 737 664 860 c 1,185,186
 621 913 621 913 558 930 c 1,187,188
 484 952 484 952 408 920 c 0,189,190
 367 903 367 903 328 874 c 1,191,-1
 283 836 l 1,192,193
 154 696 154 696 154 467 c 2,194,-1
 154 463 l 1,195,-1
 156 463 l 1,44,45
EndSplineSet
EndChar

StartChar: b_Ta
Encoding: 3359 3359 127
Width: 1027
GlyphClass: 2
Flags: W
LayerCount: 2
Fore
SplineSet
454 1012 m 1,0,-1
 524 1014 l 1,1,2
 698 1014 698 1014 837 928 c 0,3,4
 919 877 919 877 933 854 c 1,5,-1
 933 852 l 1,6,7
 950 834 950 834 944 817 c 0,8,9
 942 811 942 811 933 801 c 1,10,-1
 923 795 l 1,11,12
 905 786 905 786 880 803 c 0,13,14
 870 811 870 811 854 823 c 0,15,16
 702 942 702 942 491 936 c 1,17,-1
 479 936 l 1,18,19
 389 932 389 932 317 907 c 1,20,21
 180 864 180 864 161 764 c 1,22,23
 147 698 147 698 208 647 c 1,24,25
 241 623 241 623 292 600 c 1,26,-1
 317 592 l 1,27,28
 380 569 380 569 458 563 c 1,29,-1
 583 559 l 1,30,31
 905 526 905 526 944 289 c 1,32,33
 954 217 954 217 929 160 c 1,34,35
 917 127 917 127 892 100 c 1,36,37
 821 16 821 16 673 -16 c 0,38,39
 514 -51 514 -51 366 -20 c 1,40,41
 294 -2 294 -2 227 31 c 2,42,-1
 223 33 l 1,43,44
 139 78 139 78 98 115 c 1,45,-1
 96 117 l 1,46,47
 75 143 75 143 81 164 c 1,48,-1
 86 172 l 1,49,-1
 98 182 l 1,50,51
 124 195 124 195 163 164 c 1,52,53
 219 123 219 123 288 90 c 1,54,-1
 290 90 l 1,55,56
 440 27 440 27 593 47 c 1,57,58
 651 53 651 53 708 74 c 1,59,60
 843 121 843 121 864 209 c 1,61,-1
 872 246 l 1,62,63
 872 279 872 279 831 317 c 1,64,65
 788 360 788 360 690 393 c 1,66,67
 632 410 632 410 481 416 c 1,68,-1
 446 418 l 2,69,70
 288 428 288 428 192 502 c 1,71,72
 88 575 88 575 81 709 c 0,73,74
 77 793 77 793 112 854 c 1,75,76
 133 887 133 887 163 911 c 1,77,78
 243 979 243 979 413 1008 c 1,79,-1
 417 1008 l 1,80,-1
 454 1012 l 1,0,-1
EndSplineSet
EndChar

StartChar: b_Tha
Encoding: 3360 3360 128
Width: 1150
GlyphClass: 2
Flags: W
LayerCount: 2
Fore
SplineSet
530 936 m 0,0,1
 241 895 241 895 170 608 c 1,2,3
 153 547 153 547 155 485 c 0,4,5
 155 479 155 479 155 475 c 2,6,-1
 155 473 l 1,7,8
 163 281 163 281 292 154 c 1,9,10
 391 59 391 59 514 47 c 1,11,12
 636 31 636 31 733 98 c 0,13,14
 782 131 782 131 823 188 c 1,15,16
 935 338 935 338 917 532 c 1,17,18
 917 532 917 532 913 569 c 1,19,20
 907 649 907 649 872 717 c 1,21,22
 800 852 800 852 679 911 c 1,23,24
 610 942 610 942 542 938 c 1,25,26
 536 936 536 936 530 936 c 0,0,1
305 938 m 1,27,28
 446 1032 446 1032 616 1012 c 0,29,30
 643 1008 643 1008 671 1001 c 1,31,-1
 675 1001 l 1,32,33
 761 983 761 983 833 936 c 0,34,35
 1015 817 1015 817 1058 594 c 1,36,37
 1089 442 1089 442 1044 311 c 0,38,39
 1021 244 1021 244 976 182 c 1,40,-1
 958 160 l 1,41,42
 841 12 841 12 655 -25 c 1,43,44
 591 -39 591 -39 530 -33 c 1,45,46
 495 -31 495 -31 462 -23 c 0,47,48
 383 -6 383 -6 313 37 c 1,49,50
 127 160 127 160 90 393 c 1,51,52
 63 545 63 545 108 674 c 1,53,54
 133 741 133 741 176 805 c 1,55,56
 229 881 229 881 305 936 c 1,57,-1
 305 938 l 1,27,28
EndSplineSet
EndChar

StartChar: b_Da
Encoding: 3361 3361 129
Width: 2167
GlyphClass: 2
Flags: W
LayerCount: 2
Fore
SplineSet
1332 201 m 1,0,1
 1301 82 1301 82 1192 12 c 1,2,-1
 1149 -12 l 1,3,4
 1057 -49 1057 -49 965 -31 c 1,5,6
 918 -20 918 -20 873 6 c 1,7,8
 691 102 691 102 662 393 c 1,9,-1
 658 528 l 1,10,11
 640 795 640 795 525 897 c 1,12,13
 480 924 480 924 465 930 c 0,14,15
 404 954 404 954 343 920 c 0,16,17
 310 901 310 901 277 870 c 1,18,-1
 240 827 l 1,19,20
 142 676 142 676 158 457 c 0,21,22
 160 430 160 430 164 403 c 0,23,24
 175 324 175 324 199 248 c 1,25,-1
 199 246 l 1,26,27
 234 145 234 145 297 61 c 1,28,29
 330 14 330 14 332 2 c 1,30,-1
 332 0 l 2,31,32
 332 -10 332 -10 324 -18 c 1,33,34
 306 -47 306 -47 277 -29 c 1,35,-1
 250 -4 l 1,36,37
 248 0 248 0 244 4 c 0,38,39
 175 94 175 94 134 201 c 0,40,41
 64 385 64 385 84 578 c 1,42,43
 91 629 91 629 103 680 c 1,44,45
 138 858 138 858 240 946 c 1,46,47
 330 1026 330 1026 463 1014 c 1,48,-1
 492 1010 l 1,49,50
 560 997 560 997 601 969 c 1,51,52
 785 860 785 860 803 545 c 1,53,-1
 803 455 l 1,54,55
 816 227 816 227 920 106 c 0,56,57
 973 45 973 45 1039 45 c 1,58,-1
 1090 49 l 1,59,60
 1209 80 1209 80 1260 231 c 1,61,-1
 1293 324 l 1,62,-1
 1283 371 l 1,63,64
 1274 403 1274 403 1274 453 c 2,65,-1
 1274 895 l 1,66,-1
 1274 944 l 1,67,68
 1276 954 1276 954 1278 963 c 1,69,70
 1299 995 1299 995 1352 991 c 1,71,72
 1358 989 1358 989 1364 989 c 1,73,-1
 1369 987 l 1,74,-1
 1379 987 l 1,75,76
 1405 981 1405 981 1414 958 c 1,77,78
 1420 952 1420 952 1418 913 c 1,79,-1
 1418 899 l 1,80,-1
 1418 465 l 1,81,82
 1430 307 1430 307 1491 190 c 1,83,84
 1565 61 1565 61 1674 45 c 1,85,-1
 1704 45 l 1,86,87
 1846 47 1846 47 1932 190 c 1,88,-1
 1950 225 l 1,89,90
 2034 393 2034 393 2006 582 c 1,91,92
 1993 662 1993 662 1960 748 c 0,93,94
 1928 829 1928 829 1887 893 c 1,95,-1
 1840 950 l 1,96,-1
 1836 958 l 1,97,98
 1827 981 1827 981 1838 993 c 0,99,100
 1844 1001 1844 1001 1854 1008 c 1,101,102
 1868 1014 1868 1014 1879 1012 c 1,103,104
 1885 1012 1885 1012 1891 1008 c 0,105,106
 1909 997 1909 997 1942 946 c 1,107,-1
 1944 942 l 1,108,109
 2008 850 2008 850 2042 754 c 1,110,-1
 2042 750 l 1,111,112
 2106 555 2106 555 2079 377 c 1,113,114
 2067 287 2067 287 2028 201 c 1,115,-1
 2014 174 l 1,116,117
 1956 72 1956 72 1879 20 c 1,118,119
 1766 -49 1766 -49 1639 -31 c 0,120,121
 1610 -27 1610 -27 1580 -16 c 1,122,123
 1522 0 1522 0 1471 37 c 1,124,-1
 1467 37 l 1,125,126
 1397 92 1397 92 1332 201 c 1,0,1
EndSplineSet
EndChar

StartChar: b_Dha
Encoding: 3362 3362 130
Width: 2165
GlyphClass: 2
Flags: W
LayerCount: 2
Fore
SplineSet
1982 283 m 1,0,-1
 2002 385 l 2,1,2
 2011 428 2011 428 2011 535 c 2,3,-1
 2011 537 l 2,4,5
 2011 639 2011 639 1996 713 c 1,6,-1
 1996 717 l 1,7,8
 1978 870 1978 870 1910 918 c 1,9,-1
 1908 918 l 1,10,11
 1869 946 1869 946 1841 938 c 1,12,-1
 1826 932 l 1,13,-1
 1814 924 l 1,14,15
 1785 893 1785 893 1773 791 c 1,16,-1
 1771 672 l 1,17,-1
 1771 659 l 1,18,19
 1796 336 1796 336 1929 291 c 0,20,21
 1953 283 1953 283 1982 283 c 1,0,-1
1333 201 m 1,22,23
 1322 160 1322 160 1294 109 c 1,24,25
 1232 25 1232 25 1150 -10 c 0,26,27
 1060 -49 1060 -49 968 -31 c 1,28,29
 921 -20 921 -20 874 6 c 0,30,31
 694 109 694 109 663 393 c 1,32,-1
 659 528 l 1,33,34
 651 682 651 682 600 782 c 1,35,36
 524 961 524 961 391 934 c 0,37,38
 378 932 378 932 366 928 c 0,39,40
 262 897 262 897 200 750 c 1,41,42
 114 532 114 532 190 283 c 1,43,-1
 208 225 l 1,44,45
 245 135 245 135 315 37 c 1,46,47
 335 12 335 12 329 -8 c 1,48,49
 325 -16 325 -16 319 -23 c 1,50,-1
 319 -25 l 1,51,52
 290 -51 290 -51 241 6 c 1,53,54
 69 231 69 231 81 545 c 1,55,56
 83 557 83 557 83 571 c 1,57,58
 110 872 110 872 282 975 c 1,59,-1
 284 977 l 1,60,61
 395 1042 395 1042 532 999 c 1,62,-1
 534 999 l 1,63,64
 565 989 565 989 585 977 c 1,65,66
 782 877 782 877 804 543 c 1,67,-1
 804 453 l 1,68,69
 817 317 817 317 843 242 c 1,70,71
 915 51 915 51 1032 45 c 1,72,-1
 1046 45 l 2,73,74
 1179 45 1179 45 1253 207 c 1,75,-1
 1261 229 l 1,76,77
 1294 295 1294 295 1294 324 c 2,78,-1
 1294 326 l 1,79,-1
 1282 371 l 1,80,81
 1271 430 1271 430 1273 643 c 0,82,83
 1273 672 1273 672 1273 702 c 2,84,-1
 1273 915 l 2,85,86
 1273 961 1273 961 1288 973 c 1,87,-1
 1300 979 l 2,88,89
 1329 993 1329 993 1359 987 c 1,90,91
 1376 985 1376 985 1390 979 c 1,92,-1
 1394 979 l 1,93,-1
 1396 979 l 1,94,95
 1409 973 1409 973 1415 958 c 1,96,97
 1415 954 1415 954 1419 946 c 1,98,-1
 1419 569 l 2,99,100
 1419 336 1419 336 1478 221 c 1,101,-1
 1484 207 l 1,102,103
 1552 94 1552 94 1621 61 c 1,104,105
 1697 27 1697 27 1775 53 c 1,106,107
 1814 68 1814 68 1853 98 c 1,108,109
 1912 150 1912 150 1943 209 c 1,110,111
 1722 209 1722 209 1650 481 c 1,112,113
 1634 547 1634 547 1624 643 c 1,114,-1
 1621 717 l 1,115,116
 1621 897 1621 897 1689 965 c 2,117,-1
 1691 967 l 1,118,-1
 1701 975 l 1,119,120
 1769 1028 1769 1028 1857 1014 c 0,121,122
 1877 1010 1877 1010 1900 1004 c 1,123,-1
 1900 1004 l 1,124,-1
 1902 1001 l 1,125,126
 2058 954 2058 954 2080 668 c 1,127,128
 2080 633 2080 633 2082 614 c 0,129,130
 2099 371 2099 371 2033 213 c 1,131,132
 1998 133 1998 133 1945 78 c 1,133,-1
 1943 78 l 1,134,135
 1886 16 1886 16 1824 -8 c 1,136,137
 1724 -49 1724 -49 1624 -31 c 0,138,139
 1568 -20 1568 -20 1515 8 c 1,140,141
 1456 41 1456 41 1415 82 c 1,142,143
 1355 147 1355 147 1337 199 c 0,144,145
 1337 201 1337 201 1333 201 c 1,22,23
EndSplineSet
EndChar

StartChar: b_nha
Encoding: 3363 3363 131
Width: 2465
GlyphClass: 2
Flags: W
LayerCount: 2
Fore
SplineSet
363 549 m 1,0,1
 257 530 257 530 216 406 c 1,2,3
 195 352 195 352 199 295 c 0,4,5
 199 285 199 285 201 274 c 1,6,7
 205 217 205 217 224 174 c 1,8,9
 254 88 254 88 322 57 c 1,10,-1
 326 57 l 1,11,12
 359 37 359 37 392 45 c 1,13,14
 453 57 453 57 494 139 c 0,15,16
 541 233 541 233 529 338 c 1,17,18
 523 377 523 377 508 416 c 2,19,-1
 500 438 l 1,20,21
 455 549 455 549 375 549 c 2,22,-1
 363 549 l 1,0,1
160 463 m 1,23,24
 166 487 166 487 195 528 c 1,25,26
 250 594 250 594 314 614 c 1,27,-1
 316 614 l 1,28,29
 394 639 394 639 467 616 c 0,30,31
 506 604 506 604 543 580 c 0,32,33
 596 547 596 547 621 500 c 1,34,35
 691 385 691 385 674 252 c 0,36,37
 670 223 670 223 664 195 c 0,38,39
 646 123 646 123 607 72 c 0,40,41
 533 -27 533 -27 400 -33 c 1,42,43
 257 -41 257 -41 177 76 c 0,44,45
 136 135 136 135 109 229 c 1,46,47
 76 362 76 362 80 500 c 1,48,49
 82 512 82 512 82 524 c 2,50,-1
 82 535 l 1,51,52
 97 752 97 752 234 893 c 1,53,54
 281 944 281 944 349 977 c 0,55,56
 457 1028 457 1028 572 1012 c 0,57,58
 617 1006 617 1006 660 989 c 1,59,-1
 715 963 l 1,60,61
 828 897 828 897 881 770 c 1,62,-1
 922 846 l 1,63,64
 986 942 986 942 1074 985 c 1,65,66
 1172 1028 1172 1028 1274 1012 c 1,67,68
 1328 1001 1328 1001 1383 979 c 1,69,-1
 1385 979 l 1,70,71
 1459 942 1459 942 1516 877 c 1,72,73
 1569 809 1569 809 1575 770 c 1,74,-1
 1631 858 l 1,75,-1
 1635 860 l 1,76,77
 1752 1030 1752 1030 1954 1012 c 1,78,79
 1969 1012 1969 1012 1981 1010 c 1,80,-1
 1983 1010 l 1,81,82
 2104 991 2104 991 2204 911 c 1,83,84
 2374 768 2374 768 2384 504 c 1,85,86
 2391 346 2391 346 2327 197 c 0,87,88
 2296 123 2296 123 2247 47 c 1,89,90
 2206 -25 2206 -25 2169 -31 c 1,91,92
 2124 -41 2124 -41 2098 -33 c 1,93,94
 2083 -27 2083 -27 2073 -16 c 1,95,96
 2067 -4 2067 -4 2065 2 c 1,97,-1
 2065 4 l 2,98,99
 2065 18 2065 18 2100 66 c 1,100,-1
 2108 72 l 1,101,102
 2153 139 2153 139 2188 221 c 1,103,104
 2255 403 2255 403 2235 565 c 1,105,106
 2225 635 2225 635 2200 698 c 0,107,108
 2176 756 2176 756 2143 799 c 1,109,110
 2051 928 2051 928 1932 938 c 1,111,-1
 1909 938 l 1,112,113
 1762 932 1762 932 1676 776 c 1,114,-1
 1661 756 l 1,115,116
 1625 684 1625 684 1625 643 c 2,117,-1
 1625 639 l 1,118,-1
 1629 606 l 1,119,120
 1641 539 1641 539 1639 315 c 1,121,122
 1639 315 1639 315 1639 283 c 2,123,-1
 1639 4 l 1,124,-1
 1637 -4 l 1,125,126
 1629 -27 1629 -27 1588 -33 c 1,127,128
 1545 -37 1545 -37 1520 -29 c 1,129,-1
 1502 -14 l 2,130,131
 1491 -4 1491 -4 1491 55 c 2,132,-1
 1491 506 l 1,133,134
 1483 651 1483 651 1434 760 c 1,135,136
 1364 903 1364 903 1258 932 c 1,137,-1
 1250 934 l 1,138,139
 1154 954 1154 954 1076 897 c 1,140,141
 1043 870 1043 870 1012 831 c 1,142,-1
 1000 815 l 1,143,144
 949 750 949 750 926 668 c 1,145,-1
 926 664 l 1,146,147
 922 647 922 647 928 598 c 1,148,-1
 934 561 l 1,149,-1
 941 319 l 1,150,151
 939 285 939 285 939 242 c 2,152,-1
 939 72 l 2,153,154
 939 16 939 16 920 4 c 1,155,-1
 902 -4 l 1,156,157
 867 -16 867 -16 836 -10 c 1,158,159
 822 -6 822 -6 807 2 c 1,160,161
 799 8 799 8 793 20 c 1,162,-1
 791 520 l 1,163,164
 779 729 779 729 670 856 c 1,165,166
 619 911 619 911 562 930 c 1,167,168
 488 952 488 952 412 922 c 1,169,170
 371 903 371 903 330 874 c 1,171,-1
 285 836 l 1,172,173
 156 696 156 696 156 467 c 2,174,-1
 156 463 l 1,175,-1
 160 463 l 1,23,24
EndSplineSet
EndChar

StartChar: b_ta
Encoding: 3364 3364 132
Width: 1587
GlyphClass: 2
Flags: W
LayerCount: 2
Fore
SplineSet
758 842 m 1,0,1
 584 666 584 666 594 375 c 0,2,3
 594 365 594 365 594 356 c 1,4,-1
 609 250 l 1,5,6
 635 94 635 94 715 55 c 0,7,8
 742 41 742 41 769 43 c 0,9,10
 773 43 773 43 779 45 c 1,11,-1
 781 45 l 1,12,13
 820 49 820 49 846 90 c 1,14,15
 889 147 889 147 910 246 c 1,16,17
 943 420 943 420 904 565 c 1,18,19
 885 641 885 641 850 711 c 0,20,21
 803 803 803 803 760 840 c 1,22,-1
 758 842 l 1,0,1
703 893 m 1,23,24
 601 936 601 936 572 938 c 1,25,-1
 560 938 l 1,26,27
 525 940 525 940 486 932 c 0,28,29
 465 928 465 928 445 920 c 1,30,31
 275 864 275 864 197 678 c 1,32,-1
 193 676 l 1,33,34
 152 578 152 578 154 467 c 1,35,36
 164 270 164 270 271 104 c 1,37,-1
 273 100 l 1,38,39
 312 43 312 43 326 25 c 1,40,41
 343 -8 343 -8 314 -25 c 1,42,43
 289 -41 289 -41 265 -18 c 1,44,45
 250 -6 250 -6 236 14 c 1,46,-1
 232 18 l 1,47,48
 101 199 101 199 82 434 c 1,49,50
 70 608 70 608 134 737 c 1,51,52
 168 809 168 809 222 864 c 1,53,54
 361 1010 361 1010 562 1014 c 1,55,56
 652 1014 652 1014 736 979 c 1,57,-1
 783 958 l 1,58,59
 801 965 801 965 820 977 c 1,60,-1
 824 977 l 1,61,62
 936 1028 936 1028 1065 1012 c 1,63,64
 1117 1004 1117 1004 1170 987 c 1,65,66
 1299 940 1299 940 1371 852 c 1,67,68
 1530 686 1530 686 1504 420 c 1,69,70
 1502 389 1502 389 1496 358 c 2,71,-1
 1481 283 l 1,72,73
 1451 154 1451 154 1354 23 c 1,74,-1
 1352 20 l 1,75,76
 1321 -16 1321 -16 1313 -20 c 1,77,78
 1283 -41 1283 -41 1246 -35 c 1,79,-1
 1217 -27 l 1,80,-1
 1209 -25 l 1,81,82
 1178 -10 1178 -10 1184 10 c 1,83,-1
 1188 18 l 1,84,-1
 1235 80 l 1,85,-1
 1246 92 l 1,86,87
 1301 178 1301 178 1330 283 c 1,88,89
 1379 442 1379 442 1354 578 c 0,90,91
 1342 645 1342 645 1311 711 c 1,92,93
 1266 801 1266 801 1192 860 c 1,94,95
 1108 930 1108 930 1010 938 c 0,96,97
 982 940 982 940 930 928 c 0,98,99
 900 922 900 922 865 911 c 2,100,-1
 859 909 l 1,101,102
 930 838 930 838 959 793 c 0,103,104
 1090 594 1090 594 1068 315 c 0,105,106
 1065 287 1065 287 1061 256 c 0,107,108
 1027 37 1027 37 873 -18 c 1,109,-1
 871 -18 l 1,110,111
 824 -35 824 -35 764 -33 c 1,112,-1
 756 -33 l 1,113,114
 619 -23 619 -23 560 141 c 1,115,116
 543 176 543 176 533 229 c 1,117,118
 498 440 498 440 543 610 c 1,119,120
 568 698 568 698 615 776 c 1,121,122
 654 844 654 844 703 893 c 1,23,24
EndSplineSet
EndChar

StartChar: b_tha
Encoding: 3365 3365 133
Width: 1672
GlyphClass: 2
Flags: W
LayerCount: 2
Fore
SplineSet
930 66 m 1,0,-1
 1516 66 l 1,1,-1
 1516 395 l 2,2,3
 1516 614 1516 614 1477 711 c 2,4,-1
 1459 756 l 1,5,6
 1393 885 1393 885 1289 926 c 1,7,8
 1221 948 1221 948 1162 932 c 1,9,-1
 1160 932 l 1,10,11
 1035 897 1035 897 971 731 c 1,12,-1
 969 723 l 1,13,-1
 963 711 l 1,14,15
 930 610 930 610 930 391 c 2,16,-1
 930 66 l 1,0,-1
783 66 m 1,17,-1
 783 535 l 1,18,19
 799 807 799 807 967 938 c 1,20,-1
 1004 963 l 1,21,22
 1113 1028 1113 1028 1238 1014 c 1,23,-1
 1283 1006 l 1,24,-1
 1285 1006 l 1,25,-1
 1315 997 l 1,26,27
 1387 969 1387 969 1457 899 c 1,28,29
 1586 754 1586 754 1592 467 c 1,30,-1
 1590 39 l 1,31,-1
 1590 14 l 1,32,-1
 1586 6 l 1,33,34
 1575 -12 1575 -12 1524 -10 c 1,35,-1
 1512 -10 l 1,36,-1
 162 -10 l 2,37,38
 97 -10 97 -10 85 18 c 1,39,40
 78 27 78 27 80 72 c 0,41,42
 80 80 80 80 80 86 c 2,43,-1
 82 905 l 2,44,45
 82 930 82 930 82 952 c 1,46,47
 93 999 93 999 173 987 c 1,48,-1
 195 979 l 2,49,50
 226 967 226 967 226 924 c 2,51,-1
 226 66 l 1,52,-1
 783 66 l 1,17,-1
EndSplineSet
EndChar

StartChar: b_da
Encoding: 3366 3366 134
Width: 1061
GlyphClass: 2
Flags: W
LayerCount: 2
Fore
SplineSet
742 496 m 1,0,1
 891 444 891 444 945 369 c 1,2,-1
 947 365 l 1,3,4
 996 289 996 289 977 209 c 1,5,6
 971 174 971 174 955 139 c 1,7,8
 930 90 930 90 889 55 c 1,9,10
 769 -55 769 -55 547 -29 c 1,11,12
 504 -25 504 -25 453 -12 c 2,13,-1
 363 12 l 1,14,15
 324 27 324 27 318 33 c 0,16,17
 304 49 304 49 314 63 c 1,18,19
 318 72 318 72 328 78 c 0,20,21
 359 94 359 94 404 86 c 0,22,23
 429 82 429 82 455 72 c 1,24,-1
 457 72 l 1,25,-1
 488 66 l 1,26,27
 619 33 619 33 701 59 c 1,28,29
 742 74 742 74 773 104 c 1,30,31
 846 180 846 180 832 268 c 0,32,33
 830 281 830 281 828 291 c 0,34,35
 793 420 793 420 570 446 c 1,36,-1
 564 446 l 1,37,38
 494 455 494 455 398 455 c 1,39,40
 361 463 361 463 355 487 c 1,41,42
 353 502 353 502 365 512 c 0,43,44
 371 516 371 516 384 522 c 1,45,-1
 474 528 l 1,46,-1
 502 530 l 1,47,48
 648 549 648 549 703 584 c 1,49,-1
 703 584 l 1,50,-1
 738 610 l 1,51,52
 799 670 799 670 789 752 c 1,53,-1
 785 772 l 1,54,55
 773 811 773 811 744 850 c 1,56,57
 678 922 678 922 558 936 c 1,58,-1
 496 938 l 1,59,60
 310 920 310 920 214 733 c 1,61,62
 162 627 162 627 156 512 c 1,63,-1
 156 510 l 1,64,65
 152 387 152 387 183 236 c 1,66,67
 195 166 195 166 218 88 c 0,68,69
 232 43 232 43 244 14 c 1,70,71
 248 -8 248 -8 236 -20 c 1,72,-1
 218 -31 l 1,73,-1
 207 -33 l 1,74,75
 171 -33 171 -33 152 45 c 1,76,77
 117 147 117 147 95 291 c 0,78,79
 54 555 54 555 128 733 c 0,80,81
 166 825 166 825 234 893 c 2,82,-1
 236 895 l 1,83,84
 322 985 322 985 445 1008 c 1,85,86
 568 1028 568 1028 676 997 c 0,87,88
 730 981 730 981 783 954 c 1,89,-1
 785 954 l 1,90,91
 945 868 945 868 934 723 c 0,92,93
 934 719 934 719 934 713 c 0,94,95
 930 639 930 639 881 586 c 0,96,97
 848 551 848 551 754 502 c 1,98,-1
 750 500 l 1,99,-1
 742 496 l 1,0,1
EndSplineSet
EndChar

StartChar: b_dha
Encoding: 3367 3367 135
Width: 1678
GlyphClass: 2
Flags: W
LayerCount: 2
Fore
SplineSet
838 209 m 1,0,1
 785 78 785 78 660 12 c 0,2,3
 549 -47 549 -47 437 -31 c 1,4,5
 400 -27 400 -27 365 -14 c 1,6,7
 300 6 300 6 246 55 c 0,8,9
 76 209 76 209 80 500 c 1,10,-1
 80 502 l 1,11,12
 87 743 87 743 224 946 c 1,13,14
 277 1030 277 1030 310 1010 c 0,15,16
 318 1006 318 1006 324 997 c 1,17,18
 332 981 332 981 330 967 c 1,19,-1
 328 958 l 2,20,21
 326 952 326 952 281 889 c 1,22,-1
 277 881 l 1,23,24
 238 825 238 825 203 741 c 1,25,26
 142 580 142 580 162 424 c 1,27,28
 168 369 168 369 187 311 c 1,29,30
 187 307 187 307 189 303 c 1,31,32
 199 258 199 258 228 201 c 1,33,-1
 230 201 l 1,34,35
 300 82 300 82 408 51 c 0,36,37
 445 41 445 41 474 45 c 1,38,39
 596 51 596 51 676 197 c 1,40,41
 750 326 750 326 750 578 c 2,42,-1
 750 580 l 1,43,-1
 750 946 l 1,44,-1
 750 956 l 1,45,46
 762 987 762 987 822 989 c 1,47,-1
 826 989 l 2,48,49
 875 989 875 989 891 958 c 1,50,-1
 896 895 l 1,51,-1
 896 465 l 1,52,53
 887 379 887 379 885 328 c 1,54,55
 885 295 885 295 914 231 c 1,56,57
 994 80 994 80 1111 49 c 1,58,-1
 1166 45 l 1,59,60
 1285 45 1285 45 1373 188 c 1,61,62
 1514 428 1514 428 1408 723 c 1,63,64
 1379 815 1379 815 1319 905 c 1,65,66
 1295 932 1295 932 1274 969 c 1,67,-1
 1274 975 l 2,68,69
 1274 991 1274 991 1309 1008 c 1,70,71
 1354 1022 1354 1022 1387 1010 c 1,72,73
 1403 1001 1403 1001 1420 987 c 1,74,75
 1463 940 1463 940 1514 838 c 0,76,77
 1618 631 1618 631 1594 418 c 0,78,79
 1590 383 1590 383 1582 346 c 0,80,81
 1559 238 1559 238 1508 154 c 0,82,83
 1424 18 1424 18 1262 -23 c 1,84,-1
 1260 -23 l 1,85,86
 1164 -45 1164 -45 1078 -20 c 0,87,88
 1039 -8 1039 -8 998 16 c 1,89,90
 926 61 926 61 855 180 c 1,91,92
 865 166 865 166 865 164 c 1,93,94
 867 162 867 162 863 170 c 1,95,-1
 844 199 l 1,96,-1
 840 209 l 1,97,-1
 838 209 l 1,0,1
EndSplineSet
EndChar

StartChar: b_na
Encoding: 3368 3368 136
Width: 1676
GlyphClass: 2
Flags: W
LayerCount: 2
Fore
SplineSet
838 770 m 1,0,-1
 879 846 l 1,1,2
 930 926 930 926 1012 975 c 1,3,-1
 1014 977 l 1,4,5
 1119 1032 1119 1032 1231 1014 c 0,6,7
 1281 1006 1281 1006 1328 985 c 1,8,9
 1438 932 1438 932 1500 838 c 1,10,11
 1618 655 1618 655 1592 420 c 0,12,13
 1588 383 1588 383 1580 340 c 1,14,-1
 1580 338 l 1,15,16
 1561 248 1561 248 1524 170 c 1,17,-1
 1524 168 l 1,18,19
 1477 53 1477 53 1414 -10 c 1,20,21
 1383 -43 1383 -43 1334 -35 c 1,22,-1
 1315 -31 l 1,23,-1
 1309 -27 l 1,24,25
 1268 -16 1268 -16 1278 14 c 0,26,27
 1281 23 1281 23 1287 33 c 2,28,-1
 1317 78 l 1,29,30
 1442 256 1442 256 1444 485 c 1,31,32
 1448 598 1448 598 1412 696 c 0,33,34
 1395 743 1395 743 1371 788 c 0,35,36
 1299 924 1299 924 1180 936 c 0,37,38
 1147 940 1147 940 1117 932 c 0,39,40
 1100 928 1100 928 1084 920 c 1,41,42
 969 877 969 877 910 745 c 1,43,44
 875 674 875 674 883 623 c 1,45,-1
 887 606 l 1,46,47
 896 543 896 543 896 264 c 2,48,-1
 896 25 l 1,49,-1
 889 18 l 1,50,51
 875 -16 875 -16 818 -12 c 1,52,-1
 805 -10 l 1,53,54
 758 -4 758 -4 750 20 c 1,55,-1
 744 543 l 1,56,57
 732 694 732 694 670 793 c 1,58,59
 590 928 590 928 472 938 c 1,60,61
 388 942 388 942 318 887 c 0,62,63
 283 860 283 860 252 819 c 1,64,-1
 224 770 l 1,65,66
 132 598 132 598 162 399 c 0,67,68
 173 330 173 330 197 258 c 1,69,70
 224 168 224 168 279 90 c 2,71,-1
 324 27 l 1,72,-1
 326 18 l 1,73,74
 334 -4 334 -4 324 -18 c 1,75,-1
 308 -29 l 1,76,-1
 306 -31 l 1,77,78
 293 -35 293 -35 281 -31 c 1,79,-1
 271 -25 l 2,80,81
 259 -18 259 -18 230 23 c 1,82,-1
 226 25 l 1,83,84
 80 229 80 229 80 492 c 2,85,-1
 80 494 l 2,86,87
 80 586 80 586 103 674 c 1,88,89
 140 827 140 827 244 926 c 1,90,-1
 244 928 l 1,91,92
 357 1026 357 1026 510 1012 c 1,93,94
 525 1012 525 1012 535 1010 c 1,95,-1
 537 1010 l 1,96,97
 617 995 617 995 674 963 c 1,98,99
 785 897 785 897 838 770 c 1,0,-1
EndSplineSet
EndChar

StartChar: b_pa
Encoding: 3370 3370 138
Width: 1850
GlyphClass: 2
Flags: W
LayerCount: 2
Fore
SplineSet
1623 66 m 1,0,-1
 1623 907 l 1,1,-1
 1625 958 l 1,2,3
 1645 995 1645 995 1696 991 c 1,4,5
 1702 989 1702 989 1709 989 c 2,6,-1
 1711 989 l 1,7,8
 1760 983 1760 983 1768 956 c 1,9,-1
 1770 68 l 1,10,-1
 1768 18 l 1,11,12
 1752 -12 1752 -12 1647 -10 c 1,13,-1
 1639 -10 l 1,14,15
 1319 -8 1319 -8 693 -12 c 1,16,-1
 574 -33 l 1,17,-1
 572 -33 l 2,18,19
 510 -33 510 -33 494 -14 c 1,20,21
 484 0 484 0 490 14 c 0,22,23
 494 23 494 23 502 31 c 0,24,25
 701 201 701 201 656 399 c 1,26,27
 650 432 650 432 635 467 c 1,28,29
 586 600 586 600 474 637 c 1,30,-1
 441 647 l 1,31,32
 390 651 390 651 332 625 c 1,33,34
 199 569 199 569 166 410 c 1,35,36
 154 346 154 346 164 285 c 1,37,38
 168 252 168 252 179 221 c 1,39,40
 201 143 201 143 265 82 c 1,41,-1
 320 31 l 1,42,-1
 322 27 l 1,43,44
 336 8 336 8 330 -8 c 0,45,46
 328 -16 328 -16 318 -24.5 c 128,-1,47
 308 -33 308 -33 293 -33 c 0,48,49
 269 -33 269 -33 232 4 c 1,50,51
 162 68 162 68 123 150 c 0,52,53
 66 272 66 272 84 397 c 1,54,55
 93 442 93 442 107 487 c 1,56,57
 144 592 144 592 228 655 c 0,58,59
 328 731 328 731 463 719 c 0,60,61
 480 717 480 717 498 713 c 2,62,-1
 572 696 l 1,63,64
 625 676 625 676 678 633 c 0,65,66
 812 522 812 522 805 334 c 0,67,68
 805 330 805 330 805 324 c 0,69,70
 799 172 799 172 711 66 c 1,71,-1
 707 66 l 1,72,-1
 1623 66 l 1,0,-1
EndSplineSet
EndChar

StartChar: b_pha
Encoding: 3371 3371 139
Width: 1989
GlyphClass: 2
Flags: W
LayerCount: 2
Fore
SplineSet
1246 66 m 1,0,-1
 1831 66 l 1,1,-1
 1831 395 l 2,2,3
 1831 621 1831 621 1788 733 c 1,4,5
 1780 741 1780 741 1776 756 c 1,6,7
 1709 887 1709 887 1596 928 c 1,8,9
 1553 942 1553 942 1510 938 c 0,10,11
 1494 936 1494 936 1479 932 c 1,12,-1
 1477 932 l 1,13,14
 1352 897 1352 897 1293 731 c 1,15,16
 1285 723 1285 723 1283 711 c 1,17,18
 1246 604 1246 604 1246 391 c 2,19,-1
 1246 66 l 1,0,-1
1098 66 m 1,20,-1
 1098 535 l 1,21,22
 1111 719 1111 719 1199 846 c 1,23,24
 1289 979 1289 979 1448 1008 c 0,25,26
 1528 1022 1528 1022 1594 1006 c 0,27,28
 1633 997 1633 997 1666 979 c 1,29,-1
 1668 979 l 1,30,31
 1731 948 1731 948 1780 893 c 1,32,33
 1903 743 1903 743 1909 461 c 1,34,-1
 1909 135 l 1,35,36
 1907 72 1907 72 1905 6 c 1,37,38
 1895 -12 1895 -12 1836 -10 c 1,39,-1
 766 -10 l 2,40,41
 666 -10 666 -10 578 -33 c 1,42,-1
 568 -33 l 2,43,44
 513 -33 513 -33 494 -14 c 1,45,46
 478 4 478 4 496 27 c 1,47,48
 506 37 506 37 525 49 c 1,49,-1
 529 51 l 1,50,-1
 535 57 l 1,51,52
 650 166 650 166 656 326 c 1,53,54
 662 375 662 375 650 426 c 0,55,56
 646 446 646 446 637 467 c 1,57,-1
 633 473 l 1,58,59
 586 594 586 594 486 631 c 1,60,61
 455 647 455 647 420 647 c 0,62,63
 363 647 363 647 300 610 c 0,64,65
 164 532 164 532 158 358 c 1,66,67
 154 285 154 285 179 217 c 0,68,69
 191 186 191 186 209 154 c 1,70,71
 236 113 236 113 308 45 c 1,72,-1
 314 37 l 1,73,-1
 316 35 l 2,74,75
 336 14 336 14 332 -4 c 0,76,77
 330 -10 330 -10 328 -14 c 0,78,79
 306 -49 306 -49 263 -20 c 2,80,-1
 257 -16 l 1,81,82
 191 35 191 35 140 119 c 1,83,-1
 138 119 l 1,84,85
 64 256 64 256 84 395 c 1,86,87
 91 428 91 428 101 463 c 0,88,89
 130 565 130 565 199 631 c 0,90,91
 306 733 306 733 463 721 c 1,92,-1
 492 717 l 1,93,94
 652 692 652 692 738 563 c 1,95,96
 824 438 824 438 803 289 c 1,97,98
 801 260 801 260 793 231 c 0,99,100
 769 137 769 137 707 66 c 1,101,-1
 1098 66 l 1,20,-1
EndSplineSet
EndChar

StartChar: b_ba
Encoding: 3372 3372 140
Width: 2285
GlyphClass: 2
Flags: W
LayerCount: 2
Fore
SplineSet
363 549 m 1,0,1
 254 530 254 530 214 406 c 1,2,3
 193 352 193 352 197 295 c 0,4,5
 197 285 197 285 199 274 c 1,6,7
 201 225 201 225 222 174 c 1,8,9
 252 88 252 88 320 57 c 1,10,-1
 324 57 l 1,11,12
 359 37 359 37 390 45 c 1,13,14
 451 57 451 57 492 139 c 0,15,16
 539 233 539 233 527 338 c 1,17,18
 521 377 521 377 506 416 c 2,19,-1
 498 438 l 1,20,21
 453 549 453 549 373 549 c 2,22,-1
 363 549 l 1,0,1
158 463 m 1,23,24
 164 487 164 487 193 528 c 1,25,26
 248 594 248 594 312 614 c 1,27,-1
 314 614 l 1,28,29
 392 639 392 639 467 616 c 0,30,31
 504 604 504 604 541 580 c 1,32,-1
 543 580 l 1,33,-1
 545 578 l 1,34,35
 592 547 592 547 619 496 c 1,36,37
 689 377 689 377 672 250 c 0,38,39
 668 223 668 223 662 201 c 1,40,-1
 662 199 l 1,41,42
 644 117 644 117 592 57 c 0,43,44
 513 -35 513 -35 381 -35 c 1,45,46
 117 -29 117 -29 82 399 c 1,47,48
 72 571 72 571 117 705 c 1,49,50
 140 770 140 770 175 823 c 1,51,-1
 177 827 l 1,52,53
 244 928 244 928 345 975 c 1,54,-1
 347 977 l 1,55,56
 455 1028 455 1028 570 1012 c 0,57,58
 615 1006 615 1006 658 989 c 1,59,-1
 713 963 l 1,60,61
 797 915 797 915 875 786 c 1,62,63
 875 786 875 786 875 782 c 1,64,65
 924 918 924 918 1031 979 c 1,66,-1
 1035 979 l 1,67,68
 1125 1030 1125 1030 1223 1012 c 1,69,70
 1276 1004 1276 1004 1330 979 c 1,71,72
 1408 946 1408 946 1469 881 c 1,73,74
 1610 715 1610 715 1594 449 c 1,75,76
 1594 430 1594 430 1592 412 c 0,77,78
 1567 213 1567 213 1471 66 c 1,79,-1
 1469 66 l 1,80,-1
 2063 66 l 1,81,-1
 2065 911 l 2,82,83
 2065 936 2065 936 2065 958 c 1,84,85
 2081 995 2081 995 2139 991 c 1,86,87
 2145 989 2145 989 2151 989 c 2,88,-1
 2153 989 l 1,89,90
 2190 983 2190 983 2202 958 c 1,91,-1
 2206 909 l 1,92,-1
 2206 78 l 1,93,-1
 2202 18 l 1,94,95
 2190 -10 2190 -10 2100 -10 c 2,96,-1
 1487 -10 l 1,97,98
 1387 -27 1387 -27 1338 -33 c 1,99,-1
 1332 -33 l 2,100,101
 1283 -33 1283 -33 1274 -4 c 0,102,103
 1270 6 1270 6 1283 25 c 1,104,105
 1289 37 1289 37 1301 49 c 1,106,-1
 1305 57 l 1,107,108
 1356 129 1356 129 1391 207 c 1,109,-1
 1393 215 l 1,110,-1
 1393 217 l 1,111,112
 1467 403 1467 403 1442 573 c 1,113,114
 1434 639 1434 639 1412 700 c 1,115,-1
 1383 774 l 1,116,117
 1299 928 1299 928 1174 938 c 1,118,119
 1053 944 1053 944 975 807 c 1,120,-1
 955 768 l 1,121,122
 924 702 924 702 920 662 c 1,123,-1
 936 532 l 1,124,-1
 934 96 l 2,125,126
 934 55 934 55 932 18 c 1,127,128
 918 -16 918 -16 855 -12 c 0,129,130
 805 -8 805 -8 793 18 c 0,131,132
 789 25 789 25 789 78 c 2,133,-1
 789 510 l 1,134,135
 779 748 779 748 662 864 c 1,136,-1
 658 864 l 1,137,138
 613 915 613 915 556 932 c 1,139,140
 478 952 478 952 402 918 c 1,141,142
 361 901 361 901 320 868 c 1,143,-1
 283 836 l 1,144,145
 154 696 154 696 154 467 c 2,146,-1
 154 463 l 1,147,-1
 158 463 l 1,23,24
EndSplineSet
EndChar

StartChar: b_bha
Encoding: 3373 3373 141
Width: 1154
GlyphClass: 2
Flags: W
LayerCount: 2
Fore
SplineSet
314 926 m 1,0,1
 470 1032 470 1032 687 1010 c 1,2,3
 859 991 859 991 945 932 c 1,4,-1
 947 930 l 1,5,6
 1029 872 1029 872 1025 778 c 1,7,8
 1025 719 1025 719 969 664 c 1,9,10
 857 563 857 563 646 571 c 0,11,12
 637 571 637 571 627 571 c 1,13,14
 570 578 570 578 513 590 c 1,15,16
 494 584 494 584 482 561 c 1,17,18
 451 514 451 514 461 469 c 0,19,20
 463 459 463 459 467 446 c 0,21,22
 484 397 484 397 510 393 c 1,23,24
 519 393 519 393 553 399 c 1,25,-1
 558 399 l 1,26,27
 623 414 623 414 656 414 c 0,28,29
 891 414 891 414 1006 322 c 1,30,31
 1092 248 1092 248 1070 158 c 1,32,33
 1063 137 1063 137 1053 117 c 0,34,35
 990 -8 990 -8 795 -27 c 1,36,-1
 785 -31 l 1,37,-1
 777 -31 l 1,38,39
 691 -41 691 -41 566 -25 c 1,40,41
 504 -16 504 -16 433 0 c 1,42,-1
 375 14 l 1,43,44
 365 14 365 14 365 18 c 1,45,-1
 361 25 l 1,46,47
 338 41 338 41 345 59 c 1,48,49
 349 66 349 66 353 74 c 1,50,-1
 357 78 l 1,51,-1
 363 84 l 1,52,53
 373 90 373 90 392 88 c 1,54,55
 402 88 402 88 414 84 c 0,56,57
 517 57 517 57 660 45 c 1,58,59
 736 41 736 41 789 51 c 1,60,61
 814 57 814 57 834 68 c 1,62,-1
 836 68 l 1,63,-1
 838 70 l 1,64,65
 904 104 904 104 920 170 c 1,66,67
 930 207 930 207 914 236 c 1,68,69
 875 322 875 322 734 336 c 1,70,-1
 654 336 l 1,71,72
 640 334 640 334 623 332 c 1,73,-1
 521 307 l 1,74,-1
 500 307 l 1,75,76
 402 311 402 311 343 387 c 1,77,78
 316 426 316 426 314 467 c 1,79,80
 306 537 306 537 343 586 c 1,81,82
 361 612 361 612 390 633 c 0,83,84
 429 662 429 662 484 672 c 1,85,-1
 488 672 l 1,86,87
 504 674 504 674 553 664 c 1,88,89
 570 662 570 662 594 655 c 1,90,-1
 599 655 l 1,91,-1
 623 651 l 2,92,93
 701 639 701 639 762 657 c 1,94,95
 791 668 791 668 820 688 c 1,96,-1
 822 690 l 1,97,98
 857 713 857 713 871 741 c 1,99,100
 891 795 891 795 867 840 c 1,101,102
 852 862 852 862 826 883 c 1,103,104
 803 903 803 903 777 911 c 1,105,106
 666 952 666 952 531 930 c 2,107,-1
 506 926 l 1,108,-1
 496 924 l 1,109,110
 330 883 330 883 234 737 c 1,111,112
 134 592 134 592 164 338 c 1,113,114
 177 250 177 250 201 150 c 1,115,-1
 242 20 l 1,116,-1
 244 10 l 1,117,118
 250 -12 250 -12 236 -23 c 1,119,-1
 216 -31 l 1,120,-1
 197 -31 l 1,121,122
 173 -25 173 -25 154 37 c 1,123,-1
 152 47 l 1,124,-1
 152 49 l 1,125,126
 76 268 76 268 80 479 c 1,127,-1
 80 492 l 1,128,129
 89 776 89 776 314 926 c 1,0,1
EndSplineSet
EndChar

StartChar: b_ma
Encoding: 3374 3374 142
Width: 1115
GlyphClass: 2
Flags: W
LayerCount: 2
Fore
SplineSet
554 938 m 1,0,-1
 554 934 l 1,1,2
 666 887 666 887 701 762 c 1,3,-1
 713 713 l 1,4,-1
 715 645 l 1,5,6
 713 633 713 633 711 616 c 0,7,8
 693 379 693 379 519 190 c 1,9,10
 445 113 445 113 361 68 c 1,11,-1
 361 66 l 1,12,-1
 957 66 l 1,13,-1
 957 412 l 2,14,15
 957 479 957 479 955 551 c 1,16,17
 926 768 926 768 764 874 c 1,18,19
 670 938 670 938 554 938 c 1,0,-1
154 72 m 1,20,21
 369 143 369 143 490 369 c 1,22,23
 541 469 541 469 558 563 c 0,24,25
 582 694 582 694 549 778 c 0,26,27
 533 819 533 819 502 850 c 2,28,-1
 500 852 l 2,29,30
 470 883 470 883 414 887 c 1,31,-1
 412 887 l 1,32,-1
 382 889 l 1,33,-1
 379 889 l 1,34,35
 341 883 341 883 287 823 c 1,36,37
 154 690 154 690 154 453 c 2,38,-1
 154 72 l 1,20,21
279 920 m 1,39,40
 425 1026 425 1026 584 1012 c 1,41,42
 597 1012 597 1012 609 1010 c 1,43,-1
 613 1010 l 1,44,45
 812 985 812 985 934 813 c 1,46,47
 982 741 982 741 1006 664 c 1,48,49
 1037 580 1037 580 1035 401 c 0,50,51
 1035 393 1035 393 1035 387 c 2,52,-1
 1035 78 l 2,53,54
 1035 16 1035 16 1027 8 c 1,55,56
 1025 -6 1025 -6 1004 -10 c 1,57,-1
 154 -10 l 2,58,59
 105 -10 105 -10 91 0 c 1,60,61
 78 12 78 12 80 61 c 1,62,-1
 80 74 l 1,63,-1
 82 498 l 2,64,65
 82 537 82 537 85 573 c 1,66,67
 119 793 119 793 279 920 c 1,39,40
EndSplineSet
EndChar

StartChar: b_ya
Encoding: 3375 3375 143
Width: 1848
GlyphClass: 2
Flags: W
LayerCount: 2
Fore
SplineSet
878 84 m 1,0,-1
 825 131 l 1,1,2
 671 276 671 276 622 537 c 2,3,-1
 581 754 l 1,4,5
 538 893 538 893 460 928 c 1,6,-1
 456 928 l 1,7,8
 426 942 426 942 378 932 c 0,9,10
 356 928 356 928 329 915 c 1,11,12
 196 858 196 858 172 662 c 1,13,14
 151 520 151 520 204 391 c 1,15,16
 233 328 233 328 278 268 c 1,17,18
 407 111 407 111 602 72 c 1,19,20
 677 55 677 55 751 61 c 0,21,22
 788 63 788 63 825 72 c 2,23,-1
 878 84 l 1,0,-1
985 934 m 1,24,25
 845 915 845 915 782 827 c 1,26,-1
 782 825 l 1,27,28
 757 797 757 797 751 766 c 1,29,30
 770 653 770 653 811 455 c 1,31,-1
 845 367 l 1,32,33
 892 254 892 254 946 195 c 2,34,-1
 981 156 l 1,35,36
 993 152 993 152 999 150 c 1,37,38
 1007 150 1007 150 1046 180 c 0,39,40
 1101 221 1101 221 1146 293 c 1,41,42
 1273 471 1273 471 1230 682 c 1,43,44
 1222 737 1222 737 1198 788 c 1,45,46
 1132 913 1132 913 1040 932 c 1,47,-1
 989 934 l 1,48,-1
 985 934 l 1,24,25
1103 80 m 1,49,50
 1271 31 1271 31 1411 96 c 1,51,52
 1482 131 1482 131 1550 199 c 0,53,54
 1626 276 1626 276 1656 362 c 1,55,-1
 1656 367 l 1,56,57
 1703 506 1703 506 1658 653 c 1,58,59
 1638 727 1638 727 1591 807 c 1,60,61
 1544 885 1544 885 1486 952 c 1,62,-1
 1482 952 l 1,63,64
 1472 975 1472 975 1484 989 c 0,65,66
 1488 995 1488 995 1499 1001 c 1,67,-1
 1517 1008 l 1,68,69
 1533 1010 1533 1010 1552 995 c 0,70,71
 1564 985 1564 985 1576 971 c 1,72,-1
 1583 967 l 1,73,74
 1638 905 1638 905 1693 805 c 1,75,76
 1792 608 1792 608 1761 430 c 0,77,78
 1753 379 1753 379 1732 326 c 1,79,80
 1693 215 1693 215 1611 139 c 1,81,82
 1441 -25 1441 -25 1204 -16 c 0,83,84
 1196 -16 1196 -16 1189 -16 c 0,85,86
 1122 -16 1122 -16 1044 4 c 1,87,-1
 987 23 l 1,88,89
 964 20 964 20 940 12 c 0,90,91
 786 -33 786 -33 639 -14 c 0,92,93
 567 -4 567 -4 499 20 c 1,94,95
 489 27 489 27 481 27 c 1,96,97
 260 115 260 115 145 322 c 1,98,99
 88 436 88 436 81 551 c 1,100,101
 73 719 73 719 131 831 c 0,102,103
 161 889 161 889 206 932 c 1,104,105
 245 967 245 967 305 989 c 1,106,-1
 307 993 l 1,107,108
 426 1032 426 1032 552 987 c 1,109,-1
 602 967 l 1,110,111
 639 944 639 944 702 870 c 1,112,-1
 706 862 l 1,113,114
 733 903 733 903 788 942 c 0,115,116
 905 1024 905 1024 1058 1010 c 1,117,-1
 1095 1006 l 1,118,119
 1210 983 1210 983 1284 915 c 1,120,121
 1351 848 1351 848 1388 733 c 1,122,123
 1431 580 1431 580 1386 434 c 0,124,125
 1363 360 1363 360 1316 289 c 1,126,-1
 1286 238 l 1,127,128
 1196 121 1196 121 1103 84 c 1,129,-1
 1103 80 l 1,49,50
EndSplineSet
EndChar

StartChar: b_ra
Encoding: 3376 3376 144
Width: 1152
GlyphClass: 2
Flags: W
LayerCount: 2
Fore
SplineSet
874 721 m 1,0,1
 841 711 841 711 786 666 c 1,2,3
 632 535 632 535 639 303 c 1,4,5
 639 303 639 303 639 295 c 2,6,-1
 645 242 l 2,7,8
 663 88 663 88 733 51 c 1,9,-1
 735 51 l 1,10,-1
 741 49 l 1,11,12
 800 27 800 27 843 80 c 1,13,14
 866 106 866 106 882 154 c 1,15,-1
 895 190 l 1,16,17
 923 307 923 307 923 475 c 1,18,-1
 921 518 l 1,19,20
 915 598 915 598 874 717 c 1,21,-1
 874 721 l 1,0,1
827 782 m 1,22,23
 735 895 735 895 641 924 c 0,24,25
 534 958 534 958 434 918 c 0,26,27
 380 897 380 897 331 860 c 1,28,-1
 325 854 l 1,29,30
 223 770 223 770 186 651 c 1,31,32
 133 492 133 492 178 322 c 1,33,34
 198 238 198 238 243 150 c 1,35,36
 292 84 292 84 319 33 c 1,37,-1
 323 27 l 2,38,39
 337 6 337 6 331 -8 c 0,40,41
 327 -16 327 -16 317 -25 c 0,42,43
 305 -35 305 -35 288 -31 c 0,44,45
 284 -31 284 -31 278 -27 c 1,46,47
 260 -25 260 -25 210 49 c 1,48,49
 131 170 131 170 100 313 c 1,50,51
 61 483 61 483 98 631 c 0,52,53
 116 705 116 705 155 774 c 0,54,55
 198 850 198 850 270 907 c 1,56,-1
 307 938 l 1,57,58
 423 1014 423 1014 552 1014 c 2,59,-1
 555 1014 l 2,60,61
 821 1014 821 1014 968 813 c 1,62,63
 1056 690 1056 690 1069 532 c 0,64,65
 1075 461 1075 461 1069 367 c 1,66,67
 1064 324 1064 324 1058 276 c 2,68,-1
 1056 260 l 1,69,70
 1036 123 1036 123 987 61 c 1,71,72
 927 -25 927 -25 813 -33 c 1,73,-1
 811 -33 l 1,74,75
 745 -39 745 -39 698 -14 c 1,76,77
 579 45 579 45 567 248 c 1,78,-1
 567 256 l 1,79,80
 561 371 561 371 567 424 c 1,81,82
 595 604 595 604 737 723 c 1,83,84
 786 768 786 768 827 782 c 1,22,23
EndSplineSet
EndChar

StartChar: b_rha
Encoding: 3377 3377 145
Width: 1150
GlyphClass: 2
Flags: W
LayerCount: 2
Fore
SplineSet
260 903 m 1,0,1
 407 1030 407 1030 606 1012 c 1,2,-1
 641 1008 l 1,3,4
 860 971 860 971 983 782 c 1,5,6
 1089 625 1089 625 1067 414 c 1,7,8
 1062 381 1062 381 1056 346 c 0,9,10
 1028 184 1028 184 944 61 c 1,11,12
 897 -4 897 -4 882 -16 c 1,13,-1
 862 -27 l 1,14,15
 829 -39 829 -39 800 -35 c 0,16,17
 786 -33 786 -33 770 -25 c 1,18,19
 747 -16 747 -16 747 6 c 1,20,21
 751 25 751 25 768 37 c 1,22,23
 925 254 925 254 921 494 c 1,24,-1
 921 510 l 1,25,26
 915 692 915 692 794 823 c 1,27,28
 731 893 731 893 643 924 c 0,29,30
 538 961 538 961 436 920 c 0,31,32
 380 897 380 897 329 858 c 1,33,-1
 327 856 l 1,34,35
 223 774 223 774 186 651 c 1,36,37
 135 496 135 496 174 332 c 1,38,39
 192 246 192 246 235 160 c 1,40,41
 276 96 276 96 323 25 c 1,42,-1
 325 25 l 1,43,44
 335 2 335 2 329 -10 c 0,45,46
 325 -18 325 -18 315 -25 c 1,47,-1
 294 -33 l 1,48,49
 264 -33 264 -33 223 33 c 1,50,-1
 213 45 l 1,51,52
 129 170 129 170 98 326 c 1,53,54
 61 494 61 494 100 639 c 1,55,56
 116 711 116 711 155 776 c 0,57,58
 198 848 198 848 260 903 c 1,0,1
EndSplineSet
EndChar

StartChar: b_la
Encoding: 3378 3378 146
Width: 1707
GlyphClass: 2
Flags: W
LayerCount: 2
Fore
SplineSet
228 453 m 1,0,-1
 908 453 l 1,1,2
 877 662 877 662 826 760 c 1,3,-1
 816 778 l 1,4,-1
 809 780 l 1,5,-1
 805 788 l 1,6,7
 726 907 726 907 601 934 c 1,8,9
 539 944 539 944 490 930 c 0,10,11
 461 922 461 922 435 905 c 1,12,13
 263 801 263 801 232 479 c 1,14,-1
 228 453 l 1,0,-1
1481 66 m 1,15,-1
 1481 905 l 1,16,-1
 1487 958 l 1,17,18
 1504 995 1504 995 1559 991 c 1,19,20
 1565 989 1565 989 1571 989 c 0,21,22
 1614 983 1614 983 1627 958 c 1,23,-1
 1627 20 l 1,24,25
 1614 -12 1614 -12 1504 -10 c 1,26,-1
 211 -10 l 1,27,-1
 121 -6 l 1,28,-1
 99 4 l 1,29,30
 80 20 80 20 80 66 c 2,31,-1
 80 467 l 1,32,33
 105 784 105 784 277 922 c 1,34,35
 371 1004 371 1004 519 1014 c 1,36,-1
 592 1012 l 1,37,38
 857 981 857 981 949 653 c 1,39,40
 979 553 979 553 979 463 c 2,41,-1
 979 455 l 1,42,-1
 975 395 l 1,43,-1
 969 391 l 1,44,45
 959 377 959 377 918 377 c 2,46,-1
 228 377 l 1,47,-1
 228 66 l 1,48,-1
 1481 66 l 1,15,-1
EndSplineSet
EndChar

StartChar: b_lha
Encoding: 3379 3379 147
Width: 1255
GlyphClass: 2
Flags: W
LayerCount: 2
Fore
SplineSet
373 549 m 1,0,1
 267 530 267 530 224 406 c 1,2,3
 189 299 189 299 230 184 c 0,4,5
 261 100 261 100 353 94 c 1,6,-1
 400 96 l 1,7,8
 467 109 467 109 500 170 c 1,9,-1
 502 172 l 1,10,11
 545 264 545 264 533 356 c 0,12,13
 527 395 527 395 508 438 c 1,14,15
 463 549 463 549 386 549 c 2,16,-1
 373 549 l 1,0,1
164 453 m 1,17,18
 171 485 171 485 209 532 c 0,19,20
 257 592 257 592 322 614 c 1,21,22
 402 639 402 639 478 618 c 1,23,24
 517 606 517 606 553 582 c 2,25,-1
 556 580 l 2,26,27
 599 551 599 551 627 508 c 1,28,-1
 627 504 l 1,29,30
 701 385 701 385 680 272 c 0,31,32
 672 233 672 233 656 199 c 1,33,34
 615 102 615 102 506 47 c 1,35,36
 451 18 451 18 396 18 c 2,37,-1
 394 18 l 2,38,39
 330 18 330 18 279 39 c 1,40,41
 84 139 84 139 80 369 c 1,42,-1
 80 371 l 2,43,44
 80 608 80 608 218 795 c 1,45,46
 349 979 349 979 545 1008 c 1,47,-1
 547 1008 l 1,48,49
 607 1016 607 1016 660 1012 c 1,50,51
 674 1012 674 1012 689 1010 c 1,52,-1
 697 1010 l 1,53,54
 947 985 947 985 1059 852 c 0,55,56
 1137 758 1137 758 1121 639 c 0,57,58
 1117 616 1117 616 1111 594 c 0,59,60
 1094 528 1094 528 1055 477 c 1,61,-1
 1051 475 l 1,62,63
 1008 420 1008 420 963 399 c 1,64,-1
 963 393 l 1,65,66
 1012 377 1012 377 1049 342 c 1,67,-1
 1049 340 l 1,68,69
 1131 272 1131 272 1143 236 c 1,70,71
 1152 205 1152 205 1152 160 c 2,72,-1
 1152 156 l 2,73,74
 1152 -12 1152 -12 977 -57 c 1,75,76
 934 -70 934 -70 791 -82 c 1,77,-1
 361 -82 l 2,78,79
 254 -82 254 -82 201 -127 c 0,80,81
 164 -158 164 -158 168 -188 c 1,82,83
 175 -211 175 -211 218 -233 c 1,84,85
 271 -264 271 -264 357 -264 c 2,86,-1
 1090 -264 l 1,87,-1
 1147 -268 l 1,88,89
 1182 -289 1182 -289 1174 -344 c 1,90,91
 1174 -352 1174 -352 1172 -362 c 1,92,-1
 1168 -373 l 1,93,94
 1158 -412 1158 -412 1104 -412 c 1,95,96
 1119 -412 1119 -412 1092 -412 c 2,97,-1
 482 -412 l 2,98,99
 314 -412 314 -412 281 -406 c 1,100,-1
 259 -403 l 1,101,102
 136 -373 136 -373 97 -256 c 1,103,104
 89 -223 89 -223 91 -184 c 0,105,106
 91 -180 91 -180 91 -174 c 2,107,-1
 91 -172 l 1,108,109
 97 -74 97 -74 218 -27 c 1,110,-1
 222 -25 l 1,111,112
 275 -8 275 -8 326 -8 c 2,113,-1
 637 -8 l 2,114,115
 758 -8 758 -8 791 -2 c 1,116,117
 900 14 900 14 924 25 c 0,118,119
 957 41 957 41 975 68 c 1,120,121
 1033 145 1033 145 1010 211 c 1,122,123
 998 242 998 242 967 270 c 1,124,125
 916 309 916 309 885 326 c 1,126,-1
 885 328 l 1,127,128
 855 342 855 342 799 352 c 1,129,-1
 746 358 l 1,130,131
 719 365 719 365 713 387 c 1,132,-1
 713 395 l 1,133,134
 719 422 719 422 771 428 c 1,135,-1
 793 430 l 2,136,137
 820 432 820 432 852 451 c 1,138,-1
 857 453 l 1,139,140
 957 516 957 516 973 647 c 0,141,142
 982 715 982 715 959 768 c 1,143,144
 947 799 947 799 924 823 c 1,145,146
 852 903 852 903 709 932 c 1,147,148
 662 940 662 940 617 938 c 1,149,-1
 605 938 l 1,150,151
 400 924 400 924 265 723 c 1,152,153
 181 602 181 602 162 453 c 1,154,-1
 164 453 l 1,17,18
EndSplineSet
EndChar

StartChar: b_zha
Encoding: 3380 3380 148
Width: 1237
GlyphClass: 2
Flags: W
LayerCount: 2
Fore
SplineSet
808 461 m 1,0,1
 874 467 874 467 956 518 c 0,2,3
 1024 561 1024 561 1056 629 c 1,4,5
 1091 700 1091 700 1079 768 c 0,6,7
 1073 805 1073 805 1052 838 c 1,8,9
 1046 860 1046 860 1030 874 c 1,10,11
 983 934 983 934 911 938 c 1,12,-1
 876 934 l 1,13,14
 794 909 794 909 763 801 c 1,15,-1
 761 782 l 1,16,17
 747 721 747 721 761 639 c 1,18,19
 770 602 770 602 784 557 c 1,20,21
 782 559 782 559 784 555 c 0,22,23
 786 547 786 547 786 543 c 1,24,-1
 808 461 l 1,0,1
837 385 m 1,25,26
 864 279 864 279 827 184 c 1,27,28
 811 137 811 137 778 94 c 1,29,30
 749 59 749 59 714 35 c 1,31,-1
 682 10 l 1,32,33
 577 -49 577 -49 464 -33 c 1,34,35
 434 -27 434 -27 401 -16 c 0,36,37
 350 0 350 0 317 25 c 1,38,39
 260 63 260 63 251 90 c 0,40,41
 245 111 245 111 256 123 c 0,42,43
 262 129 262 129 272 135 c 1,44,45
 278 137 278 137 296 137 c 1,46,-1
 348 98 l 1,47,-1
 350 96 l 1,48,49
 423 41 423 41 501 45 c 1,50,-1
 514 45 l 1,51,52
 616 57 616 57 671 172 c 1,53,54
 702 233 702 233 698 301 c 0,55,56
 698 305 698 305 698 311 c 0,57,58
 698 346 698 346 688 352 c 1,59,-1
 655 354 l 1,60,-1
 630 352 l 1,61,-1
 626 352 l 2,62,63
 522 352 522 352 479 360 c 0,64,65
 258 399 258 399 149 537 c 1,66,67
 108 586 108 586 92 651 c 1,68,69
 65 745 65 745 98 829 c 1,70,71
 112 870 112 870 143 907 c 1,72,-1
 145 909 l 1,73,74
 184 956 184 956 225 977 c 1,75,76
 286 1016 286 1016 342 1012 c 1,77,-1
 344 1012 l 1,78,79
 397 1006 397 1006 403 979 c 1,80,-1
 401 969 l 1,81,-1
 401 967 l 1,82,83
 395 952 395 952 354 936 c 0,84,85
 337 930 337 930 296 899 c 1,86,87
 215 819 215 819 231 705 c 1,88,89
 235 686 235 686 239 666 c 1,90,-1
 249 631 l 1,91,92
 296 489 296 489 491 442 c 1,93,-1
 577 428 l 1,94,-1
 675 432 l 1,95,96
 622 555 622 555 608 672 c 0,97,98
 593 791 593 791 643 872 c 0,99,100
 669 915 669 915 710 950 c 1,101,102
 792 1014 792 1014 895 1014 c 0,103,104
 1046 1014 1046 1014 1120 877 c 1,105,-1
 1122 877 l 1,106,107
 1169 784 1169 784 1153 690 c 0,108,109
 1146 653 1146 653 1132 616 c 1,110,-1
 1128 596 l 1,111,-1
 1124 592 l 1,112,113
 1091 526 1091 526 1019 467 c 1,114,-1
 1017 467 l 1,115,116
 915 397 915 397 837 385 c 1,25,26
EndSplineSet
EndChar

StartChar: b_va
Encoding: 3381 3381 149
Width: 1759
GlyphClass: 2
Flags: W
LayerCount: 2
Fore
SplineSet
1536 66 m 1,0,-1
 1536 909 l 1,1,-1
 1538 963 l 1,2,3
 1560 995 1560 995 1615 989 c 0,4,5
 1624 989 1624 989 1632 987 c 2,6,-1
 1646 985 l 1,7,8
 1679 967 1679 967 1679 928 c 2,9,-1
 1679 25 l 1,10,-1
 1675 18 l 1,11,12
 1660 -18 1660 -18 1513 -12 c 1,13,-1
 1474 -10 l 1,14,-1
 966 -10 l 1,15,-1
 823 -33 l 1,16,-1
 819 -33 l 2,17,18
 786 -33 786 -33 770 -25 c 1,19,20
 741 -14 741 -14 745 18 c 1,21,-1
 798 88 l 1,22,-1
 806 100 l 1,23,24
 919 274 919 274 919 485 c 2,25,-1
 919 487 l 2,26,27
 919 569 919 569 895 647 c 1,28,29
 841 811 841 811 710 889 c 1,30,31
 616 950 616 950 505 934 c 1,32,33
 481 932 481 932 454 924 c 0,34,35
 317 883 317 883 233 756 c 1,36,37
 129 606 129 606 159 406 c 1,38,39
 165 356 165 356 182 303 c 1,40,41
 190 250 190 250 217 190 c 1,42,43
 251 127 251 127 315 35 c 1,44,45
 331 10 331 10 325 -8 c 0,46,47
 323 -16 323 -16 315 -25 c 1,48,49
 288 -45 288 -45 258 -16 c 1,50,51
 241 -2 241 -2 223 25 c 1,52,-1
 221 27 l 1,53,54
 86 219 86 219 81 455 c 1,55,56
 73 604 73 604 129 725 c 1,57,58
 155 786 155 786 196 838 c 0,59,60
 278 944 278 944 397 987 c 1,61,62
 534 1034 534 1034 663 1004 c 1,63,64
 731 987 731 987 798 952 c 1,65,-1
 802 950 l 1,66,67
 987 850 987 850 1044 653 c 0,68,69
 1089 494 1089 494 1054 338 c 1,70,71
 1038 254 1038 254 997 170 c 1,72,-1
 997 168 l 1,73,74
 968 102 968 102 942 66 c 1,75,-1
 1536 66 l 1,0,-1
EndSplineSet
EndChar

StartChar: b_sha
Encoding: 3382 3382 150
Width: 1673
GlyphClass: 2
Flags: W
LayerCount: 2
Fore
SplineSet
1402 723 m 1,0,1
 1364 713 1364 713 1312 666 c 1,2,3
 1154 532 1154 532 1166 291 c 1,4,5
 1168 281 1168 281 1168 268 c 2,6,-1
 1170 242 l 1,7,8
 1188 104 1188 104 1238 66 c 1,9,-1
 1240 66 l 1,10,-1
 1242 61 l 1,11,12
 1262 47 1262 47 1282 45 c 1,13,14
 1338 33 1338 33 1376 92 c 1,15,16
 1394 123 1394 123 1412 170 c 1,17,-1
 1414 174 l 1,18,-1
 1418 188 l 1,19,20
 1436 244 1436 244 1442 375 c 1,21,-1
 1442 381 l 1,22,23
 1452 528 1452 528 1432 629 c 0,24,25
 1422 682 1422 682 1402 723 c 1,0,1
1368 793 m 1,26,27
 1334 872 1334 872 1254 915 c 1,28,-1
 1210 932 l 1,29,30
 1128 950 1128 950 1056 897 c 1,31,32
 1024 870 1024 870 990 823 c 1,33,-1
 988 823 l 1,34,-1
 954 764 l 1,35,36
 908 670 908 670 892 535 c 1,37,-1
 888 408 l 1,38,39
 854 141 854 141 688 27 c 1,40,41
 580 -43 580 -43 446 -31 c 0,42,43
 434 -29 434 -29 418 -27 c 0,44,45
 228 -2 228 -2 136 211 c 0,46,47
 110 270 110 270 104 313 c 1,48,49
 56 502 56 502 104 655 c 1,50,51
 132 735 132 735 184 807 c 1,52,53
 256 915 256 915 390 987 c 1,54,55
 452 1016 452 1016 484 1008 c 1,56,57
 508 993 508 993 502 969 c 1,58,59
 502 963 502 963 498 956 c 0,60,61
 492 942 492 942 476 936 c 0,62,63
 370 895 370 895 308 838 c 1,64,65
 152 698 152 698 154 465 c 1,66,67
 162 416 162 416 166 365 c 1,68,69
 206 154 206 154 344 78 c 1,70,71
 416 37 416 37 474 43 c 0,72,73
 482 43 482 43 490 45 c 0,74,75
 642 70 642 70 708 274 c 1,76,77
 726 319 726 319 736 373 c 1,78,79
 740 465 740 465 756 616 c 1,80,81
 800 850 800 850 954 950 c 1,82,-1
 956 952 l 1,83,84
 1020 997 1020 997 1108 1010 c 1,85,86
 1212 1024 1212 1024 1298 995 c 1,87,88
 1344 981 1344 981 1386 952 c 0,89,90
 1622 795 1622 795 1590 354 c 1,91,-1
 1582 274 l 1,92,93
 1560 84 1560 84 1468 16 c 1,94,95
 1398 -37 1398 -37 1304 -33 c 1,96,-1
 1298 -33 l 1,97,-1
 1268 -31 l 1,98,99
 1126 -6 1126 -6 1096 221 c 1,100,101
 1086 322 1086 322 1090 385 c 0,102,103
 1092 406 1092 406 1094 424 c 1,104,105
 1122 588 1122 588 1240 700 c 1,106,107
 1316 778 1316 778 1368 793 c 1,26,27
EndSplineSet
EndChar

StartChar: b_Sha
Encoding: 3383 3383 151
Width: 2024
GlyphClass: 2
Flags: W
LayerCount: 2
Fore
SplineSet
1274 563 m 1,0,-1
 1274 770 l 2,1,2
 1274 877 1274 877 1192 934 c 1,3,-1
 1160 952 l 1,4,5
 1113 969 1113 969 1068 950 c 0,6,7
 1043 940 1043 940 1018 920 c 1,8,-1
 1004 905 l 1,9,10
 932 834 932 834 943 733 c 1,11,12
 943 733 943 733 947 713 c 0,13,14
 963 633 963 633 1018 590 c 0,15,16
 1080 541 1080 541 1203 555 c 1,17,18
 1229 555 1229 555 1260 561 c 1,19,-1
 1274 563 l 1,0,-1
1795 788 m 1,20,21
 1639 627 1639 627 1504 559 c 1,22,-1
 1496 557 l 1,23,24
 1453 541 1453 541 1424 522 c 1,25,26
 1420 498 1420 498 1420 487 c 2,27,-1
 1420 66 l 1,28,-1
 1797 66 l 1,29,-1
 1799 608 l 1,30,31
 1797 700 1797 700 1795 788 c 1,20,21
1274 487 m 1,32,33
 1133 475 1133 475 1129 475 c 2,34,-1
 1117 475 l 1,35,-1
 1057 485 l 1,36,37
 930 520 930 520 883 659 c 1,38,39
 838 797 838 797 914 918 c 0,40,41
 934 948 934 948 963 973 c 0,42,43
 1053 1051 1053 1051 1178 1032 c 1,44,45
 1199 1030 1199 1030 1219 1024 c 0,46,47
 1285 1006 1285 1006 1334 963 c 0,48,49
 1393 911 1393 911 1412 838 c 1,50,51
 1420 815 1420 815 1420 743 c 2,52,-1
 1420 606 l 1,53,-1
 1559 680 l 1,54,55
 1692 768 1692 768 1784 905 c 1,56,57
 1795 918 1795 918 1797 934 c 1,58,59
 1797 979 1797 979 1807 987 c 1,60,61
 1825 1020 1825 1020 1876 1014 c 1,62,-1
 1897 1010 l 1,63,-1
 1913 1004 l 1,64,65
 1942 991 1942 991 1944 950 c 1,66,-1
 1944 66 l 2,67,68
 1944 20 1944 20 1922 2 c 1,69,-1
 1913 -2 l 1,70,71
 1895 -12 1895 -12 1819 -10 c 1,72,-1
 1809 -10 l 1,73,-1
 820 -10 l 1,74,-1
 691 -12 l 1,75,-1
 572 -33 l 1,76,77
 531 -37 531 -37 508 -25 c 1,78,-1
 492 -12 l 1,79,-1
 490 -10 l 1,80,81
 480 2 480 2 488 14 c 1,82,83
 492 23 492 23 504 33 c 0,84,85
 574 90 574 90 611 160 c 1,86,87
 672 264 672 264 654 383 c 0,88,89
 650 414 650 414 640 446 c 1,90,91
 627 502 627 502 588 549 c 1,92,93
 510 659 510 659 396 641 c 0,94,95
 384 639 384 639 369 637 c 1,96,-1
 365 637 l 1,97,98
 238 606 238 606 185 467 c 1,99,100
 156 414 156 414 156 352 c 1,101,102
 152 252 152 252 197 168 c 1,103,104
 224 123 224 123 263 82 c 1,105,-1
 320 33 l 1,106,-1
 326 25 l 1,107,108
 338 4 338 4 330 -10 c 0,109,110
 326 -18 326 -18 316 -25 c 1,111,-1
 289 -33 l 1,112,113
 271 -27 271 -27 232 4 c 1,114,115
 166 68 166 68 128 139 c 1,116,117
 66 264 66 264 84 391 c 0,118,119
 91 438 91 438 105 481 c 0,120,121
 142 592 142 592 228 655 c 1,122,123
 310 721 310 721 441 721 c 0,124,125
 576 721 576 721 678 633 c 0,126,127
 809 520 809 520 803 334 c 0,128,129
 803 330 803 330 803 324 c 0,130,131
 801 174 801 174 707 66 c 1,132,-1
 1274 66 l 1,133,-1
 1274 487 l 1,32,33
EndSplineSet
EndChar

StartChar: b_sa
Encoding: 3384 3384 152
Width: 2169
GlyphClass: 2
Flags: W
LayerCount: 2
Fore
SplineSet
829 782 m 1,0,1
 876 920 876 920 985 977 c 1,2,3
 1077 1028 1077 1028 1181 1012 c 1,4,5
 1220 1004 1220 1004 1263 987 c 1,6,7
 1339 954 1339 954 1386 895 c 2,8,-1
 1394 885 l 2,9,10
 1480 776 1480 776 1503 571 c 1,11,-1
 1507 432 l 1,12,13
 1517 274 1517 274 1574 174 c 0,14,15
 1660 25 1660 25 1781 49 c 0,16,17
 1796 51 1796 51 1810 57 c 1,18,-1
 1812 57 l 1,19,20
 1947 106 1947 106 1994 336 c 1,21,22
 2033 537 2033 537 1974 713 c 0,23,24
 1943 803 1943 803 1888 885 c 1,25,-1
 1861 920 l 1,26,27
 1835 963 1835 963 1832 969 c 1,28,29
 1828 985 1828 985 1839 997 c 1,30,31
 1857 1024 1857 1024 1886 1008 c 1,32,33
 1900 997 1900 997 1919 977 c 1,34,35
 1994 881 1994 881 2027 782 c 1,36,37
 2129 537 2129 537 2064 279 c 1,38,-1
 2031 188 l 1,39,40
 1998 111 1998 111 1957 66 c 0,41,42
 1855 -47 1855 -47 1706 -31 c 1,43,-1
 1677 -27 l 2,44,45
 1622 -20 1622 -20 1566 10 c 1,46,47
 1392 109 1392 109 1361 414 c 1,48,-1
 1355 551 l 1,49,50
 1349 647 1349 647 1323 723 c 1,51,52
 1323 731 1323 731 1320 733 c 1,53,54
 1255 920 1255 920 1136 936 c 1,55,-1
 1091 934 l 2,56,57
 1085 934 1085 934 1081 932 c 1,58,-1
 1079 932 l 1,59,60
 960 901 960 901 899 743 c 1,61,-1
 899 741 l 1,62,63
 876 680 876 680 878 639 c 1,64,-1
 882 610 l 1,65,66
 895 545 895 545 892 301 c 0,67,68
 892 285 892 285 892 264 c 2,69,-1
 890 25 l 1,70,-1
 888 18 l 1,71,72
 872 -14 872 -14 815 -10 c 1,73,-1
 806 -10 l 1,74,75
 768 -8 768 -8 751 16 c 1,76,-1
 747 18 l 1,77,-1
 745 518 l 1,78,-1
 745 520 l 1,79,80
 735 688 735 688 667 793 c 1,81,82
 583 938 583 938 464 938 c 0,83,84
 331 938 331 938 241 803 c 1,85,-1
 217 764 l 1,86,87
 133 598 133 598 159 403 c 1,88,89
 172 330 172 330 196 250 c 1,90,91
 233 158 233 158 276 90 c 1,92,-1
 321 27 l 1,93,-1
 325 20 l 1,94,95
 335 -2 335 -2 323 -14 c 1,96,97
 317 -23 317 -23 305 -27 c 1,98,99
 294 -35 294 -35 284 -33 c 0,100,101
 278 -31 278 -31 274 -27 c 1,102,103
 256 -20 256 -20 223 31 c 1,104,-1
 221 33 l 1,105,106
 88 221 88 221 81 475 c 1,107,108
 75 594 75 594 104 696 c 1,109,110
 122 752 122 752 149 803 c 1,111,-1
 151 805 l 1,112,113
 215 928 215 928 321 979 c 1,114,115
 415 1028 415 1028 522 1014 c 1,116,117
 565 1006 565 1006 614 989 c 1,118,-1
 616 989 l 1,119,120
 661 971 661 971 702 942 c 1,121,122
 770 897 770 897 829 782 c 1,0,1
EndSplineSet
EndChar

StartChar: b_ha
Encoding: 3385 3385 153
Width: 2113
GlyphClass: 2
Flags: W
LayerCount: 2
Fore
SplineSet
1168 57 m 1,0,1
 1113 162 1113 162 1088 221 c 1,2,3
 1023 403 1023 403 1045 565 c 1,4,5
 1057 643 1057 643 1090 719 c 1,6,-1
 1092 721 l 1,7,-1
 1102 745 l 1,8,9
 1170 881 1170 881 1291 950 c 1,10,11
 1432 1034 1432 1034 1592 1010 c 0,12,13
 1635 1004 1635 1004 1676 991 c 0,14,15
 1827 940 1827 940 1922 823 c 1,16,17
 2061 639 2061 639 2026 389 c 0,18,19
 2020 342 2020 342 2008 293 c 0,20,21
 1967 135 1967 135 1874 18 c 1,22,23
 1842 -27 1842 -27 1807 -33 c 1,24,25
 1745 -37 1745 -37 1725 -20 c 1,26,27
 1713 -12 1713 -12 1711 0 c 1,28,-1
 1711 6 l 1,29,-1
 1760 80 l 1,30,-1
 1762 82 l 1,31,32
 1887 268 1887 268 1883 483 c 1,33,-1
 1883 492 l 1,34,35
 1877 670 1877 670 1780 795 c 1,36,37
 1653 956 1653 956 1473 934 c 1,38,-1
 1444 928 l 1,39,-1
 1432 926 l 1,40,41
 1260 885 1260 885 1172 707 c 0,42,43
 1125 612 1125 612 1119 508 c 1,44,-1
 1119 506 l 1,45,46
 1113 371 1113 371 1164 238 c 1,47,48
 1193 170 1193 170 1233 104 c 1,49,-1
 1238 98 l 1,50,-1
 1238 96 l 1,51,-1
 1283 33 l 2,52,53
 1299 10 1299 10 1293 -6 c 0,54,55
 1289 -14 1289 -14 1281 -23 c 1,56,-1
 1272 -27 l 1,57,58
 1262 -35 1262 -35 1244 -33 c 0,59,60
 1233 -31 1233 -31 1219 -27 c 1,61,-1
 1109 -10 l 1,62,-1
 865 -10 l 2,63,64
 697 -10 697 -10 654 -18 c 0,65,66
 566 -35 566 -35 531 -33 c 1,67,-1
 525 -31 l 1,68,69
 492 -25 492 -25 486 -4 c 1,70,71
 482 6 482 6 492 20 c 0,72,73
 498 29 498 29 508 37 c 1,74,-1
 515 45 l 1,75,76
 570 84 570 84 605 150 c 1,77,78
 672 272 672 272 652 393 c 1,79,80
 648 424 648 424 638 455 c 0,81,82
 619 512 619 512 584 551 c 1,83,84
 504 657 504 657 390 639 c 1,85,86
 377 639 377 639 365 637 c 1,87,-1
 361 637 l 1,88,89
 234 606 234 606 177 467 c 0,90,91
 154 410 154 410 154 352 c 1,92,93
 150 256 150 256 195 172 c 0,94,95
 218 129 218 129 255 90 c 1,96,97
 265 78 265 78 324 25 c 1,98,99
 341 -4 341 -4 318 -25 c 1,100,-1
 312 -27 l 1,101,102
 295 -39 295 -39 273 -27 c 1,103,104
 259 -18 259 -18 240 -4 c 1,105,106
 166 57 166 57 128 139 c 1,107,108
 64 264 64 264 85 393 c 0,109,110
 91 436 91 436 103 477 c 0,111,112
 130 575 130 575 207 641 c 0,113,114
 322 739 322 739 470 721 c 1,115,116
 492 717 492 717 515 711 c 0,117,118
 678 674 678 674 756 535 c 1,119,-1
 760 528 l 1,120,121
 822 414 822 414 801 287 c 1,122,123
 795 242 795 242 781 197 c 0,124,125
 758 127 758 127 707 66 c 1,126,-1
 1133 66 l 1,127,-1
 1168 57 l 1,0,1
EndSplineSet
EndChar

StartChar: m_aa
Encoding: 3390 3390 158
Width: 883
GlyphClass: 2
Flags: W
LayerCount: 2
Fore
SplineSet
384 1012 m 1,0,1
 476 1026 476 1026 556 991 c 1,2,3
 596 977 596 977 631 950 c 1,4,-1
 650 934 l 1,5,6
 805 799 805 799 803 479 c 1,7,-1
 801 414 l 1,8,9
 789 207 789 207 685 82 c 0,10,11
 594 -27 594 -27 457 -33 c 1,12,13
 316 -37 316 -37 220 33 c 1,14,15
 173 63 173 63 136 115 c 0,16,17
 99 166 99 166 82 225 c 1,18,-1
 82 229 l 1,19,20
 76 256 76 256 89 270 c 1,21,22
 95 279 95 279 105 283 c 0,23,24
 121 289 121 289 134 283 c 1,25,-1
 148 268 l 1,26,-1
 164 229 l 1,27,28
 201 121 201 121 310 68 c 1,29,30
 363 41 363 41 410 43 c 1,31,32
 416 45 416 45 420 45 c 0,33,34
 541 45 541 45 617 231 c 1,35,36
 672 381 672 381 656 557 c 0,37,38
 652 608 652 608 642 659 c 1,39,40
 594 864 594 864 480 924 c 1,41,-1
 457 932 l 1,42,43
 398 950 398 950 330 924 c 1,44,45
 295 909 295 909 259 885 c 1,46,-1
 257 881 l 1,47,-1
 216 842 l 1,48,49
 191 811 191 811 166 760 c 1,50,-1
 150 713 l 1,51,52
 138 690 138 690 115 694 c 0,53,54
 111 694 111 694 105 696 c 0,55,56
 70 709 70 709 84 758 c 0,57,58
 93 786 93 786 113 823 c 1,59,60
 187 975 187 975 363 1008 c 2,61,-1
 384 1012 l 1,0,1
EndSplineSet
EndChar

StartChar: m_i
Encoding: 3391 3391 159
Width: 483
GlyphClass: 2
Flags: W
LayerCount: 2
Fore
SplineSet
18 1382 m 1,0,1
 92 1393 92 1393 157 1362 c 1,2,3
 192 1348 192 1348 227 1323 c 1,4,-1
 241 1311 l 1,5,6
 327 1245 327 1245 366 1135 c 1,7,8
 403 1036 403 1036 403 821 c 2,9,-1
 403 82 l 2,10,11
 403 27 403 27 397 14 c 1,12,13
 387 -2 387 -2 376 -4 c 2,14,-1
 368 -6 l 2,15,16
 319 -18 319 -18 290 -12 c 1,17,18
 276 -8 276 -8 268 0 c 1,19,-1
 255 8 l 1,20,21
 247 18 247 18 249 63 c 0,22,23
 249 72 249 72 249 78 c 2,24,-1
 249 797 l 2,25,26
 249 1063 249 1063 235 1114 c 1,27,-1
 208 1204 l 2,28,29
 188 1272 188 1272 92 1309 c 0,30,31
 79 1315 79 1315 55 1313 c 1,32,33
 42 1313 42 1313 26 1311 c 0,34,35
 -95 1298 -95 1298 -191 1208 c 1,36,-1
 -193 1204 l 1,37,38
 -201 1192 -201 1192 -216 1159 c 1,39,-1
 -222 1114 l 1,40,41
 -234 1100 -234 1100 -269 1100 c 1,42,43
 -293 1102 -293 1102 -300 1139 c 1,44,45
 -300 1190 -300 1190 -263 1239 c 1,46,47
 -191 1358 -191 1358 18 1382 c 1,0,1
EndSplineSet
EndChar

StartChar: m_ii
Encoding: 3392 3392 160
Width: 459
GlyphClass: 2
Flags: W
LayerCount: 2
Fore
SplineSet
-142 1292 m 2,0,1
 -213 1286 -213 1286 -228 1227 c 1,2,-1
 -230 1192 l 1,3,-1
 -230 1190 l 1,4,5
 -211 1139 -211 1139 -156 1120 c 1,6,-1
 -117 1116 l 1,7,-1
 -115 1116 l 1,8,9
 -66 1126 -66 1126 -49 1151 c 0,10,11
 -25 1188 -25 1188 -31 1227 c 0,12,13
 -31 1233 -31 1233 -31 1237 c 1,14,15
 -49 1296 -49 1296 -119 1294 c 1,16,-1
 -142 1292 l 2,0,1
-35 1319 m 1,17,18
 30 1290 30 1290 49 1237 c 0,19,20
 59 1208 59 1208 57 1184 c 1,21,-1
 53 1161 l 1,22,23
 22 1071 22 1071 -58 1055 c 1,24,-1
 -66 1053 l 2,25,26
 -109 1042 -109 1042 -152 1051 c 0,27,28
 -172 1055 -172 1055 -195 1063 c 1,29,30
 -301 1108 -301 1108 -301 1231 c 1,31,32
 -303 1251 -303 1251 -287 1280 c 1,33,34
 -277 1296 -277 1296 -262 1313 c 0,35,36
 -189 1393 -189 1393 24 1384 c 1,37,-1
 45 1384 l 1,38,39
 176 1382 176 1382 250 1298 c 1,40,41
 377 1147 377 1147 379 901 c 1,42,-1
 379 68 l 2,43,44
 379 20 379 20 370 8 c 1,45,-1
 350 -6 l 1,46,47
 313 -20 313 -20 254 -6 c 1,48,49
 237 0 237 0 229 8 c 1,50,51
 223 20 223 20 225 80 c 1,52,-1
 225 768 l 2,53,54
 225 981 225 981 213 1075 c 1,55,56
 184 1262 184 1262 76 1305 c 0,57,58
 53 1315 53 1315 12 1315 c 1,59,-1
 -35 1319 l 1,17,18
EndSplineSet
EndChar

StartChar: m_u
Encoding: 3393 3393 161
Width: 612
GlyphClass: 2
Flags: W
LayerCount: 2
Fore
SplineSet
246 -6 m 1,0,-1
 280 217 l 1,1,2
 306 348 306 348 300 514 c 0,3,4
 298 563 298 563 294 616 c 1,5,6
 276 774 276 774 170 887 c 1,7,-1
 88 950 l 2,8,9
 72 963 72 963 74 979 c 1,10,-1
 74 983 l 1,11,12
 84 1016 84 1016 136 1016 c 2,13,-1
 138 1016 l 2,14,15
 168 1016 168 1016 240 969 c 0,16,17
 282 942 282 942 316 907 c 1,18,19
 404 803 404 803 430 676 c 1,20,-1
 440 616 l 2,21,22
 452 543 452 543 446 408 c 0,23,24
 442 340 442 340 434 256 c 2,25,-1
 430 213 l 1,26,27
 418 49 418 49 402 -31 c 1,28,-1
 504 -90 l 1,29,30
 586 -160 586 -160 606 -272 c 0,31,32
 614 -317 614 -317 612 -365 c 1,33,34
 610 -387 610 -387 606 -414 c 1,35,-1
 606 -420 l 1,36,37
 574 -551 574 -551 482 -602 c 1,38,-1
 438 -625 l 1,39,40
 328 -662 328 -662 242 -649 c 0,41,42
 204 -643 204 -643 170 -629 c 1,43,44
 28 -565 28 -565 0 -410 c 1,45,46
 -14 -326 -14 -326 0 -260 c 1,47,48
 8 -229 8 -229 20 -205 c 1,49,-1
 30 -193 l 1,50,51
 106 -78 106 -78 170 -43 c 0,52,53
 196 -29 196 -29 246 -6 c 1,0,-1
260 -147 m 1,54,55
 146 -168 146 -168 110 -291 c 1,56,57
 100 -330 100 -330 104 -371 c 1,58,59
 104 -389 104 -389 110 -412 c 1,60,61
 144 -518 144 -518 230 -549 c 1,62,63
 318 -569 318 -569 378 -541 c 1,64,65
 406 -522 406 -522 428 -492 c 0,66,67
 486 -410 486 -410 470 -305 c 1,68,69
 458 -254 458 -254 430 -197 c 1,70,-1
 430 -195 l 1,71,72
 384 -141 384 -141 308 -147 c 0,73,74
 304 -147 304 -147 298 -147 c 2,75,-1
 294 -147 l 1,76,-1
 260 -147 l 1,54,55
EndSplineSet
EndChar

StartChar: m_uu
Encoding: 3394 3394 162
Width: 622
GlyphClass: 2
Flags: W
LayerCount: 2
Fore
SplineSet
102 -428 m 2,0,1
 108 -444 108 -444 141 -483 c 1,2,3
 178 -530 178 -530 231 -535 c 1,4,-1
 270 -537 l 2,5,6
 378 -543 378 -543 426 -485 c 0,7,8
 450 -457 450 -457 460 -412 c 1,9,-1
 473 -336 l 1,10,-1
 397 -371 l 1,11,12
 348 -391 348 -391 340 -391 c 0,13,14
 258 -395 258 -395 200 -377 c 0,15,16
 174 -369 174 -369 151 -354 c 1,17,-1
 149 -354 l 2,18,19
 120 -354 120 -354 90 -289 c 2,20,-1
 77 -260 l 1,21,22
 63 -217 63 -217 73 -178 c 1,23,24
 77 -154 77 -154 90 -133 c 1,25,26
 112 -94 112 -94 143 -70 c 0,27,28
 178 -43 178 -43 247 -23 c 1,29,-1
 280 227 l 1,30,31
 305 367 305 367 299 543 c 1,32,33
 296 580 296 580 294 623 c 1,34,35
 282 774 282 774 167 891 c 1,36,-1
 86 954 l 2,37,38
 67 969 67 969 69 985 c 1,39,-1
 71 987 l 1,40,41
 84 1020 84 1020 133 1020 c 2,42,-1
 135 1020 l 2,43,44
 161 1020 161 1020 235 971 c 1,45,46
 282 944 282 944 313 913 c 1,47,48
 409 801 409 801 430 692 c 1,49,-1
 438 633 l 2,50,51
 454 508 454 508 432 223 c 1,52,53
 419 33 419 33 403 -27 c 1,54,55
 528 -43 528 -43 591 -174 c 1,56,-1
 598 -197 l 1,57,58
 632 -274 632 -274 622 -362 c 0,59,60
 618 -389 618 -389 610 -420 c 1,61,62
 604 -465 604 -465 585 -504 c 1,63,64
 526 -616 526 -616 364 -641 c 1,65,-1
 335 -645 l 1,66,67
 280 -651 280 -651 247 -647 c 1,68,69
 131 -618 131 -618 86 -582 c 1,70,71
 57 -555 57 -555 43 -535 c 1,72,-1
 14 -485 l 1,73,74
 -9 -430 -9 -430 0 -397 c 1,75,76
 2 -381 2 -381 14 -371 c 1,77,78
 34 -350 34 -350 55 -356 c 1,79,80
 61 -360 61 -360 69 -367 c 2,81,-1
 81 -377 l 2,82,83
 84 -379 84 -379 90 -391 c 1,84,-1
 102 -428 l 2,0,1
178 -223 m 1,85,-1
 188 -260 l 1,86,87
 202 -272 202 -272 223 -281 c 1,88,89
 274 -299 274 -299 333 -295 c 0,90,91
 350 -293 350 -293 366 -289 c 0,92,93
 442 -272 442 -272 442 -225 c 2,94,-1
 442 -223 l 2,95,96
 442 -182 442 -182 403 -152 c 1,97,-1
 397 -145 l 1,98,99
 362 -117 362 -117 294 -125 c 0,100,101
 278 -127 278 -127 260 -129 c 1,102,103
 227 -135 227 -135 215 -145 c 1,104,105
 161 -176 161 -176 178 -223 c 1,85,-1
EndSplineSet
EndChar

StartChar: m_r
Encoding: 3395 3395 163
Width: 528
GlyphClass: 2
Flags: W
LayerCount: 2
Fore
SplineSet
214 -479 m 1,0,1
 232 -385 232 -385 226 -307 c 0,2,3
 222 -264 222 -264 210 -223 c 1,4,-1
 195 -188 l 1,5,6
 152 -111 152 -111 91 -117 c 1,7,8
 -14 -139 -14 -139 -38 -242 c 1,9,10
 -57 -313 -57 -313 -14 -385 c 1,11,12
 11 -436 11 -436 101 -475 c 0,13,14
 119 -483 119 -483 150 -481 c 1,15,16
 165 -479 165 -479 183 -477 c 1,17,-1
 210 -477 l 1,18,-1
 214 -479 l 1,0,1
304 -453 m 1,19,20
 375 -362 375 -362 375 -262 c 0,21,22
 375 -139 375 -139 283 94 c 1,23,24
 185 338 185 338 150 612 c 1,25,-1
 148 739 l 1,26,27
 148 836 148 836 181 932 c 0,28,29
 195 973 195 973 205 991 c 1,30,31
 222 1014 222 1014 304 1014 c 2,32,-1
 306 1014 l 1,33,-1
 320 1008 l 2,34,35
 349 995 349 995 341 958 c 1,36,-1
 332 932 l 1,37,-1
 324 911 l 1,38,39
 257 739 257 739 298 514 c 0,40,41
 318 399 318 399 365 272 c 1,42,-1
 402 176 l 1,43,44
 500 -82 500 -82 515 -170 c 1,45,46
 531 -279 531 -279 509 -369 c 1,47,48
 496 -414 496 -414 472 -455 c 1,49,50
 427 -537 427 -537 332 -580 c 1,51,52
 248 -621 248 -621 160 -608 c 0,53,54
 115 -602 115 -602 72 -584 c 0,55,56
 38 -569 38 -569 9 -547 c 1,57,58
 -71 -477 -71 -477 -106 -385 c 1,59,60
 -147 -272 -147 -272 -120 -195 c 0,61,62
 -106 -156 -106 -156 -77 -127 c 2,63,-1
 -75 -125 l 2,64,65
 33 -16 33 -16 130 -39 c 0,66,67
 142 -41 142 -41 156 -45 c 1,68,69
 189 -57 189 -57 238 -102 c 0,70,71
 283 -143 283 -143 296 -244 c 1,72,73
 304 -348 304 -348 304 -453 c 1,19,20
EndSplineSet
EndChar

StartChar: m_e
Encoding: 3398 3398 166
Width: 1147
GlyphClass: 2
Flags: W
LayerCount: 2
Fore
SplineSet
363 549 m 1,0,1
 257 530 257 530 214 406 c 1,2,3
 193 352 193 352 197 295 c 0,4,5
 197 285 197 285 199 274 c 1,6,7
 201 229 201 229 220 174 c 1,8,9
 252 88 252 88 318 57 c 1,10,-1
 322 57 l 1,11,12
 353 41 353 41 379 43 c 0,13,14
 384 43 384 43 390 45 c 0,15,16
 453 57 453 57 492 139 c 0,17,18
 553 268 553 268 504 416 c 1,19,-1
 498 438 l 1,20,21
 453 549 453 549 375 549 c 2,22,-1
 363 549 l 1,0,1
156 463 m 1,23,24
 166 492 166 492 195 528 c 0,25,26
 246 594 246 594 310 614 c 1,27,-1
 312 614 l 1,28,29
 392 639 392 639 470 616 c 1,30,31
 506 604 506 604 543 580 c 1,32,-1
 545 578 l 1,33,34
 594 545 594 545 621 496 c 1,35,36
 689 379 689 379 672 244 c 0,37,38
 668 213 668 213 660 184 c 0,39,40
 601 -27 601 -27 396 -33 c 1,41,42
 271 -39 271 -39 191 57 c 1,43,-1
 191 57 l 1,44,45
 95 172 95 172 82 393 c 1,46,-1
 82 395 l 1,47,48
 76 512 76 512 89 592 c 0,49,50
 97 635 97 635 107 668 c 0,51,52
 175 872 175 872 343 958 c 1,53,54
 461 1024 461 1024 609 1012 c 0,55,56
 627 1010 627 1010 650 1006 c 0,57,58
 814 981 814 981 932 852 c 1,59,60
 1086 688 1086 688 1065 424 c 1,61,-1
 1061 381 l 1,62,63
 1033 190 1033 190 924 35 c 1,64,-1
 922 33 l 1,65,66
 902 2 902 2 881 -18 c 1,67,68
 855 -41 855 -41 812 -35 c 1,69,-1
 783 -27 l 1,70,71
 740 -12 740 -12 754 23 c 0,72,73
 758 35 758 35 771 49 c 1,74,-1
 795 78 l 1,75,76
 844 160 844 160 867 209 c 1,77,78
 943 399 943 399 916 563 c 1,79,80
 906 639 906 639 873 709 c 1,81,-1
 838 768 l 1,82,83
 769 868 769 868 668 915 c 1,84,-1
 666 915 l 1,85,86
 566 956 566 956 465 928 c 1,87,88
 416 913 416 913 365 883 c 1,89,-1
 306 838 l 1,90,91
 179 721 179 721 156 532 c 1,92,-1
 154 473 l 1,93,-1
 156 463 l 1,23,24
EndSplineSet
EndChar

StartChar: m_ee
Encoding: 3399 3399 167
Width: 988
GlyphClass: 2
Flags: W
LayerCount: 2
Fore
SplineSet
580 217 m 1,0,1
 586 168 586 168 586 156 c 1,2,3
 611 92 611 92 689 86 c 1,4,-1
 732 88 l 1,5,-1
 742 92 l 2,6,7
 803 117 803 117 824 219 c 1,8,9
 828 244 828 244 818 272 c 1,10,11
 814 289 814 289 803 303 c 1,12,13
 760 375 760 375 701 362 c 1,14,15
 695 362 695 362 689 360 c 0,16,17
 580 328 580 328 580 217 c 1,0,1
574 45 m 1,18,19
 484 104 484 104 476 207 c 1,20,-1
 476 229 l 2,21,22
 476 330 476 330 539 399 c 1,23,24
 596 455 596 455 703 453 c 1,25,26
 812 453 812 453 867 377 c 0,27,28
 871 373 871 373 875 362 c 1,29,30
 918 281 918 281 906 195 c 0,31,32
 902 170 902 170 893 143 c 1,33,-1
 879 113 l 1,34,35
 814 -12 814 -12 674 -31 c 1,36,-1
 640 -33 l 2,37,38
 418 -47 418 -47 279 57 c 1,39,40
 214 98 214 98 173 168 c 0,41,42
 66 348 66 348 82 545 c 0,43,44
 84 561 84 561 87 582 c 1,45,-1
 87 584 l 1,46,47
 128 881 128 881 388 987 c 1,48,49
 461 1014 461 1014 560 1014 c 0,50,51
 728 1014 728 1014 814 940 c 1,52,-1
 846 905 l 2,53,54
 873 874 873 874 889 823 c 0,55,56
 916 739 916 739 889 666 c 0,57,58
 875 631 875 631 850 596 c 0,59,60
 801 528 801 528 709 522 c 1,61,62
 648 520 648 520 607 537 c 1,63,64
 580 547 580 547 562 561 c 1,65,66
 551 567 551 567 549 569 c 0,67,68
 467 643 467 643 476 762 c 1,69,-1
 476 774 l 1,70,71
 484 862 484 862 564 920 c 1,72,-1
 586 934 l 1,73,74
 556 936 556 936 519 928 c 0,75,76
 500 924 500 924 480 918 c 0,77,78
 369 879 369 879 310 774 c 1,79,-1
 306 768 l 1,80,81
 214 618 214 618 234 436 c 0,82,83
 238 403 238 403 244 373 c 0,84,85
 277 188 277 188 445 86 c 1,86,87
 506 45 506 45 574 45 c 1,18,19
578 762 m 1,88,89
 582 717 582 717 586 700 c 1,90,91
 609 641 609 641 689 625 c 1,92,93
 715 618 715 618 732 623 c 0,94,95
 740 625 740 625 744 629 c 0,96,97
 834 709 834 709 812 799 c 1,98,99
 807 815 807 815 799 834 c 0,100,101
 771 897 771 897 689 895 c 1,102,103
 613 895 613 895 582 803 c 1,104,-1
 578 762 l 1,88,89
EndSplineSet
EndChar

StartChar: m_ai
Encoding: 3400 3400 168
Width: 2274
GlyphClass: 2
Flags: W
LayerCount: 2
Fore
SplineSet
1487 549 m 1,0,1
 1383 530 1383 530 1340 406 c 0,2,3
 1319 344 1319 344 1324 289 c 1,4,5
 1326 281 1326 281 1326 274 c 0,6,7
 1334 109 1334 109 1444 57 c 1,8,-1
 1446 57 l 1,9,10
 1479 41 1479 41 1506 43 c 0,11,12
 1512 43 1512 43 1516 45 c 1,13,14
 1577 57 1577 57 1618 139 c 0,15,16
 1666 233 1666 233 1651 338 c 0,17,18
 1645 377 1645 377 1633 416 c 1,19,-1
 1625 438 l 1,20,21
 1580 549 1580 549 1502 549 c 2,22,-1
 1487 549 l 1,0,1
1283 463 m 1,23,24
 1293 492 1293 492 1319 528 c 1,25,26
 1375 594 1375 594 1436 614 c 1,27,-1
 1438 614 l 1,28,29
 1518 639 1518 639 1594 616 c 0,30,31
 1633 604 1633 604 1668 580 c 1,32,-1
 1670 580 l 1,33,-1
 1672 578 l 1,34,35
 1721 545 1721 545 1747 496 c 1,36,37
 1829 348 1829 348 1784 184 c 1,38,39
 1772 127 1772 127 1737 78 c 1,40,41
 1659 -27 1659 -27 1522 -33 c 0,42,43
 1395 -39 1395 -39 1317 57 c 1,44,-1
 1315 57 l 1,45,46
 1221 170 1221 170 1211 393 c 1,47,-1
 1211 395 l 1,48,49
 1203 512 1203 512 1215 594 c 0,50,51
 1221 637 1221 637 1233 668 c 1,52,53
 1301 870 1301 870 1471 958 c 1,54,55
 1588 1024 1588 1024 1733 1012 c 0,56,57
 1756 1010 1756 1010 1776 1006 c 0,58,59
 1942 981 1942 981 2061 852 c 1,60,61
 2212 686 2212 686 2192 424 c 1,62,-1
 2188 381 l 1,63,64
 2157 186 2157 186 2051 35 c 1,65,-1
 2049 33 l 1,66,67
 2026 -2 2026 -2 2006 -18 c 1,68,69
 1981 -41 1981 -41 1938 -35 c 1,70,-1
 1907 -27 l 1,71,72
 1868 -14 1868 -14 1881 20 c 0,73,74
 1885 33 1885 33 1899 49 c 1,75,-1
 1922 78 l 1,76,77
 1960 137 1960 137 1991 209 c 1,78,79
 2069 399 2069 399 2042 563 c 1,80,81
 2032 639 2032 639 1997 709 c 1,82,-1
 1965 768 l 1,83,84
 1891 870 1891 870 1795 915 c 1,85,-1
 1793 915 l 1,86,87
 1694 956 1694 956 1592 928 c 1,88,89
 1543 913 1543 913 1491 883 c 1,90,-1
 1432 838 l 1,91,92
 1301 721 1301 721 1283 532 c 1,93,-1
 1281 473 l 1,94,-1
 1283 463 l 1,23,24
363 549 m 1,95,96
 257 530 257 530 214 406 c 1,97,98
 193 352 193 352 197 295 c 0,99,100
 197 285 197 285 199 274 c 1,101,102
 201 229 201 229 220 174 c 1,103,104
 252 88 252 88 318 57 c 1,105,-1
 322 57 l 1,106,107
 353 41 353 41 379 43 c 0,108,109
 384 43 384 43 390 45 c 0,110,111
 453 57 453 57 492 139 c 0,112,113
 553 268 553 268 504 416 c 1,114,-1
 498 438 l 1,115,116
 453 549 453 549 375 549 c 2,117,-1
 363 549 l 1,95,96
156 463 m 1,118,119
 166 492 166 492 195 528 c 0,120,121
 246 594 246 594 310 614 c 1,122,-1
 312 614 l 1,123,124
 392 639 392 639 470 616 c 1,125,126
 506 604 506 604 543 580 c 1,127,-1
 545 578 l 1,128,129
 594 545 594 545 621 496 c 1,130,131
 689 379 689 379 672 244 c 0,132,133
 668 213 668 213 660 184 c 0,134,135
 646 129 646 129 615 78 c 1,136,137
 535 -27 535 -27 396 -33 c 0,138,139
 271 -39 271 -39 191 57 c 1,140,-1
 191 57 l 1,141,142
 95 172 95 172 82 393 c 1,143,-1
 82 395 l 1,144,145
 76 512 76 512 89 592 c 0,146,147
 97 635 97 635 107 668 c 0,148,149
 175 872 175 872 343 958 c 1,150,151
 461 1024 461 1024 609 1012 c 0,152,153
 627 1010 627 1010 650 1006 c 0,154,155
 814 981 814 981 932 852 c 1,156,157
 1086 688 1086 688 1065 424 c 1,158,-1
 1061 381 l 1,159,160
 1047 299 1047 299 1027 242 c 1,161,162
 994 131 994 131 924 35 c 1,163,-1
 922 33 l 1,164,165
 902 2 902 2 881 -18 c 1,166,167
 855 -41 855 -41 812 -35 c 1,168,-1
 783 -27 l 1,169,170
 740 -12 740 -12 754 23 c 0,171,172
 758 35 758 35 771 49 c 1,173,-1
 795 78 l 1,174,175
 844 160 844 160 867 209 c 1,176,177
 943 399 943 399 916 563 c 1,178,179
 906 639 906 639 873 709 c 1,180,-1
 838 768 l 1,181,182
 769 868 769 868 668 915 c 1,183,-1
 666 915 l 1,184,185
 566 956 566 956 465 928 c 1,186,187
 416 913 416 913 365 883 c 1,188,-1
 306 838 l 1,189,190
 179 721 179 721 156 532 c 1,191,-1
 154 473 l 1,192,-1
 156 463 l 1,118,119
EndSplineSet
EndChar

StartChar: m_o
Encoding: 3402 3402 170
Width: 2144
GlyphClass: 2
Flags: W
LayerCount: 2
Fore
SplineSet
1643 1012 m 1,0,1
 1733 1026 1733 1026 1815 991 c 1,2,3
 1856 977 1856 977 1893 950 c 1,4,-1
 1909 934 l 1,5,6
 2065 799 2065 799 2065 479 c 1,7,-1
 2063 414 l 1,8,9
 2049 207 2049 207 1942 82 c 1,10,11
 1852 -27 1852 -27 1719 -33 c 1,12,13
 1575 -37 1575 -37 1479 31 c 1,14,15
 1432 63 1432 63 1395 115 c 1,16,17
 1354 170 1354 170 1340 225 c 1,18,-1
 1340 229 l 1,19,20
 1334 256 1334 256 1346 270 c 1,21,22
 1352 279 1352 279 1364 283 c 0,23,24
 1383 289 1383 289 1393 281 c 1,25,26
 1401 276 1401 276 1408 268 c 1,27,-1
 1422 229 l 1,28,29
 1465 119 1465 119 1569 68 c 1,30,31
 1620 41 1620 41 1668 43 c 1,32,33
 1674 45 1674 45 1680 45 c 0,34,35
 1799 45 1799 45 1874 231 c 1,36,37
 1930 379 1930 379 1915 559 c 0,38,39
 1911 608 1911 608 1901 659 c 1,40,41
 1850 864 1850 864 1737 924 c 1,42,-1
 1719 932 l 1,43,44
 1655 950 1655 950 1590 924 c 0,45,46
 1555 909 1555 909 1518 885 c 1,47,-1
 1514 881 l 1,48,-1
 1473 842 l 1,49,50
 1453 813 1453 813 1424 760 c 1,51,-1
 1410 713 l 1,52,53
 1397 690 1397 690 1373 694 c 2,54,-1
 1362 696 l 1,55,56
 1328 709 1328 709 1344 762 c 0,57,58
 1352 788 1352 788 1371 823 c 1,59,60
 1448 977 1448 977 1623 1008 c 1,61,-1
 1643 1012 l 1,0,1
363 549 m 1,62,63
 257 530 257 530 214 406 c 1,64,65
 193 352 193 352 197 295 c 0,66,67
 197 285 197 285 199 274 c 1,68,69
 201 229 201 229 220 174 c 1,70,71
 252 88 252 88 318 57 c 1,72,-1
 322 57 l 1,73,74
 353 41 353 41 379 43 c 0,75,76
 384 43 384 43 390 45 c 0,77,78
 453 57 453 57 492 139 c 0,79,80
 553 268 553 268 504 416 c 1,81,-1
 498 438 l 1,82,83
 453 549 453 549 375 549 c 2,84,-1
 363 549 l 1,62,63
156 463 m 1,85,86
 166 492 166 492 195 528 c 0,87,88
 246 594 246 594 310 614 c 1,89,-1
 312 614 l 1,90,91
 392 639 392 639 470 616 c 1,92,93
 506 604 506 604 543 580 c 1,94,-1
 545 578 l 1,95,96
 594 545 594 545 621 496 c 1,97,98
 689 379 689 379 672 244 c 0,99,100
 668 213 668 213 660 184 c 0,101,102
 601 -27 601 -27 396 -33 c 1,103,104
 271 -39 271 -39 191 57 c 1,105,-1
 191 57 l 1,106,107
 95 172 95 172 82 393 c 1,108,-1
 82 395 l 1,109,110
 76 512 76 512 89 592 c 0,111,112
 97 635 97 635 107 668 c 0,113,114
 175 872 175 872 343 958 c 1,115,116
 461 1024 461 1024 609 1012 c 0,117,118
 627 1010 627 1010 650 1006 c 0,119,120
 814 981 814 981 932 852 c 1,121,122
 1086 688 1086 688 1065 424 c 1,123,-1
 1061 381 l 1,124,125
 1033 190 1033 190 924 35 c 1,126,-1
 922 33 l 1,127,128
 902 2 902 2 881 -18 c 1,129,130
 855 -41 855 -41 812 -35 c 1,131,-1
 783 -27 l 1,132,133
 740 -12 740 -12 754 23 c 0,134,135
 758 35 758 35 771 49 c 1,136,-1
 795 78 l 1,137,138
 844 160 844 160 867 209 c 1,139,140
 943 399 943 399 916 563 c 1,141,142
 906 639 906 639 873 709 c 1,143,-1
 838 768 l 1,144,145
 769 868 769 868 668 915 c 1,146,-1
 666 915 l 1,147,148
 566 956 566 956 465 928 c 1,149,150
 416 913 416 913 365 883 c 1,151,-1
 306 838 l 1,152,153
 179 721 179 721 156 532 c 1,154,-1
 154 473 l 1,155,-1
 156 463 l 1,85,86
EndSplineSet
EndChar

